<svg width="36" height="36" fill="none" xmlns="http://www.w3.org/2000/svg"><circle cx="18" cy="18" r="18" fill="#75A52F"/><g clip-path="url(#clip0)" fill="#fff"><path d="M27.296 20.578c.597-5.023-.287-8.194-1.88-9.628-2.57-2.45-11.256-2.812-14.333.11-1.381 1.428-1.868 3.526-1.921 6.123-.054 2.597-.117 7.463 4.417 8.783h.004l-.004 2.016s-.03.816.491.98c.597.194.867-.185 2.723-2.402 3.103.27 5.486-.348 5.757-.438.627-.21 4.173-.679 4.746-5.544zm-10.198 4.564s-1.964 2.449-2.575 3.085c-.2.206-.419.187-.415-.223 0-.269.015-3.347.015-3.347-3.845-1.101-3.618-5.244-3.576-7.412.041-2.168.438-3.944 1.608-5.14 2.7-2.53 10.313-1.965 12.253-.142 2.372 2.103 1.528 8.043 1.533 8.245-.488 4.062-3.36 4.32-3.89 4.495-.225.075-2.32.614-4.953.439z"/><path d="M18.185 12.58c-.32 0-.32.5 0 .505 2.49.02 4.54 1.754 4.562 4.937 0 .336.491.331.487-.005-.027-3.429-2.266-5.417-5.049-5.436z"/><path d="M21.46 17.494c-.008.332.482.348.487.012.04-1.891-1.125-3.449-3.316-3.613-.321-.023-.354.481-.034.505 1.9.144 2.9 1.44 2.862 3.096zm-.526 2.151c-.411-.238-.83-.09-1.004.144l-.362.47c-.185.238-.529.206-.529.206-2.511-.664-3.183-3.292-3.183-3.292s-.03-.356.2-.547l.452-.375c.227-.18.37-.613.14-1.04-.617-1.113-1.031-1.497-1.242-1.792-.222-.278-.555-.34-.902-.153h-.007c-.721.422-1.51 1.21-1.258 2.023.431.857 1.223 3.588 3.746 5.651 1.186.976 3.063 1.976 3.86 2.207l.007.012c.785.261 1.548-.559 1.956-1.301v-.006c.18-.36.12-.7-.144-.922-.468-.456-1.175-.96-1.73-1.285z"/><path d="M18.974 15.754c.801.046 1.19.464 1.231 1.324.015.335.503.312.488-.024-.054-1.121-.639-1.746-1.692-1.805-.32-.019-.35.485-.027.505z"/></g><defs><clipPath id="clip0"><path fill="#fff" transform="translate(8 9)" d="M0 0h20v20H0z"/></clipPath></defs></svg>