<svg width="46" height="42" fill="none" xmlns="http://www.w3.org/2000/svg"><path d="M29.76 6.21h10.827V2.053c0-.744-.604-1.347-1.348-1.347h-8.13c-.745 0-1.348.603-1.348 1.347V6.21zM16.24 35.88H0v4.066c0 .744.603 1.348 1.348 1.348h13.544c.744 0 1.347-.604 1.347-1.348V35.88zm13.52 0v4.066c0 .744.604 1.348 1.348 1.348h13.544c.745 0 1.348-.604 1.348-1.348V35.88H29.76zm-13.52-2.695V8.905H5.032L1.359 23.54A45.184 45.184 0 00.02 33.185h16.22zm13.52-24.28v24.28h16.22a45.195 45.195 0 00-1.338-9.644L40.967 8.905H29.761zm-2.695 5.323v-2.695h-8.13v18.935h8.13v-16.24zm-5.413 9.478v-5.412a1.348 1.348 0 012.696 0v5.412a1.348 1.348 0 01-2.696 0zM16.24 6.21V2.053c0-.744-.604-1.347-1.348-1.347H6.76c-.745 0-1.348.603-1.348 1.347V6.21H16.24z" fill="#6FB8D9"/></svg>