<svg width="42" height="38" fill="none" xmlns="http://www.w3.org/2000/svg"><path d="M2.153 36.683l6.628-3.09v-3.812H.875v6.087a.898.898 0 001.278.815zM15.969 24.05v11.735l4.942 1.854 2.245-.835v-9.528l-4.54-3.243-2.647.017zM.875 17.563h7.906v5.03H.875v-5.03zm15.094 0h5.982l2.091-5.23-2.828.884a.72.72 0 01-.428 0l-2.263-.707-2.554 3.833v1.22zM9.5 11.813c2.675 0 4.313-.931 4.313-1.438 0-.46-1.348-1.268-3.594-1.414V4.625h5.57a.18.18 0 00.18-.18V.312H8.96a.18.18 0 00-.18.18v8.469c-2.246.146-3.594.954-3.594 1.414 0 .507 1.638 1.438 4.313 1.438z" fill="#6FB8D9"/><path d="M29.716 31.552a25.714 25.714 0 01-.652-.783c-2.012-2.515-3.033-4.782-3.033-6.738a6.458 6.458 0 012.3-4.941l2.354-8.832-4.873 1.523-2.707 6.768a.72.72 0 01-.668.451H15.25a.719.719 0 01-.719-.719v-2.156c0-.142.042-.28.12-.399l2.443-3.662-2.17-.678c-.27.395-.748.817-1.583 1.175-1.038.444-2.402.689-3.841.689s-2.803-.245-3.84-.69c-.62-.265-1.043-.566-1.33-.864l-2.88 1.107a.898.898 0 00-.575.839v2.483H9.5a.719.719 0 01.719.719v6.468a.719.719 0 01-.719.72H.875v4.312H9.5a.719.719 0 01.719.718v4.567l4.312 1.617v-11.91a.719.719 0 01.714-.72l3.594-.022h.005c.15 0 .296.046.418.134l5.03 3.593a.72.72 0 01.302.585v9.363l2.625-.977a1.844 1.844 0 01-.469-1.198c0-1.124 1.13-2.064 2.966-2.542zm9.253-7.521c0 1.103-.325 2.305-.968 3.594h3.124v-4.313h-2.196c.026.24.04.48.04.72zM32.5 25.469a1.438 1.438 0 100-2.875 1.438 1.438 0 000 2.875z" fill="#6FB8D9"/><path d="M32.476 9.698l-.168.052-2.206 8.273a6.47 6.47 0 018.497 3.852h2.526v-8.233a.898.898 0 00-.576-.839l-8.073-3.105zm1.674 23.086a22.322 22.322 0 01-1.177 1.132.719.719 0 01-.946 0c-.035-.03-.509-.447-1.178-1.132-1.717.276-2.662.932-2.662 1.31 0 .507 1.638 1.437 4.313 1.437s4.313-.93 4.313-1.437c0-.378-.945-1.034-2.662-1.31z" fill="#6FB8D9"/><path d="M35.936 30.77c-.22.274-.438.535-.652.782 1.837.478 2.966 1.418 2.966 2.542 0 .304-.088.768-.51 1.245l2.164.832a.899.899 0 001.221-.838v-6.27h-3.95a21.38 21.38 0 01-1.239 1.707zm-5.75-.899c.717.89 1.49 1.733 2.314 2.524a26.738 26.738 0 002.328-2.541c1.769-2.215 2.703-4.229 2.703-5.823a5.031 5.031 0 10-10.062 0c0 1.599.94 3.618 2.717 5.84zm2.314-8.715a2.875 2.875 0 110 5.75 2.875 2.875 0 010-5.75z" fill="#6FB8D9"/></svg>