<svg width="32" height="32" fill="none" xmlns="http://www.w3.org/2000/svg"><path d="M21.48 6.113h2.603a.697.697 0 00.992.979l1.183-1.183a.697.697 0 000-.986l-1.183-1.182a.697.697 0 00-.992.978h-2.604a.697.697 0 100 1.394zm4.285 2.612H23.16a.697.697 0 00-.992-.979l-1.183 1.183a.697.697 0 000 .985l1.183 1.183a.695.695 0 00.985 0 .697.697 0 00.007-.979h2.604a.697.697 0 100-1.393zm-3.13 5.02c-.389 0-.782.075-1.15.214a3.099 3.099 0 00-2.76-1.696c-.43 0-.838.081-1.21.228a3.102 3.102 0 00-3.598-1.52v-.853l.003-2.907c0-.803 0-1.162-.002-1.34h.003C13.92 4.313 12.509 3 10.837 3a3.104 3.104 0 00-3.099 3.1v9.447c-1.14.381-2.148 1.435-2.19 2.938-.067 2.352.126 5.329 2.222 7.485 1.77 1.82 4.539 2.704 8.466 2.704 3.532 0 6.144-1.039 7.764-3.088 1.138-1.439 1.74-3.378 1.74-5.608l-.006-3.136a3.102 3.102 0 00-3.1-3.097zm-6.4 13.535c-8.313 0-9.422-4.214-9.294-8.756.03-1.095.972-1.742 1.742-1.742v2.009c0 .253.175.282.227.282.053 0 .222-.029.222-.282V6.1c0-.942.764-1.705 1.705-1.705.865 0 1.69.668 1.69 1.476l-.005 7.802-.001.01v.322a.278.278 0 00.555 0v-.084a1.705 1.705 0 013.41.029l.002 1.235a.273.273 0 10.547 0v-.071c0-.858.832-1.456 1.69-1.456.941 0 1.701.763 1.701 1.705l.004 1.25a.266.266 0 00.532 0l-.001-.095c0-.78.844-1.378 1.674-1.378.941 0 1.705.764 1.705 1.706l.006 3.133c0 2.914-1.134 7.302-8.11 7.302z" fill="#000"/></svg>