<svg width="108" height="108" fill="none" xmlns="http://www.w3.org/2000/svg"><g clip-path="url(#clip0)" fill="#333"><path d="M107.615 33.667L97.93 11.42a3.526 3.526 0 00-3.234-2.12H13.304a3.526 3.526 0 00-3.234 2.12L.385 33.667a4.713 4.713 0 00.73 4.907l50.18 58.886a3.521 3.521 0 002.684 1.24 3.523 3.523 0 002.685-1.238l16.872-19.784a1.6 1.6 0 10-2.435-2.077L57.813 91.183l20.95-53.887h25.007L75.785 70.11a1.6 1.6 0 102.435 2.076l28.665-33.61a4.71 4.71 0 00.73-4.909zm-3.304.428H80.813L95.52 13.9l8.792 20.196zM36.279 54.963l14.258 36.672L4.23 37.295h25.18l4.396 11.306a1.6 1.6 0 102.983-1.16l-3.945-10.145H75.33L54.087 91.933l-14.825-38.13a1.6 1.6 0 00-2.983 1.16zm23.864-42.462l3.661 5.444a1.599 1.599 0 002.221.435 1.6 1.6 0 00.435-2.22L64 12.5h28.578L77.72 32.906l-7.392-10.994a1.6 1.6 0 10-2.656 1.786l6.992 10.398H33.51l14.52-21.594h12.114zm-29.69 20.404L15.596 12.501h28.577l-13.72 20.404zM12.546 13.75L27.36 34.095H3.69l8.856-20.345zM24.29 82.356a2.685 2.685 0 00-2.59-.169l-8.279 3.864a2.708 2.708 0 00-1.39 3.383c1.577 4.22 5.166 6.503 10.666 6.788a2.715 2.715 0 002-.739 2.71 2.71 0 00.841-1.956v-8.895c0-.927-.466-1.778-1.248-2.276zm-1.952 10.635c-5.08-.42-6.585-2.936-7.137-4.24l7.137-3.33v7.57zm-1.374-19.428a2.685 2.685 0 00-.724-2.492l-6.453-6.467a2.708 2.708 0 00-3.654-.154c-3.43 2.92-4.354 7.073-2.748 12.341.215.706.717 1.3 1.377 1.63a2.706 2.706 0 002.125.123l8.363-3.031a2.686 2.686 0 001.714-1.95zM10.3 75.353c-1.336-4.92.516-7.192 1.553-8.155l5.563 5.575-7.117 2.58zM94.753 86.05l-8.28-3.863a2.685 2.685 0 00-2.59.17 2.685 2.685 0 00-1.248 2.275v8.895c0 .736.306 1.45.84 1.956a2.715 2.715 0 002.001.74c5.5-.285 9.09-2.57 10.666-6.789a2.709 2.709 0 00-1.39-3.383zm-8.917 6.941v-7.57l7.136 3.33c-.551 1.304-2.055 3.82-7.136 4.24zM98.041 64.45a2.709 2.709 0 00-3.655.154l-6.453 6.467a2.685 2.685 0 00-.723 2.493 2.685 2.685 0 001.714 1.949l8.363 3.03a2.706 2.706 0 002.125-.123 2.714 2.714 0 001.377-1.629c1.606-5.268.682-9.42-2.748-12.34zm-.168 10.902l-7.117-2.579 5.563-5.575c1.037.963 2.89 3.234 1.554 8.154z"/></g><defs><clipPath id="clip0"><path fill="#fff" d="M0 0h108v108H0z"/></clipPath></defs></svg>