<svg width="24" height="24" fill="none" xmlns="http://www.w3.org/2000/svg"><path d="M15.883 15.004a5.848 5.848 0 00-1.781-1.78V3.147a3.148 3.148 0 10-6.295 0v10.075a5.848 5.848 0 108.076 1.781zm-1.862 3.432a3.092 3.092 0 01-3.069 2.653v-.005a3.092 3.092 0 01-.447-6.152V8.15a.447.447 0 01.895 0v6.787a3.092 3.092 0 012.621 3.499z" fill="#65951E"/><path opacity=".5" d="M10.952 20.19a2.197 2.197 0 100-4.394 2.197 2.197 0 000 4.393zm7.495-17.114H15.65a.447.447 0 000 .895h2.796a.447.447 0 000-.895zm-.577 2.237h-1.643a.447.447 0 000 .895h1.642a.447.447 0 000-.895zm.577 2.237H15.65a.447.447 0 000 .895h2.796a.447.447 0 000-.895zm-.577 2.237h-1.643a.447.447 0 000 .895h1.642a.447.447 0 100-.895zm.577 2.237H15.65a.447.447 0 100 .895h2.796a.447.447 0 000-.895z" fill="#65951E"/></svg>