<svg width="24" height="24" fill="none" xmlns="http://www.w3.org/2000/svg"><path opacity=".5" d="M3.005 8.656l.498-.763c.247-.38.522-.737.82-1.073v-.132c0-1.404.55-2.728 1.548-3.728 1-1 2.321-1.552 3.723-1.552h4.813c1.4 0 2.723.551 3.722 1.552a5.245 5.245 0 011.548 3.728V6.9c.265.305.51.63.733.97l.358.522c.107.156.212.313.316.47V6.689C21.084 3 18.088 0 14.406 0H9.595C5.912 0 2.916 3 2.916 6.688v2.107l.089-.139z" fill="#65951E"/><path d="M21.87 13.184l-.257-.533a26.152 26.152 0 00-2.004-3.46l-.366-.535c-1.529-2.339-4.25-3.735-7.28-3.735 0 0 .001 0 0 0-3.032 0-5.755 1.399-7.283 3.742l-.498.763a26.263 26.263 0 00-1.67 2.966l-.381.792c-1.066 2.22-.93 4.709.372 6.826 1.502 2.441 4.243 3.932 7.333 3.988l.186.002h3.957l.185-.002c3.09-.056 5.831-1.547 7.333-3.988 1.302-2.117 1.438-4.605.372-6.826zm-10.457 5.254a.7.7 0 01-.994.018l-1.873-1.81v1.303a.704.704 0 11-1.406 0v-5.352a.704.704 0 111.406 0v1.11l1.695-1.561a.702.702 0 01.994.042.705.705 0 01-.042.995l-2.154 1.983 2.356 2.276c.28.27.287.716.018.996zm4.313.249a3.381 3.381 0 010-6.76c.676 0 1.329.2 1.887.577a.705.705 0 01-.787 1.167 1.955 1.955 0 00-1.1-.336 1.973 1.973 0 000 3.943c.882 0 1.34-.59 1.516-1.267h-.808a.704.704 0 010-1.409h1.598c.389 0 .704.316.704.704 0 1.99-1.238 3.38-3.01 3.38z" fill="#65951E"/></svg>