<svg width="33" height="40" fill="none" xmlns="http://www.w3.org/2000/svg"><path d="M32.329 32.27l-5.282-9.363c.505-.348.787-.96.75-1.618v-.008l-.001-.007-.388-3.276 2.22-2.346c.606-.614.635-1.643.05-2.36l-.005-.005-.005-.005-2.222-2.42.459-3.312h0l.001-.01c.085-.857-.504-1.717-1.368-1.892h0l-3.21-.64-1.549-2.877c-.383-.808-1.301-1.148-2.133-.838H19.6l-.05.024-2.96 1.386-2.883-1.418a1.668 1.668 0 00-1.285-.129 1.694 1.694 0 00-.987.82L9.85 4.855l-3.207.57h0-.004c-.9.174-1.491.996-1.407 1.927h0v.007l.389 3.276-2.22 2.346c-.607.614-.635 1.643-.05 2.36l.004.005.005.005 2.222 2.42-.458 3.312h0l-.001.007c-.076.688.28 1.333.853 1.68l-5.313 9.5c-.207.322-.14.715-.01.977l.007.014.009.013c.18.272.47.48.83.48h5.7l2.595 4.556.004.007.005.007c.18.272.47.481.83.481.338 0 .683-.19.84-.5l5.004-8.614 5.01 8.73.003.007.004.007c.18.272.47.48.83.48.34 0 .685-.19.842-.501l2.593-4.66h5.7a.96.96 0 00.83-.481.864.864 0 00.04-1.004zm-21.662 3.57l-2.048-3.565-.003-.007-.005-.006c-.18-.272-.47-.481-.83-.481H3.167l4.747-8.468 1.788.316 1.547 2.874c.384.808 1.302 1.148 2.134.838h.045l.05-.024 1.29-.602.546.965-4.646 8.16zm5.039-11.737l-2.838 1.346-1.504-2.861h0l-.006-.012c-.246-.413-.67-.77-1.204-.82l-3.115-.581.442-3.152c.083-.513-.082-1.07-.431-1.426l-2.107-2.331 2.141-2.264c.38-.384.555-.903.47-1.425l-.38-3.18 3.136-.557h.001a1.73 1.73 0 001.197-.864h.001L13.037 3.2l2.777 1.367c.473.258 1.07.258 1.543.001l2.839-1.311L21.7 6.12h0l.006.012c.244.409.665.768 1.165.82l3.081.615-.442 3.155c-.083.513.082 1.071.432 1.426l2.14 2.331-2.175 2.262c-.38.385-.555.904-.47 1.427l.373 3.15-3.053.513h0-.004a1.73 1.73 0 00-1.197.864s0 0 0 0l-1.529 2.776-2.777-1.367a1.637 1.637 0 00-1.544 0zm9.503 7.678a.956.956 0 00-.842.502l-2.047 3.664-4.92-8.59a.831.831 0 00-.172-.305l-.579-1.036 2.712 1.335s0 0 0 0c.262.132.521.174.77.174.59 0 1.193-.297 1.498-.868l.001-.001 1.586-2.88 1.9-.351 4.708 8.356h-4.615z" fill="#FF7900" stroke="#FF7900" stroke-width=".5"/><path d="M24.035 14.335c0-4.19-3.399-7.623-7.558-7.623S8.92 10.144 8.92 14.335c0 4.192 3.398 7.623 7.557 7.623 4.16 0 7.558-3.431 7.558-7.623zm-7.558 5.649c-3.075 0-5.596-2.54-5.596-5.649 0-3.108 2.521-5.648 5.596-5.648s5.596 2.54 5.596 5.648c0 3.109-2.52 5.649-5.596 5.649z" fill="#FF7900" stroke="#FF7900" stroke-width=".5"/></svg>