<svg width="16" height="16" fill="none" xmlns="http://www.w3.org/2000/svg"><g clip-path="url(#clip0)" fill="#333"><path d="M14.25 1.984a.469.469 0 00-.469-.468h-1.875a.468.468 0 00-.362.17L14.25 4.04V1.984zm1.589 4.678L8.308.115a.469.469 0 00-.616 0L.162 6.662a.469.469 0 00.614.708l.849-.738v8.43h-.344a.469.469 0 000 .938H14.72a.469.469 0 000-.937h-.468V6.524l.973.846a.466.466 0 00.661-.047.469.469 0 00-.046-.66zm-3.527 2.246c0 .501-.211.961-.562 1.319v3.46c0 .26-.21.47-.469.47H4.595a.469.469 0 01-.469-.47v-3.46c-.35-.358-.562-.818-.562-1.32V7.22c0-.259.21-.469.469-.469h2.155v-.672c0-.474.39-.859.869-.859h1.762c.48 0 .87.385.87.859v.672h2.155c.259 0 .469.21.469.469v1.689z"/><path d="M7.47 10.062h.937v.937h-.938v-.938zm-.345-3.906h1.626v.594H7.125v-.594z"/><path d="M9.344 10.969v.499c0 .259-.21.469-.468.469H7a.469.469 0 01-.47-.47v-.498h-.546c-.326 0-.637-.055-.921-.155v2.405h5.748v-2.405a2.78 2.78 0 01-.921.155h-.547zM4.501 8.907c0 .61.68 1.124 1.484 1.124h.547v-.438c0-.26.21-.47.469-.47h1.875c.258 0 .468.21.468.47v.438h.547c.804 0 1.484-.514 1.484-1.124v-1.22H4.501v1.22z"/></g><defs><clipPath id="clip0"><path fill="#fff" d="M0 0h16v16H0z"/></clipPath></defs></svg>