<svg width="36" height="36" fill="none" xmlns="http://www.w3.org/2000/svg"><circle cx="18" cy="18" r="18" fill="#75A52F"/><g clip-path="url(#clip0)"><path d="M15.063 20.386l-.298 4.188c.426 0 .61-.183.832-.403l1.997-1.909 4.139 3.031c.758.423 1.293.2 1.498-.698l2.716-12.73h.001c.241-1.122-.405-1.56-1.145-1.285L8.836 16.693c-1.09.423-1.074 1.03-.186 1.306l4.082 1.27 9.483-5.934c.446-.295.852-.132.518.164l-7.67 6.887z" fill="#fff"/></g><defs><clipPath id="clip0"><path fill="#fff" transform="translate(8 9)" d="M0 0h18v18H0z"/></clipPath></defs></svg>