<svg width="6" height="11" viewBox="0 0 6 11" fill="none" xmlns="http://www.w3.org/2000/svg">
<path d="M5.97656 5.21429C5.97656 5.13393 5.93638 5.04353 5.87612 4.98326L1.19531 0.302455C1.13504 0.242188 1.04464 0.202008 0.964286 0.202008C0.883929 0.202008 0.793527 0.242188 0.733259 0.302455L0.231027 0.804688C0.170759 0.864955 0.13058 0.955357 0.13058 1.03571C0.13058 1.11607 0.170759 1.20647 0.231027 1.26674L4.17857 5.21429L0.231027 9.16183C0.170759 9.2221 0.13058 9.3125 0.13058 9.39286C0.13058 9.48326 0.170759 9.56362 0.231027 9.62388L0.733259 10.1261C0.793527 10.1864 0.883929 10.2266 0.964286 10.2266C1.04464 10.2266 1.13504 10.1864 1.19531 10.1261L5.87612 5.44531C5.93638 5.38504 5.97656 5.29464 5.97656 5.21429Z" fill="#F1C19D"/>
</svg>
