<svg width="16" height="12" viewBox="0 0 16 12" fill="none" xmlns="http://www.w3.org/2000/svg">
<path d="M6.44444 5.47931C7.32778 5.05709 7.78889 4.4182 7.78889 3.42375C7.78889 1.46264 6.32778 0.984863 4.64167 0.984863H0V10.8293H4.77222C6.56111 10.8293 8.24167 9.97097 8.24167 7.97097C8.24167 6.73486 7.65556 5.82097 6.44444 5.47931ZM2.16389 2.66542H4.19444C4.975 2.66542 5.67778 2.88486 5.67778 3.79042C5.67778 4.62653 5.13056 4.96264 4.35833 4.96264H2.16389V2.66542ZM4.47778 9.15709H2.16389V6.44597H4.52222C5.475 6.44597 6.07778 6.8432 6.07778 7.85153C6.07778 8.84597 5.35833 9.15709 4.47778 9.15709ZM14.4361 2.47097H10.4444V1.50153H14.4361V2.47097ZM16 7.3682C16 5.25986 14.7667 3.50153 12.5306 3.50153C10.3583 3.50153 8.88333 5.13486 8.88333 7.27375C8.88333 9.4932 10.2806 11.0154 12.5306 11.0154C14.2333 11.0154 15.3361 10.2488 15.8667 8.6182H14.1389C13.9528 9.22653 13.1861 9.54875 12.5917 9.54875C11.4444 9.54875 10.8417 8.87653 10.8417 7.73486H15.9833C15.9917 7.6182 16 7.4932 16 7.3682ZM10.8444 6.50153C10.9083 5.56542 11.5306 4.97931 12.4694 4.97931C13.4528 4.97931 13.9472 5.55709 14.0306 6.50153H10.8444Z" fill="white"/>
</svg>
