<svg width="24" height="24" viewBox="0 0 24 24" fill="none" xmlns="http://www.w3.org/2000/svg">
<path fill-rule="evenodd" clip-rule="evenodd" d="M11.9968 2.69347V0H15.996V2.69347C14.5573 2.45052 13.4045 2.45552 11.9968 2.69347ZM15.907 13.3389L18.5425 9.31373L18.0886 8.90781L14.4163 12.0062C13.7414 11.8682 13.0146 12.0742 12.5227 12.6241C11.7868 13.4469 11.8578 14.7117 12.6816 15.4475C13.5055 16.1834 14.7692 16.1124 15.5051 15.2886C15.997 14.7387 16.12 13.9938 15.907 13.3389ZM22.2521 3.34753L20.8454 4.75425C21.3813 5.15517 21.8832 5.59808 22.3451 6.08199L23.6658 4.76125L22.2521 3.34753ZM1.99868 8.99968H9.99711V10.9993H1.99868V8.99968ZM7.99843 12.9956H0V14.9952H7.99843V12.9956ZM2.99989 16.9963H9.99852V18.9959H2.99989V16.9963ZM13.998 23.9998C19.5199 23.9998 23.996 19.5237 23.996 14.0018C23.996 8.47987 19.5199 4.00375 13.998 4.00375C11.2086 4.00375 8.69905 5.15852 6.88841 7.00316H10.1678C11.3055 6.37229 12.6063 6.00336 13.998 6.00336C18.4081 6.00336 21.9964 9.59165 21.9964 14.0018C21.9964 18.4119 18.4081 22.0002 13.998 22.0002C12.6063 22.0002 11.3055 21.6313 10.1678 21.0004H6.88841C8.69905 22.845 11.2086 23.9998 13.998 23.9998Z" fill="#F1C19D"/>
</svg>
