<svg width="20" height="20" viewBox="0 0 20 20" fill="none" xmlns="http://www.w3.org/2000/svg">
<path d="M10.0018 5.89864C7.73162 5.89864 5.9005 7.72976 5.9005 9.99992C5.9005 12.2701 7.73162 14.1012 10.0018 14.1012C12.2719 14.1012 14.1031 12.2701 14.1031 9.99992C14.1031 7.72976 12.2719 5.89864 10.0018 5.89864ZM10.0018 12.6663C8.53475 12.6663 7.33542 11.4705 7.33542 9.99992C7.33542 8.52932 8.53118 7.33356 10.0018 7.33356C11.4724 7.33356 12.6682 8.52932 12.6682 9.99992C12.6682 11.4705 11.4688 12.6663 10.0018 12.6663ZM15.2274 5.73088C15.2274 6.26272 14.7991 6.68749 14.2708 6.68749C13.739 6.68749 13.3142 6.25915 13.3142 5.73088C13.3142 5.2026 13.7426 4.77427 14.2708 4.77427C14.7991 4.77427 15.2274 5.2026 15.2274 5.73088ZM17.9438 6.70177C17.8831 5.42034 17.5904 4.28526 16.6516 3.35006C15.7165 2.41487 14.5814 2.12218 13.2999 2.05793C11.9793 1.98297 8.02075 1.98297 6.70006 2.05793C5.4222 2.11861 4.28712 2.4113 3.34835 3.34649C2.40959 4.28169 2.12047 5.41677 2.05622 6.6982C1.98126 8.01889 1.98126 11.9774 2.05622 13.2981C2.1169 14.5795 2.40959 15.7146 3.34835 16.6498C4.28712 17.585 5.41863 17.8777 6.70006 17.9419C8.02075 18.0169 11.9793 18.0169 13.2999 17.9419C14.5814 17.8812 15.7165 17.5885 16.6516 16.6498C17.5868 15.7146 17.8795 14.5795 17.9438 13.2981C18.0187 11.9774 18.0187 8.02246 17.9438 6.70177ZM16.2376 14.7151C15.9592 15.4148 15.4202 15.9537 14.717 16.2357C13.664 16.6534 11.1654 16.557 10.0018 16.557C8.83815 16.557 6.33597 16.6498 5.28656 16.2357C4.58695 15.9573 4.04796 15.4183 3.76598 14.7151C3.34835 13.6622 3.44473 11.1636 3.44473 9.99992C3.44473 8.83629 3.35192 6.33411 3.76598 5.2847C4.04439 4.58509 4.58338 4.0461 5.28656 3.76412C6.33954 3.34649 8.83815 3.44287 10.0018 3.44287C11.1654 3.44287 13.6676 3.35006 14.717 3.76412C15.4166 4.04253 15.9556 4.58152 16.2376 5.2847C16.6552 6.33768 16.5588 8.83629 16.5588 9.99992C16.5588 11.1636 16.6552 13.6657 16.2376 14.7151Z" fill="white"/>
</svg>
