<svg width="20" height="20" viewBox="0 0 20 20" fill="none" xmlns="http://www.w3.org/2000/svg">
<path d="M3.89539 6.24238C3.91524 6.04722 3.83916 5.85205 3.69361 5.71974L2.20178 3.92028V3.65234H6.83936L10.4251 11.5151L13.5774 3.65234H18V3.92028L16.7232 5.14418C16.614 5.22687 16.5578 5.3658 16.5809 5.50142V14.4987C16.5578 14.6344 16.614 14.7733 16.7232 14.856L17.9702 16.0799V16.3478H11.6953V16.0799L12.9886 14.8262C13.1143 14.7005 13.1143 14.6608 13.1143 14.469V7.19834L9.51871 16.3247H9.03246L4.85135 7.19834V13.3145C4.81497 13.5725 4.90097 13.8306 5.0829 14.0158L6.76328 16.0534V16.3214H2V16.0567L3.68038 14.0158C3.859 13.8306 3.9417 13.5692 3.89539 13.3145V6.24238Z" fill="white"/>
</svg>
