<svg width="23" height="24" viewBox="0 0 23 24" fill="none" xmlns="http://www.w3.org/2000/svg">
<path fill-rule="evenodd" clip-rule="evenodd" d="M22.08 14.1351C22.08 15.7643 21.1738 17.8191 19.193 18.6637C17.33 21.648 14.755 24 11.04 24C7.52008 24 4.74996 21.648 2.88696 18.6637C0.9062 17.8182 0 15.7634 0 14.1351C0 12.24 0.79304 10.6274 2.4932 10.476C3.0282 4.74334 6.50587 3.22056 9.03065 2.11502C10.205 1.60081 11.1732 1.17686 11.5432 0.461538C11.8404 0.977538 11.9821 1.91169 11.5248 2.57169C12.328 2.53015 13.6813 1.368 14.0594 0.216C14.7531 0.553846 15.0098 1.67169 14.663 2.38892C15.1616 2.29385 16.675 1.32738 17.48 0C18.113 1.44277 17.5039 3.28892 16.8286 4.404L16.8176 4.40492C18.4699 5.98062 19.3761 8.21631 19.5868 10.4751C21.2971 10.6274 22.08 12.2446 22.08 14.1351ZM8.04766 12C7.41286 12 6.89766 12.6203 6.89766 13.3846C6.89766 14.1489 7.41286 14.7692 8.04766 14.7692C8.68246 14.7692 9.19766 14.1489 9.19766 13.3846C9.19766 12.6203 8.68246 12 8.04766 12ZM15.1813 13.3846C15.1813 14.1489 14.6661 14.7692 14.0313 14.7692C13.3965 14.7692 12.8813 14.1489 12.8813 13.3846C12.8813 12.6203 13.3965 12 14.0313 12C14.6661 12 15.1813 12.6203 15.1813 13.3846ZM13.7991 17.5462C13.7991 17.5462 13.0953 19.7192 11.0391 19.7192C9.0583 19.7192 8.27906 17.5462 8.27906 17.5462H13.7991ZM19.088 12.3651C19.2177 12.3079 19.49 12.2738 19.7062 12.4141C20.6262 13.015 20.5287 16.2762 18.2775 17.0405C18.0723 17.1107 17.8975 17.251 17.7853 17.4374C16.2056 20.0608 14.0648 22.1553 11.0398 22.1553C9.10231 22.1553 6.54655 21.1787 4.29531 17.4374C4.18307 17.251 4.00919 17.1107 3.80311 17.0405C1.55095 16.2762 1.45343 13.015 2.37343 12.4141C2.58963 12.2728 2.86287 12.3079 2.99167 12.3651C3.60163 12.6374 4.28519 12.1851 4.28519 11.5214C4.28519 10.9731 4.34499 10.4285 4.43791 9.89129C4.87257 8.16123 5.84306 8.46241 7.26381 8.90331C9.21107 9.5076 12.0041 10.3744 15.4227 6.63375C16.7898 7.29006 17.5185 9.36698 17.8248 11.7707L17.8257 11.7559C17.9711 12.3079 18.5728 12.5959 19.088 12.3651Z" fill="#F1C19D"/>
</svg>
