<svg width="28" height="32" fill="none" xmlns="http://www.w3.org/2000/svg"><path fill-rule="evenodd" clip-rule="evenodd" d="M5.29 1.5a.5.5 0 01.353.146l2.589 2.59-.708.706-2.228-2.229C.122 8.26.237 16.952 5.643 22.357c5.405 5.406 14.097 5.521 19.644.348l-2.23-2.23.708-.707 2.588 2.59a.5.5 0 010 .706c-5.914 5.915-15.503 5.915-21.417 0-5.915-5.914-5.915-15.503 0-21.418A.5.5 0 015.29 1.5z" fill="#8E6954"/><path fill-rule="evenodd" clip-rule="evenodd" d="M16 1.5c-5.778 0-10.5 4.904-10.5 11 0 6.097 4.722 11 10.5 11s10.5-4.903 10.5-11c0-6.096-4.722-11-10.5-11zm-11.5 11C4.5 5.894 9.628.5 16 .5s11.5 5.394 11.5 12c0 6.607-5.128 12-11.5 12s-11.5-5.393-11.5-12zm11 18.5v-3h1v3h-1z" fill="#8E6954"/><path fill-rule="evenodd" clip-rule="evenodd" d="M10.5 31a.5.5 0 01.5-.5h10a.5.5 0 010 1H11a.5.5 0 01-.5-.5z" fill="#8E6954"/></svg>