<svg width="18" height="18" fill="none" xmlns="http://www.w3.org/2000/svg"><path d="M6.568.328c2.02-.552 4.247-.415 6.148.473 2.014.914 3.671 2.584 4.535 4.603a8.967 8.967 0 01-1.849 9.902C13.89 16.84 11.8 17.83 9.627 17.945a3.396 3.396 0 01-1.218 0c-.75-.037-1.499-.161-2.204-.42.041-.297.091-.593.16-.886.541-2.063 1.635-4.004 3.24-5.442.791-.69 1.679-1.308 2.678-1.658.396.442.99.674 1.581.676.586-.053 1.172-.32 1.517-.802.415-.547.483-1.301.263-1.938-.207-.59-.74-1.019-1.33-1.203-.489-.081-1.023-.084-1.464.169-.66.335-1.064 1.051-1.076 1.777-3.8 1.108-7.14 3.86-8.752 7.46a6.714 6.714 0 01-1.364-1.493c-.06-.888.124-1.78.344-2.639.618-2.21 1.98-4.23 3.87-5.567.148-.093.265.093.379.158.7.592 1.832.559 2.52-.041.493-.437.796-1.121.694-1.78-.097-.77-.687-1.469-1.45-1.67-.79-.258-1.688.106-2.162.758-.295.38-.387.87-.378 1.34C3.176 5.557 1.15 7.19.008 9.337c-.084-1.93.465-3.895 1.595-5.475C2.77 2.155 4.565.888 6.568.328z" fill="#fff"/></svg>