<svg width="22" height="27" fill="none" xmlns="http://www.w3.org/2000/svg"><path d="M12.414 18.644a14.115 14.115 0 01-6.633-8.38m6.632 8.25c.715-.064 2.07-1.408 2.785-1.473.702-.063 1.4.147 1.955.59l1.884 1.503 1.142.912c.81.647.947 1.844.302 2.662l-2.184 2.955a.77.77 0 01-.686.314C8.136 25.088.591 16.966.591 7.107c0-1.776.242-3.495.693-5.124a.471.471 0 01.35-.333l4.147-.61c1.009-.213 1.995.453 2.192 1.483l.278 1.451.46 2.391a2.866 2.866 0 01-.373 2.042c-.382.62-2.173 1.238-2.555 1.857" stroke="#9B989B" stroke-linecap="round" stroke-linejoin="round"/></svg>