<svg width="33" height="31" fill="none" xmlns="http://www.w3.org/2000/svg"><path d="M32.847 28.96L25.91 17.685a1.028 1.028 0 00-.88-.493c-.362 0-.692.184-.881.492l-.9 1.464a.484.484 0 00.824.508l.9-1.464a.063.063 0 01.057-.031c.037 0 .051.023.056.03l6.936 11.274a.06.06 0 01.002.067.06.06 0 01-.058.034h-3.841L17.38 12.105a1.031 1.031 0 00-.384-.366V8.454c.403.109.796.156 1.18.156 1.104 0 2.138-.384 3.15-.76 1.401-.52 2.725-1.011 4.157-.437a.598.598 0 00.822-.556v-5.47a.599.599 0 00-.364-.551c-1.818-.776-3.412-.184-4.953.388-1.443.536-2.807 1.042-4.291.378a.484.484 0 00-.682.442v.018a.497.497 0 00-.013.112v9.566a1.033 1.033 0 00-.384.365l-5.1 8.29-1.668-2.71a1.027 1.027 0 00-.88-.492c-.362 0-.692.184-.881.493L.153 28.959a1.035 1.035 0 00.881 1.576h30.932a1.035 1.035 0 00.88-1.576zM16.984 2.731c1.567.43 2.975-.093 4.342-.6 1.353-.503 2.634-.978 4.012-.493v4.704c-1.572-.43-2.982.092-4.349.6-1.35.5-2.63.976-4.005.492V2.732zM6.012 29.567l1.661-2.7a.484.484 0 00-.824-.507l-1.974 3.207H1.034c-.01 0-.039 0-.057-.034a.06.06 0 01.001-.067l6.936-11.273a.062.062 0 01.056-.031c.037 0 .052.023.056.031l1.924 3.126-1.92 3.122a.484.484 0 00.824.507l7.59-12.335c.005-.008.02-.032.056-.032.037 0 .051.024.056.032l10.432 16.954H6.012z" fill="#8E6954"/></svg>