<svg width="36" height="36" fill="none" xmlns="http://www.w3.org/2000/svg"><path d="M8.835 10.821C3.963 10.821 0 14.781 0 19.648c0 3.022 1.439 6.27 4.276 9.657.422.503.842.969 1.245 1.394-1.832.5-2.932 1.398-2.932 2.445C2.59 35 5.807 36 8.834 36c3.028 0 6.246-1 6.246-2.856 0-1.047-1.1-1.944-2.93-2.444a28.763 28.763 0 002.264-2.692.528.528 0 10-.85-.626 28.353 28.353 0 01-2.73 3.15.528.528 0 00-.23.229 29.955 29.955 0 01-1.769 1.608c-.36-.3-.993-.849-1.746-1.588a.529.529 0 00-.264-.263c-2.394-2.405-5.768-6.56-5.768-10.87 0-4.285 3.489-7.77 7.778-7.77 4.288 0 7.778 3.485 7.778 7.77 0 1.871-.638 3.892-1.897 6.006a.528.528 0 10.908.54c1.357-2.28 2.045-4.482 2.045-6.546 0-4.867-3.963-8.827-8.834-8.827zM8.51 33.467a.528.528 0 00.647 0c.065-.05.948-.738 2.125-1.888 1.782.363 2.74 1.062 2.74 1.566 0 .375-.515.819-1.345 1.156-1.018.415-2.383.643-3.843.643-3.168 0-5.19-1.066-5.19-1.8 0-.503.96-1.202 2.743-1.565a26.855 26.855 0 002.123 1.888z" fill="#8E6954"/><path d="M8.835 15.81c-.836 0-1.63.264-2.299.762a.528.528 0 10.633.846 2.786 2.786 0 014.45 2.23 2.786 2.786 0 01-2.784 2.782 2.786 2.786 0 01-2.677-3.551.528.528 0 10-1.016-.292 3.84 3.84 0 003.693 4.899 3.844 3.844 0 003.841-3.838 3.844 3.844 0 00-3.841-3.838zm23.026-.473c.27-.289.546-.6.824-.93C34.885 11.78 36 9.257 36 6.905 36 3.098 32.9 0 29.088 0a6.903 6.903 0 00-6.37 4.218.528.528 0 10.974.411 5.848 5.848 0 015.396-3.573 5.86 5.86 0 015.855 5.85c0 4.362-4.584 8.542-5.855 9.617-.28-.236-.722-.624-1.24-1.13a.527.527 0 00-.234-.234c-1.825-1.835-4.382-4.99-4.382-8.253a.528.528 0 00-1.057 0c0 2.352 1.116 4.875 3.316 7.5.277.332.554.642.823.93-1.362.41-2.149 1.105-2.149 1.943 0 .707.574 1.33 1.616 1.754.892.363 2.066.563 3.307.563 1.24 0 2.414-.2 3.306-.563 1.042-.424 1.616-1.047 1.616-1.754 0-.836-.787-1.533-2.149-1.942zm-2.774 3.203c-2.5 0-3.865-.833-3.865-1.261 0-.279.62-.79 1.946-1.07a20.619 20.619 0 001.596 1.414.528.528 0 00.647 0c.043-.033.705-.548 1.596-1.415.59.126 1.102.31 1.46.528.305.185.486.388.486.543 0 .428-1.364 1.261-3.866 1.261z" fill="#8E6954"/><path d="M29.088 3.834a3.077 3.077 0 00-3.075 3.072 3.077 3.077 0 003.075 3.072 3.077 3.077 0 003.074-3.072 3.077 3.077 0 00-3.074-3.072zm0 5.088a2.02 2.02 0 01-2.018-2.016 2.02 2.02 0 012.018-2.016 2.02 2.02 0 012.018 2.016 2.02 2.02 0 01-2.018 2.016zm-6.854 7.829h-.242a3.99 3.99 0 00-.524.035.528.528 0 10.139 1.047 2.91 2.91 0 01.386-.026h.24a.528.528 0 100-1.056zM20.487 32.59h-.003l-.698.003a.528.528 0 00.003 1.055h.002l.698-.003a.528.528 0 00-.002-1.056zm2.373-9.001h-.697a.528.528 0 100 1.056h.697a.528.528 0 100-1.056zm-2.8-5.762a.529.529 0 00-.746-.03 3.964 3.964 0 00-.532.601.528.528 0 10.858.616 2.92 2.92 0 01.39-.441.528.528 0 00.03-.746zm3.218 14.75h-.002l-.698.003a.528.528 0 00.003 1.056h.002l.698-.003a.528.528 0 00-.003-1.056zm-5.583.025h-.002l-.698.003a.528.528 0 00.002 1.056H17l.698-.003a.528.528 0 00-.003-1.056zm2.756-9.457a2.92 2.92 0 01-.464-.363.529.529 0 00-.732.76c.193.187.406.353.632.496a.526.526 0 00.73-.165.527.527 0 00-.166-.728zm-1.299-1.89a2.913 2.913 0 01-.053-.557v-.03a.528.528 0 00-.522-.533h-.007a.528.528 0 00-.528.522v.041c0 .255.025.51.073.759a.528.528 0 001.037-.202zm6.5 2.334h-.698a.528.528 0 100 1.056h.698a.528.528 0 100-1.056zm8.484 1.075a5.032 5.032 0 00-.647-.433.529.529 0 00-.519.92c.178.1.35.215.51.342a.526.526 0 00.743-.088.528.528 0 00-.087-.741zm-1.962 8.291a.528.528 0 00-.596-.45 4.01 4.01 0 01-.527.036l-.098.001a.528.528 0 00.002 1.056h.101c.223-.002.448-.017.667-.048a.528.528 0 00.451-.595zm2.332-1.485a.529.529 0 00-.747-.018 4.001 4.001 0 01-.477.389.528.528 0 10.602.867c.213-.147.416-.313.604-.491a.528.528 0 00.018-.747zm1.028-2.563a.528.528 0 00-.617.42 3.99 3.99 0 01-.16.593.528.528 0 10.995.355c.087-.244.156-.497.204-.752a.528.528 0 00-.422-.616zm.315-1.697a4.988 4.988 0 00-.274-.73.529.529 0 00-.958.446c.087.185.16.379.216.575a.529.529 0 001.016-.291zm-7.405-3.621h-.698a.528.528 0 100 1.056h.698a.528.528 0 100-1.056zm-2.374 8.975h-.003l-.697.003a.528.528 0 00.002 1.056h.002l.698-.003a.528.528 0 00-.002-1.056zm5.189-8.97a4.977 4.977 0 00-.226-.005h-.496a.528.528 0 100 1.056h.497a4.047 4.047 0 01.201.004.528.528 0 00.024-1.055zm-2.398 8.957h-.002l-.698.004a.528.528 0 00.002 1.055h.003l.698-.003a.528.528 0 00-.003-1.056z" fill="#8E6954"/></svg>