<svg width="52" height="56" fill="none" xmlns="http://www.w3.org/2000/svg"><path d="M20.332 37.311c2.673-.555 4.234-3.122 4.234-3.122l.41 15.69s-1.519-.136-2.739-.82c-.868-.488-1.754-1.508-2.513-2.09-1.826-1.403-4.683-2.276-5.583-2.647-.9-.37-3.043-2.222-3.043-2.222s-2.83-2.54-3.439-5.344c-.608-2.805-.582-4.869-.37-5.636.211-.767 1.587-5 2.804-8.784 1.217-3.783.556-4.656.556-4.656s-.609-3.149-3.678-4.948c-3.069-1.8-6.43-2.62-6.43-2.62S-.171 8.843.04 7.6c.212-1.243 1.19-1.587 1.19-1.587s6.271.793 10.002 4.1c3.73 3.308 3.704 8.017 3.73 8.308.027.291.369.926 2.567 1.006 2.198.08 2.698-1.006 2.698-1.006l-2.54 5.504s-.476-.503-1.11-.635c-.636-.133-1.562.052-1.562.052s-2.17.583-2.249 6.033c-.079 5.45 2.276 6.35 2.276 6.35s2.62 2.143 5.291 1.587z" fill="#CF9D80"/><path d="M49.053 40.142c.291 1.323.37 2.408.212 3.678-.159 1.27-.926 2.884-1.8 4.154-.873 1.27-2.99 1.905-2.99 1.905H34.264V1.09h6.985s.501.109.82.74c.232.46.318.847.318 1.72s-1.482 2.223-1.482 2.223-1.085 1.058-1.455 1.799c-.37.74.185 1.376.185 1.376s.563.481 1.72 1.349c1.148.86 2.675 1.84 3.36 2.434 1.376 1.19 3.651 3.545 4.26 4.63.608 1.085 2.043 3.522 2.619 5.292.38 1.17.45 2.34.344 2.645-.265.768-.82 1.35-1.111 1.535-.291.185-2.064.979-3.36 1.799-1.297.82-2.25 2.646-2.25 2.646s-.74 1.931 0 3.307c.742 1.376 1.906 2.09 2.408 2.62.503.528 1.138 1.613 1.429 2.936z" fill="#A97456"/><path d="M20.392 40.142c-.291 1.323-.37 2.408-.212 3.678.159 1.27.926 2.884 1.8 4.154.872 1.27 2.989 1.905 2.989 1.905h10.213V1.09h-6.985s-.502.109-.82.74c-.232.46-.318.847-.318 1.72s1.482 2.223 1.482 2.223 1.084 1.058 1.455 1.799c.37.74-.185 1.376-.185 1.376s-.563.481-1.72 1.349c-1.148.86-2.675 1.84-3.36 2.434-1.376 1.19-3.651 3.545-4.26 4.63-.608 1.085-2.043 3.522-2.62 5.292-.38 1.17-.448 2.34-.343 2.645.265.768.82 1.35 1.111 1.535.291.185 2.064.979 3.36 1.799 1.297.82 2.25 2.646 2.25 2.646s.74 1.931 0 3.307c-.742 1.376-1.906 2.09-2.409 2.62-.502.528-1.137 1.613-1.428 2.936z" fill="#A97456"/><rect x="26.475" y=".8" width="16.352" height="4.672" rx="2.336" fill="#CF9D80"/><rect x="20.848" y="48.053" width="28.68" height="3.439" rx="1.72" fill="url(#paint0_linear)"/><path fill="#C4C4C4" d="M30.797 55.302h.052v.052h-.052z"/><path d="M34.775 21.491l-4.8 8.184a5.712 5.712 0 000 5.782c1.634 2.785 5.267 3.748 8.116 2.151 2.848-1.596 3.833-5.148 2.2-7.933l-4.8-8.184a.417.417 0 00-.716 0z" fill="#CF9D80"/><defs><linearGradient id="paint0_linear" x1="21.11" y1="48.218" x2="21.497" y2="53.784" gradientUnits="userSpaceOnUse"><stop stop-color="#CF9D80"/><stop offset="1" stop-color="#CF9D80"/></linearGradient></defs></svg>