<svg width="18" height="18" fill="none" xmlns="http://www.w3.org/2000/svg"><path d="M0 9a9 9 0 1018 0A9 9 0 000 9z" fill="#7D3DAF"/><path d="M14.693 5.802l-.004-.014c-.288-1.163-1.584-2.41-2.774-2.67l-.014-.002a15.417 15.417 0 00-5.803 0l-.013.003c-1.19.26-2.487 1.506-2.775 2.669l-.003.014a11.358 11.358 0 000 4.893l.003.014c.276 1.113 1.476 2.303 2.622 2.63v1.298c0 .47.572.7.897.361l1.315-1.366a15.369 15.369 0 003.757-.25l.014-.004c1.19-.26 2.486-1.506 2.774-2.669l.004-.014c.355-1.623.355-3.27 0-4.893zm-1.04 4.658c-.193.758-1.177 1.7-1.96 1.875a14.372 14.372 0 01-3.086.25.069.069 0 00-.054.021l-.96.986-1.021 1.047a.12.12 0 01-.206-.082v-2.15a.074.074 0 00-.06-.072c-.783-.174-1.767-1.117-1.959-1.876a10.307 10.307 0 010-4.422c.192-.758 1.176-1.7 1.958-1.875 1.788-.34 3.601-.34 5.389 0 .782.174 1.766 1.117 1.958 1.875.32 1.468.32 2.955 0 4.423z" fill="#fff"/><path d="M10.7 11.452c-.12-.037-.234-.061-.34-.105-1.103-.458-2.118-1.048-2.922-1.953-.457-.514-.814-1.095-1.117-1.71-.143-.291-.264-.594-.387-.895-.113-.274.053-.558.227-.765.163-.194.374-.342.602-.452.177-.085.353-.036.483.115.28.326.538.668.747 1.046.129.232.093.516-.14.674-.056.039-.107.084-.16.127a.527.527 0 00-.121.128.35.35 0 00-.024.308c.287.789.77 1.402 1.565 1.732.127.053.254.115.4.098.246-.029.325-.298.497-.438a.468.468 0 01.563-.025c.18.115.356.237.53.362.171.121.342.24.5.38.151.133.204.309.118.49-.156.332-.384.608-.712.785-.093.05-.204.066-.308.098-.12-.037.104-.033 0 0zm-1.697-6.26c1.442.04 2.627.998 2.88 2.424.044.243.06.491.079.738.008.104-.051.202-.163.203-.116.002-.168-.095-.175-.199-.015-.205-.025-.411-.054-.615A2.577 2.577 0 009.495 5.59c-.161-.03-.326-.037-.489-.054-.103-.01-.238-.017-.26-.145-.02-.107.071-.193.173-.198.028-.002.056 0 .084 0 1.442.04-.028 0 0 0z" fill="#fff"/><path d="M11.194 8.034c-.002.018-.003.06-.014.1-.038.145-.258.163-.308.017a.436.436 0 01-.017-.14c0-.305-.067-.61-.221-.876a1.631 1.631 0 00-.684-.642 1.967 1.967 0 00-.546-.167c-.082-.013-.165-.022-.247-.033-.1-.014-.154-.078-.15-.177.005-.092.073-.158.174-.153.33.019.65.09.945.246.598.317.94.817 1.04 1.485.004.03.011.06.014.091l.014.249c-.002.018-.005-.099 0 0z" fill="#fff"/><path d="M10.297 7.999c-.12.002-.185-.065-.197-.175-.009-.077-.016-.156-.034-.23a.648.648 0 00-.24-.376.624.624 0 00-.194-.094c-.089-.026-.18-.019-.269-.04-.096-.024-.149-.101-.134-.191a.173.173 0 01.183-.14c.56.04.959.33 1.016.988.004.047.009.096-.002.14a.143.143 0 01-.129.118c-.12.002.055-.004 0 0z" fill="#fff"/></svg>