<svg width="81" height="15" fill="none" xmlns="http://www.w3.org/2000/svg"><path d="M17.967 14.607L20.457.471h3.888l-2.411 14.136h-3.967z" fill="#fff"/><path d="M17.967 14.607L21.157.471h3.188l-2.411 14.136h-3.967zM36.01.628C35.234.314 33.99 0 32.434 0c-3.889 0-6.689 1.963-6.689 4.79 0 2.121 1.945 3.22 3.5 3.927 1.556.707 2.022 1.178 2.022 1.806 0 .943-1.244 1.414-2.333 1.414-1.555 0-2.411-.236-3.733-.785l-.545-.236-.544 3.22c.933.393 2.644.785 4.433.785 4.122 0 6.845-1.963 6.845-4.947 0-1.65-1.012-2.906-3.345-3.927-1.4-.707-2.255-1.1-2.255-1.806 0-.628.7-1.257 2.255-1.257 1.322 0 2.256.236 2.956.55l.389.157.622-3.063z" fill="#fff"/><path d="M36.01.628C35.234.314 33.99 0 32.434 0c-3.889 0-5.989 1.963-5.989 4.79 0 2.121 1.245 3.22 2.8 3.927 1.556.707 2.022 1.178 2.022 1.806 0 .943-1.244 1.414-2.333 1.414-1.555 0-2.411-.236-3.733-.785l-.545-.236-.544 3.22c.933.393 2.644.785 4.433.785 4.122 0 6.845-1.963 6.845-4.947 0-1.65-1.012-2.906-3.345-3.927-1.4-.707-2.255-1.1-2.255-1.806 0-.628.7-1.257 2.255-1.257 1.322 0 2.256.236 2.956.55l.389.157.622-3.063zM42.7.471c-.934 0-1.634.079-2.022 1.021l-5.834 13.115h4.2l.778-2.356H44.8l.466 2.356H49L45.733.471H42.7zm-1.79 9.424c.234-.707 1.557-4.162 1.557-4.162s.31-.864.544-1.414l.233 1.335s.778 3.534.934 4.32H40.91v-.079z" fill="#fff"/><path d="M43.633.471C42.7.471 42 .55 41.611 1.492l-6.767 13.115h4.2l.778-2.356H44.8l.466 2.356H49L45.733.471h-2.1zm-2.722 9.424c.311-.785 1.556-4.162 1.556-4.162s.31-.864.544-1.414l.233 1.335s.778 3.534.934 4.32H40.91v-.079z" fill="#fff"/><circle cx="63.5" cy="7.5" r="7.5" fill="#fff"/><circle cx="73.5" cy="7.5" r="7.5" fill="#DABC91"/><path fill-rule="evenodd" clip-rule="evenodd" d="M68.5 13.09A7.481 7.481 0 0071 7.5a7.481 7.481 0 00-2.5-5.59A7.481 7.481 0 0066 7.5c0 2.221.966 4.217 2.5 5.59z" fill="#C9AE86"/><path d="M10.81 10.367l-.388-2.042c-.7-2.356-2.956-4.948-5.444-6.205l3.5 12.566h4.2L18.977.55h-4.2l-3.967 9.816z" fill="#fff"/><path d="M10.81 10.367l-.388-2.042c-.7-2.356-2.956-4.948-5.444-6.205l3.5 12.566h4.2L18.977.55h-3.423l-4.744 9.816z" fill="#fff"/><path d="M0 .471l.7.157c4.978 1.178 8.4 4.163 9.722 7.697l-1.4-6.676C8.79.707 8.09.471 7.233.471H0z" fill="#FFBC00"/><path d="M0 .471C4.978 1.65 9.1 4.712 10.422 8.246L9.1 2.67c-.233-.942-1.011-1.492-1.867-1.492L0 .471z" fill="#B78131"/><path d="M0 .471C4.978 1.65 9.1 4.712 10.422 8.246L9.49 5.183c-.234-.942-.545-1.885-1.634-2.277L0 .47z" fill="#fff"/><path d="M14.7 9.895l-2.644-2.67-1.244 2.985-.312-1.964C9.8 5.89 7.545 3.3 5.056 2.042l3.5 12.565h4.2L14.7 9.895zm7.234 4.713l-3.344-3.456-.622 3.456h3.966zm8.944-4.87c.311.314.467.55.389.864 0 .943-1.245 1.414-2.334 1.414-1.555 0-2.41-.236-3.733-.786l-.544-.235-.545 3.22c.934.392 2.645.785 4.434.785 2.488 0 4.51-.707 5.677-1.963l-3.344-3.299zm4.512 4.869h3.655l.778-2.355H44.8l.467 2.355H49l-1.322-5.732-4.666-4.555.233 1.256s.778 3.534.933 4.32h-3.266c.31-.786 1.555-4.163 1.555-4.163s.311-.864.545-1.413" fill="#fff"/></svg>