<svg width="108" height="108" fill="none" xmlns="http://www.w3.org/2000/svg"><path d="M8.135 47.782c-.374 1.297-.682 3.38.29 5.37.927 1.898 2.744 3.222 5.402 3.946 2.828 9.655 6.927 17.525 12.192 23.405 6.961 7.777 15.831 11.9 26.378 12.278l2.7 7.203-6.49 1.299a1.684 1.684 0 00-1.324 1.985 1.692 1.692 0 00.718 1.074 1.686 1.686 0 001.267.25l15.611-3.122 1.112 2.223a1.687 1.687 0 103.018-1.51l-1.687-3.375a1.688 1.688 0 00-1.84-.9l-7.031 1.406-2.482-6.617a42.842 42.842 0 0018.62-6.528c6.01-3.858 10.859-9.162 14.412-15.763 4.213-7.826 6.593-17.494 7.086-28.757a6.48 6.48 0 00.584-.164 4.708 4.708 0 003.08-3.122c.492-1.58.213-3.514-.678-4.702l-1.198-1.599h5.062a1.685 1.685 0 001.638-1.278c.06-.242.066-.495.017-.74-1.04-5.204-4.33-7.134-6.906-7.836a11.357 11.357 0 00-1.598-.311 11.37 11.37 0 00-.23-1.034 7.077 7.077 0 003.35-4.113 4.977 4.977 0 00-.705-4.522 5.09 5.09 0 00-4.113-2.103h-.18a5.071 5.071 0 00-4.772-3.375h-.29a5.071 5.071 0 00-4.773-3.375H81a1.688 1.688 0 00-1.688 1.688v9.594c-5.301 2.69-7.435 9.517-8.957 14.386-.53 1.694-1.234 3.95-1.777 4.707h-49.71L5.655 28.795a1.688 1.688 0 00-2.263 1.341c-.071.499-1.593 11.75 4.743 17.646zM96.529 37.36a1.345 1.345 0 01-.935.926 3.028 3.028 0 01-2.205-.128 1.661 1.661 0 01-.97-1.104 1.685 1.685 0 01.278-1.464l1.803-2.403 1.873 2.498c.167.222.368.994.156 1.675zm.367-11.869a5.645 5.645 0 013.749 3.197H94.5v-3.512c.81-.006 1.615.1 2.396.315zM82.687 6.75h1.688a1.69 1.69 0 011.688 1.688 1.688 1.688 0 001.687 1.687h1.688a1.69 1.69 0 011.687 1.688 1.687 1.687 0 001.688 1.687h1.577a1.683 1.683 0 011.378.706 1.637 1.637 0 01.235 1.485 3.767 3.767 0 01-1.582 2.093 9.16 9.16 0 00-.485-.631c-2.06-2.424-5.277-3.653-9.561-3.653-.564 0-1.128.037-1.688.113V6.75zm-9.11 23.3c2.252-7.209 4.619-13.175 10.798-13.175 3.33 0 7.274.928 8.28 5.065-.099.016-.16.027-.174.03a1.688 1.688 0 00-1.356 1.655v6.75c0 .412.152.81.427 1.118l-1.554 2.072a5.062 5.062 0 002.096 7.71c.207.084.412.16.618.224-.468 10.702-2.693 19.852-6.628 27.208-3.257 6.086-7.692 10.976-13.181 14.533C63.496 89.337 54.09 89.438 54 89.438c-21.564 0-31.688-16.637-36.432-31.643l6.98 1.163c2.246 1.987 13.563 11.355 27.25 11.355.506 0 1.017-.013 1.531-.04 8.32-.43 15.788-4.398 22.196-11.793 5.939-6.852 7.917-12.588 5.88-17.05-1.258-2.755-3.954-4.821-8.012-6.14a25.58 25.58 0 00-1.563-.453c.632-1.224 1.143-2.857 1.747-4.788zm-11.14 7.075c9.8 0 14.638 2.948 15.898 5.707 1.42 3.108-.434 7.755-5.36 13.438-5.78 6.667-12.44 10.245-19.8 10.631-11.495.607-21.78-6.724-25.362-9.615C31.88 53.34 44.537 41.373 52.72 37.124l9.718.001zm-42.356 0H46.28c-7.995 5.503-17.27 14.286-20.759 17.68-1.997-2.941-5.985-9.878-5.44-17.68zM6.58 32.746l10.16 3.81c-.66 7.762 2.542 14.604 4.913 18.499l-6.161-1.027c-2.113-.429-3.468-1.216-4.027-2.343-.807-1.626.165-3.669.17-3.68a1.687 1.687 0 00-.497-2.105C6.88 42.707 6.476 36.14 6.58 32.746z" fill="#333"/><path d="M86.063 25.313a1.687 1.687 0 100-3.375 1.687 1.687 0 000 3.375z" fill="#333"/></svg>