<svg width="173" height="304" fill="none" xmlns="http://www.w3.org/2000/svg"><path opacity=".2" d="M29.021 114.408c-9.614 1.291-19.288 2.317-29.021 2.988v83.882c9.614-.753 19.272-1.874 29.021-3.305v-83.565zm0 131.398C19.404 247.09 9.73 248.112 0 248.783v40.566h29.021v-43.543zm0-243.018H0v67.054c9.61-.76 19.269-1.884 29.021-3.318V2.788zm71.958 171.363l-.268.031-28.686 4.102v111.014h28.954V174.151zm0-171.363H72.025V118.4l28.686-3.932.268-.034V2.788zm72.018 87.935c-9.584.804-19.242 2.007-28.991 3.472v46.732l.037 9.638.017 4.641.02 4.647.065 17.814c9.566-1.315 19.184-2.364 28.855-3.079V90.723h-.003zM143.709 0v46.699c9.703-1.382 19.468-2.482 29.291-3.236V22.158L143.709 0zm29.288 222.107c-9.445.794-18.943 1.969-28.527 3.403v38.607l.092 25.181h28.435v-67.191z" fill="#333E48"/></svg>