<svg width="16" height="16" fill="none" xmlns="http://www.w3.org/2000/svg"><path d="M14.995 11.774c0 .177-.066.356-.104.543l-4.36-4.34 4.346-4.253c.088.138.12.33.12.525.003 2.508.005 5.017-.002 7.525zM8.777 8.771c-.48.479-1.047.479-1.53 0a10139.25 10139.25 0 00-5.48-5.45c-.048-.046-.113-.076-.168-.114l.027-.082c.198-.041.397-.118.596-.118 3.101-.008 6.203-.006 9.305-.006.748 0 1.495-.008 2.243.006.2.004.398.075.598.116v.053c-.037.039-.074.08-.114.12L8.777 8.771zM1.1 12.276c-.027-.13-.094-.297-.095-.465C1 9.267 1 6.723 1.005 4.18c0-.165.068-.329.106-.509L5.47 8l-4.371 4.276zm5.647-3.029c.77.764 1.765.763 2.533 0 .244-.244.492-.486.727-.718l4.367 4.348c-.205.04-.41.116-.614.116-2.299.009-4.597.005-6.896.005-1.53 0-3.06 0-4.592.002a1.23 1.23 0 01-.65-.17l4.405-4.31c.212.215.465.472.72.727z" fill="#00AF41"/></svg>