<svg width="24" height="24" fill="none" xmlns="http://www.w3.org/2000/svg"><path clip-rule="evenodd" d="M2.99 4.874c.316-.525 2.06-2.43 3.303-2.373.372.032.7.256.967.517h.001c.613.6 2.369 2.863 2.467 3.34.244 1.168-1.15 1.842-.724 3.02 1.087 2.658 2.96 4.53 5.62 5.616 1.176.427 1.85-.965 3.019-.723.476.1 2.74 1.855 3.34 2.468v0c.26.266.485.595.516.967.046 1.31-1.977 3.077-2.371 3.303-.93.666-2.145.654-3.625-.034-4.13-1.718-10.73-8.193-12.48-12.478-.669-1.472-.714-2.694-.033-3.623z" stroke="#200E32" stroke-width="1.5" stroke-linecap="round" stroke-linejoin="round"/><path d="M14.565 2.75a7.97 7.97 0 017.041 7.032m-7.041-3.489a4.426 4.426 0 013.498 3.498" stroke="#200E32" stroke-width="1.5" stroke-linecap="round" stroke-linejoin="round"/></svg>