<svg width="32" height="32" fill="none" xmlns="http://www.w3.org/2000/svg"><g clip-path="url(#clip0)" fill="#8E24AA"><path d="M30.873 18.524c.955-8.036-.459-13.11-3.008-15.404l.001-.001C23.752-.8 9.856-1.38 4.933 3.295c-2.21 2.286-2.99 5.642-3.075 9.797-.085 4.156-.186 11.941 7.068 14.053h.007l-.007 3.226s-.049 1.306.786 1.569c.954.31 1.386-.297 4.356-3.844 4.965.43 8.778-.556 9.212-.7 1.002-.336 6.676-1.087 7.593-8.872zm-16.316 7.303s-3.143 3.918-4.12 4.936c-.32.33-.67.3-.665-.356 0-.431.024-5.355.024-5.355-6.151-1.763-5.788-8.392-5.722-11.86.067-3.47.702-6.31 2.574-8.224 4.318-4.05 16.501-3.144 19.605-.227 3.795 3.364 2.444 12.868 2.452 13.192-.78 6.499-5.377 6.911-6.223 7.192-.361.12-3.714.983-7.925.702z"/><path d="M16.296 5.73c-.514 0-.514.8 0 .806 3.982.03 7.262 2.807 7.298 7.899 0 .537.787.53.78-.007h-.001c-.043-5.487-3.624-8.668-8.077-8.699z"/><path d="M21.534 13.59c-.012.531.774.557.78.02.066-3.026-1.8-5.518-5.305-5.78-.513-.038-.567.769-.055.806 3.04.23 4.642 2.305 4.58 4.955zm-.84 3.442c-.659-.381-1.33-.144-1.607.231l-.58.75c-.294.382-.845.331-.845.331-4.018-1.062-5.093-5.268-5.093-5.268s-.05-.569.318-.874l.726-.6c.363-.288.592-.982.223-1.663-.987-1.783-1.65-2.397-1.987-2.87-.355-.443-.888-.543-1.443-.243h-.012c-1.153.674-2.416 1.937-2.012 3.237.69 1.37 1.956 5.74 5.994 9.041 1.897 1.562 4.9 3.162 6.174 3.531l.012.019c1.256.418 2.477-.894 3.13-2.082v-.009c.289-.575.193-1.119-.23-1.475-.75-.73-1.88-1.537-2.768-2.056z"/><path d="M17.558 10.806c1.282.074 1.903.744 1.97 2.118.024.538.804.5.78-.037-.086-1.795-1.022-2.795-2.707-2.888-.513-.03-.561.776-.043.807z"/></g><defs><clipPath id="clip0"><path fill="#fff" d="M0 0h32v32H0z"/></clipPath></defs></svg>