<svg width="18" height="18" fill="none" xmlns="http://www.w3.org/2000/svg"><path d="M2.43.15C1.77.15 1.17.39.72.84.24 1.32 0 1.92 0 2.55c0 .66.27 1.26.72 1.71.45.45 1.08.72 1.68.69h.06c.6 0 1.17-.24 1.62-.69.45-.45.72-1.05.72-1.71.03-.63-.24-1.23-.69-1.68A2.27 2.27 0 002.43.15zm1.23 3.69c-.33.33-.78.54-1.26.51-.45 0-.93-.18-1.26-.51C.78 3.51.6 3.03.6 2.55s.18-.93.54-1.29c.33-.33.78-.51 1.29-.51.45 0 .9.18 1.23.51.36.36.54.81.54 1.29s-.18.96-.54 1.29zM3.6 5.55H1.17c-.48 0-.87.39-.87.9v10.5c0 .48.42.9.9.9h2.4c.48 0 .9-.42.9-.87V6.45c0-.48-.42-.9-.9-.9zm.3 11.43c0 .15-.15.27-.3.27H1.2c-.15 0-.3-.15-.3-.3V6.45c0-.15.12-.3.27-.3H3.6c.15 0 .3.15.3.3v10.53zm9.9-11.73h-.63c-1.17 0-2.28.51-3 1.32v-.42c0-.3-.3-.6-.6-.6h-3c-.27 0-.6.24-.6.57v11.19c0 .33.33.54.6.54h3.3c.27 0 .6-.21.6-.54v-6.48c0-.99.72-1.77 1.65-1.77.48 0 .93.18 1.26.51.3.27.42.69.42 1.23v6.45c0 .3.3.6.6.6h3c.3 0 .6-.3.6-.6V9.51c0-2.4-1.83-4.26-4.2-4.26zm3.6 11.97l-.03.03h-2.94l-.03-6.45c0-.72-.18-1.26-.57-1.65a2.36 2.36 0 00-1.68-.69c-1.26.03-2.25 1.05-2.25 2.37v6.42H6.6V6.15h2.97l.03.03v1.89l.81-.81.03-.03c.6-.84 1.65-1.38 2.76-1.38h.63c2.01 0 3.57 1.62 3.57 3.66v7.71z" fill="#fff"/></svg>