<svg width="53" height="53" fill="none" xmlns="http://www.w3.org/2000/svg"><path d="M24.348 7.63v1.153c1.6-.108 2.458.022 2.547.036a1.58 1.58 0 011.176.89l2.25 4.793c.271.063.53.198.745.407.271.264.596.471.964.56a2.091 2.091 0 001.979-.525c.532-.517 1.343-.648 1.97-.252.896.566.992 1.765.29 2.468a5.215 5.215 0 01-3.983 1.531l3.023 6.445c.128.271.249.545.363.82 3.405-1.073 7.277-.276 9.982 2.399.605.597.672 1.574.107 2.21a1.579 1.579 0 01-2.303.068 6.773 6.773 0 00-6.787-1.675c.88 3.51.822 7.132-.087 10.528.428.142.863.268 1.305.378.514.127 1.05.129 1.565.002A17.839 17.839 0 0053 22.549V7.63c0-.739-.456-1.4-1.148-1.66-2.179-.82-6.39-1.933-13.177-1.933-6.788 0-11 1.114-13.179 1.933a1.772 1.772 0 00-1.148 1.66zm17.492 7.293a1.583 1.583 0 012.237 0c.394.394.918.61 1.475.61s1.081-.216 1.475-.61a1.582 1.582 0 112.238 2.237 5.216 5.216 0 01-3.713 1.538 5.217 5.217 0 01-3.713-1.538 1.582 1.582 0 010-2.237z" fill="#6FB8D9"/><path d="M32.444 26.48l-6.37-13.58a1.661 1.661 0 00-1.631-.95c-2.3.175-6.616.938-12.83 3.854-6.146 2.883-9.486 5.68-11.11 7.346a1.773 1.773 0 00-.334 1.991L6.505 38.65a17.84 17.84 0 0019.62 9.923c.517-.103 1-.33 1.41-.662a17.839 17.839 0 004.91-21.43zm-12.802-1.012a5.256 5.256 0 016.722-3.154 1.582 1.582 0 01-1.076 2.976 2.089 2.089 0 00-2.67 1.253 1.583 1.583 0 11-2.976-1.075zm-6.12 5.342a2.072 2.072 0 00-1.595.074 2.071 2.071 0 00-1.075 1.18 1.583 1.583 0 01-2.977-1.076 5.216 5.216 0 012.708-2.97 5.216 5.216 0 014.015-.184 1.582 1.582 0 11-1.075 2.976zm5.313 10.343a9.88 9.88 0 01-3.364-.592 1.582 1.582 0 111.075-2.976 6.774 6.774 0 008.662-4.064 1.582 1.582 0 112.976 1.076c-1.46 4.038-5.283 6.556-9.349 6.556z" fill="#6FB8D9"/></svg>