<svg width="43" height="43" fill="none" xmlns="http://www.w3.org/2000/svg"><g clip-path="url(#clip0)" fill="#6FB8D9"><path d="M28.379 30.135l1.966-3.19 3.548-1.21.394-3.727 2.67-2.629-1.27-3.528 1.27-3.528-2.67-2.628-.393-3.727-3.549-1.21-1.966-3.19-3.72.448L21.5 0l-3.16 2.016-3.719-.449-1.966 3.191-3.548 1.21-.394 3.727-2.67 2.628 1.27 3.528-1.27 3.528 2.67 2.629.394 3.727 3.548 1.21 1.966 3.19 3.72-.449 3.159 2.017 3.16-2.017 3.719.45zM10.63 15.851c0-5.993 4.876-10.87 10.87-10.87 5.994 0 10.87 4.877 10.87 10.87 0 5.994-4.876 10.87-10.87 10.87-5.994 0-10.87-4.876-10.87-10.87z"/><path d="M21.5 7.503c-4.604 0-8.349 3.745-8.349 8.348 0 4.604 3.745 8.35 8.349 8.35s8.349-3.746 8.349-8.35c0-4.603-3.745-8.348-8.349-8.348zm-3.754 24.795l-4.424.534-2.338-3.794-.795-.27L6.762 39.48l6.17-.34L17.76 43l2.841-8.88-2.855-1.822zm14.27-3.259l-2.338 3.793-4.424-.534L22.4 34.12 25.24 43l4.829-3.858 6.17.34-3.427-10.714-.795.27z"/></g><defs><clipPath id="clip0"><path fill="#fff" d="M0 0h43v43H0z"/></clipPath></defs></svg>