<svg width="84" height="110" fill="none" xmlns="http://www.w3.org/2000/svg"><path d="M20.715 104.105h2.767v.944h-.912v4.088h-.966v-4.088h-.889v-.944zm5.306 0h2.733v.937h-1.787v.91h1.787v.92h-1.787v1.324h1.787v.941H26.02v-5.032zm5.506 0h.953v4.119h1.389v.913h-2.342v-5.032zm4.979 2.743h1.729v.869h-1.729v-.869zm6.306-2.743h.967l1.926 5.032h-.99l-.392-1.037h-2.042l-.408 1.037h-.99l1.93-5.032zm.49 1.334l-.667 1.728h1.33l-.663-1.728zm4.645-1.334h.98l1.26 3.575 1.276-3.575h.98l-1.804 5.032h-.918l-1.773-5.032zm7.076 0h.946v5.032h-.946v-5.032zm3.522 0h.98l1.26 3.575 1.275-3.575h.98l-1.803 5.032h-.919l-1.773-5.032zM81.128 0v3.557h-1.63V1.638H1.64V44.34h4.74v1.638H.01V0h81.118z" fill="#F4D68E"/><path d="M11.097 29.596h1.63v16.382h-1.63V29.596zm8.026.001H17.38l5.689 15.141-.002.004.833 2.208.04.106.04-.106.833-2.208-.002-.004 5.69-15.141h-1.743L23.941 42.42l-4.818-12.823zm16.079-.001h1.63v16.382h-1.63V29.596zm22.882 16.982L44.96 32.995v12.983h-1.63V28.957L56.455 42.54V29.596h1.63v16.982zm21.013-14.243l-1.184 1.205c-.853-.9-1.788-1.58-2.807-2.042-1.012-.47-2-.704-2.962-.704-1.2 0-2.343.317-3.43.95a6.637 6.637 0 00-2.516 2.578 6.983 6.983 0 00-.894 3.426c0 1.235.308 2.411.925 3.527a6.854 6.854 0 002.557 2.623 6.988 6.988 0 003.576.949c1.573 0 2.903-.476 3.991-1.429 1.088-.952 1.733-2.187 1.934-3.705h-4.875v-1.585h6.59c-.014 2.537-.717 4.554-2.11 6.05-1.386 1.488-3.243 2.232-5.572 2.232-2.827 0-5.065-1.035-6.715-3.103-1.268-1.593-1.902-3.434-1.902-5.525 0-1.555.364-3.003 1.092-4.342.727-1.34 1.725-2.385 2.993-3.137 1.268-.759 2.703-1.138 4.304-1.138a8.94 8.94 0 013.658.759c1.144.498 2.26 1.302 3.347 2.41zM10.003 52.122h2.605c1.451 0 2.435.074 2.95.222.777.223 1.408.701 1.894 1.435.486.727.728 1.624.728 2.692 0 .89-.168 1.672-.506 2.346a3.456 3.456 0 01-1.431 1.535c-.622.341-1.481.516-2.578.523l5.238 7.608h-1.617l-5.23-7.608h-.723v7.608h-1.33V52.122zm1.33 1.601v5.584h2.226c.87 0 1.514-.104 1.928-.312a2.16 2.16 0 00.978-.99 3.3 3.3 0 00.356-1.534c0-.55-.119-1.046-.356-1.49-.237-.453-.548-.776-.933-.968-.385-.193-1.025-.29-1.92-.29h-2.279zm20.635-2.017c2.464 0 4.527.827 6.187 2.48 1.66 1.655 2.49 3.69 2.49 6.108 0 2.396-.83 4.428-2.49 6.097-1.653 1.669-3.671 2.503-6.055 2.503-2.413 0-4.45-.83-6.11-2.492-1.66-1.661-2.49-3.671-2.49-6.03 0-1.572.377-3.03 1.13-4.372a8.281 8.281 0 013.098-3.148 8.251 8.251 0 014.24-1.146zm.077 1.602c-1.203 0-2.343.315-3.42.946A6.782 6.782 0 0026.1 56.8c-.605 1.068-.907 2.259-.907 3.571 0 1.944.668 3.586 2.003 4.929 1.343 1.335 2.959 2.002 4.848 2.002a6.892 6.892 0 003.498-.923 6.542 6.542 0 002.512-2.525c.605-1.068.908-2.255.908-3.56 0-1.298-.303-2.47-.908-3.516-.598-1.053-1.442-1.895-2.535-2.526a6.844 6.844 0 00-3.475-.945zm22.025-1.602c2.465 0 4.527.827 6.188 2.48 1.66 1.655 2.49 3.69 2.49 6.108 0 2.396-.83 4.428-2.49 6.097-1.653 1.669-3.671 2.503-6.055 2.503-2.413 0-4.45-.83-6.11-2.492-1.66-1.661-2.49-3.671-2.49-6.03 0-1.572.376-3.03 1.13-4.372a8.28 8.28 0 013.098-3.148 8.252 8.252 0 014.24-1.146zm.078 1.602c-1.203 0-2.343.315-3.42.946a6.782 6.782 0 00-2.524 2.547c-.605 1.068-.907 2.259-.907 3.571 0 1.944.667 3.586 2.003 4.929 1.343 1.335 2.959 2.002 4.848 2.002a6.892 6.892 0 003.497-.923 6.541 6.541 0 002.513-2.525c.605-1.068.908-2.255.908-3.56 0-1.298-.303-2.47-.908-3.516-.598-1.053-1.443-1.895-2.535-2.526a6.844 6.844 0 00-3.475-.945z" fill="#F4D68E"/><path d="M70.437 51.583l-2.466 16.9h1.495l1.506-11.79 5.548 11.79h.39l5.475-11.7-.131 11.7v25.5H3.269v-4.046H1.64v5.684h82.244V49.988L76.72 65.546l-6.283-13.963z" fill="#F4D68E"/></svg>