<svg width="28" height="27" fill="none" xmlns="http://www.w3.org/2000/svg"><path d="M13.634 8.908a4.466 4.466 0 00-4.456 4.456 4.466 4.466 0 004.456 4.457 4.466 4.466 0 004.457-4.457 4.466 4.466 0 00-4.457-4.456zM27 13.364c0-1.845.017-3.674-.086-5.516-.104-2.14-.592-4.039-2.157-5.604C23.19.676 21.294.192 19.154.088 17.308-.016 15.48 0 13.637 0c-1.845 0-3.674-.017-5.516.087-2.14.104-4.039.592-5.603 2.156C.95 3.812.465 5.708.36 7.848.258 9.693.274 11.522.274 13.364s-.016 3.675.087 5.517c.104 2.14.592 4.038 2.157 5.603 1.568 1.568 3.463 2.053 5.603 2.157 1.846.103 3.674.087 5.516.087 1.846 0 3.675.016 5.517-.087 2.14-.104 4.038-.592 5.603-2.157 1.568-1.568 2.053-3.464 2.157-5.603.106-1.842.086-3.671.086-5.517zm-13.366 6.857a6.847 6.847 0 01-6.857-6.857 6.847 6.847 0 016.857-6.857 6.847 6.847 0 016.857 6.857 6.847 6.847 0 01-6.857 6.857zm7.138-12.393a1.6 1.6 0 01-1.601-1.602 1.6 1.6 0 011.601-1.601 1.6 1.6 0 011.48 2.214 1.6 1.6 0 01-1.48.989z" fill="#000"/></svg>