<svg width="27" height="27" fill="none" xmlns="http://www.w3.org/2000/svg"><path d="M5.24 0C2.36 0 .002 2.357.002 5.238v16.254c0 2.88 2.357 5.236 5.238 5.236h16.253c2.88 0 5.238-2.356 5.238-5.236V5.238C26.73 2.358 24.373 0 21.492 0H5.24zm1.317 4.41c1.381 0 2.232.907 2.258 2.1 0 1.165-.877 2.097-2.285 2.097h-.025c-1.355 0-2.231-.932-2.231-2.098 0-1.192.902-2.098 2.283-2.098zM18.46 9.982c2.656 0 4.647 1.736 4.647 5.467v6.964H19.07v-6.497c0-1.633-.584-2.747-2.045-2.747-1.115 0-1.78.75-2.071 1.476-.107.26-.133.622-.133.985v6.783h-4.037s.053-11.006 0-12.146h4.038v1.72c.536-.828 1.496-2.005 3.638-2.005zm-13.947.286H8.55v12.145H4.512V10.267z" fill="#000"/></svg>