<svg width="132" height="16" fill="none" xmlns="http://www.w3.org/2000/svg"><path d="M.748.635h1.445v12.978h5.518V15H.748V.635zm9.433 0h1.436V15H10.18V.635zm4.043 0h1.562l4.756 11.103L25.386.635h1.562L20.698 15h-.312L14.224.635zm15.331 0h1.436V15h-1.436V.635zM34.703 15V.635h.312l9.55 10.996V.635h1.417V15h-.322L36.186 4.14V15h-1.484zM63.754 3.047L62.64 4.102c-.801-.788-1.68-1.384-2.637-1.788-.95-.41-1.878-.615-2.783-.615a6.68 6.68 0 00-3.223.83c-1.016.554-1.803 1.306-2.363 2.256a5.785 5.785 0 00-.84 2.998c0 1.08.29 2.11.87 3.086a6.22 6.22 0 002.401 2.295c1.023.553 2.142.83 3.36.83 1.478 0 2.728-.416 3.75-1.25 1.022-.833 1.627-1.914 1.816-3.242h-4.58V8.115h6.191c-.012 2.22-.673 3.985-1.982 5.293-1.302 1.302-3.047 1.953-5.234 1.953-2.657 0-4.76-.905-6.309-2.715-1.191-1.393-1.787-3.004-1.787-4.834a7.41 7.41 0 011.025-3.798A7.257 7.257 0 0153.13 1.27c1.19-.665 2.538-.997 4.042-.997 1.217 0 2.363.222 3.437.664 1.075.437 2.123 1.14 3.145 2.11z" fill="#000"/><path d="M67.816.635h2.861c1.595 0 2.676.065 3.242.195.853.195 1.547.615 2.08 1.26.535.638.801 1.426.801 2.363 0 .781-.185 1.468-.556 2.06-.365.593-.889 1.042-1.573 1.348-.683.3-1.627.453-2.832.46L77.005 15h-1.777l-5.156-6.68h-.82V15h-1.436V.635zm1.436 1.406v4.883l2.47.02c.957 0 1.664-.092 2.12-.274a2.19 2.19 0 001.074-.87c.26-.403.39-.852.39-1.347 0-.482-.13-.918-.39-1.308a2.168 2.168 0 00-1.026-.85c-.423-.17-1.126-.254-2.11-.254h-2.528zM87.132.273c2.174 0 3.994.726 5.459 2.178 1.465 1.452 2.197 3.24 2.197 5.362 0 2.102-.732 3.886-2.197 5.351-1.458 1.465-3.239 2.197-5.342 2.197-2.129 0-3.926-.729-5.39-2.187-1.465-1.458-2.198-3.223-2.198-5.293 0-1.38.332-2.66.996-3.838a7.287 7.287 0 012.735-2.764 7.309 7.309 0 013.74-1.006zM87.2 1.68a5.905 5.905 0 00-3.017.83 5.968 5.968 0 00-2.227 2.236c-.534.938-.8 1.983-.8 3.135 0 1.706.589 3.148 1.767 4.326 1.185 1.172 2.61 1.758 4.277 1.758 1.114 0 2.142-.27 3.086-.81a5.767 5.767 0 002.217-2.217c.534-.938.8-1.98.8-3.126 0-1.139-.266-2.167-.8-3.085-.527-.925-1.273-1.664-2.236-2.217a6.062 6.062 0 00-3.067-.83zM104.915.273c2.174 0 3.994.726 5.459 2.178 1.465 1.452 2.197 3.24 2.197 5.362 0 2.102-.732 3.886-2.197 5.351-1.459 1.465-3.239 2.197-5.342 2.197-2.129 0-3.926-.729-5.39-2.187-1.465-1.458-2.198-3.223-2.198-5.293 0-1.38.332-2.66.996-3.838a7.283 7.283 0 012.735-2.764 7.307 7.307 0 013.74-1.006zm.068 1.407a5.902 5.902 0 00-3.017.83 5.966 5.966 0 00-2.227 2.236c-.534.938-.8 1.983-.8 3.135 0 1.706.589 3.148 1.767 4.326 1.185 1.172 2.611 1.758 4.277 1.758a6.11 6.11 0 003.086-.81 5.752 5.752 0 002.217-2.217c.534-.938.801-1.98.801-3.126 0-1.139-.267-2.167-.801-3.085-.527-.925-1.273-1.664-2.236-2.217a6.064 6.064 0 00-3.067-.83zM115.198 15L117.239.635h.234l5.84 11.787L129.094.635h.235L131.389 15h-1.416l-1.406-10.273L123.489 15h-.362l-5.146-10.352L116.584 15h-1.386z" fill="#E2B65C"/></svg>