<svg width="14" height="20" fill="none" xmlns="http://www.w3.org/2000/svg"><path d="M6.35.88a.65.65 0 01.64.534L7 1.53v3.903A3.252 3.252 0 014.4 8.62v9.82a.65.65 0 01-1.29.118l-.011-.117V8.62A3.253 3.253 0 01.504 5.656l-.008-.222V1.53a.65.65 0 011.29-.117l.01.117v3.903a1.951 1.951 0 001.302 1.84V1.531a.65.65 0 011.29-.117l.01.117v5.742A1.953 1.953 0 005.69 5.627l.01-.193V1.53a.65.65 0 01.65-.65zm6.504 0a.65.65 0 01.64.534l.01.117v16.91a.65.65 0 01-1.29.118l-.01-.117v-7.155h-1.952a.65.65 0 01-.64-.533l-.01-.117V4.133A3.252 3.252 0 0112.854.88zm-.65 9.106V2.292c-.7.247-1.217.882-1.292 1.647l-.01.194v5.853h1.302V2.292v7.694z" fill="#000"/></svg>