<svg width="15" height="14" fill="none" xmlns="http://www.w3.org/2000/svg"><circle cx="2.689" cy="3.301" r="1.461" stroke="#C4C4C4" stroke-width=".678" stroke-linejoin="round"/><circle cx="11.947" cy="3.301" r="1.461" stroke="#C4C4C4" stroke-width=".678" stroke-linejoin="round"/><circle cx="7.319" cy="2.787" r="1.976" stroke="#C4C4C4" stroke-width=".678" stroke-linejoin="round"/><path d="M9.808 11.017c0 .497-.305.987-.803 1.368-.495.38-1.132.608-1.688.608-.555 0-1.192-.229-1.688-.608-.498-.381-.802-.87-.802-1.368V5.955h4.98v5.062z" stroke="#C4C4C4" stroke-width=".678" stroke-linejoin="round"/><path d="M10.662 11.934c.399.232.86.369 1.286.369 1.046 0 2.315-.83 2.315-1.852V6.13h-3.6m-6.686 5.804c-.4.232-.861.369-1.286.369-1.046 0-2.315-.83-2.315-1.852V6.13h3.6" stroke="#C4C4C4" stroke-width=".678" stroke-linecap="round" stroke-linejoin="round"/></svg>