<svg width="41" height="41" fill="none" xmlns="http://www.w3.org/2000/svg"><rect width="41" height="41" rx="20.5" fill="#35DE8C"/><g clip-path="url(#clip0)"><path d="M15.08 28.699l.375.185c1.567.93 3.322 1.363 5.077 1.363 5.515 0 10.027-4.46 10.027-9.911 0-2.602-1.065-5.141-2.945-7a10.014 10.014 0 00-7.082-2.911c-5.515 0-10.028 4.46-9.965 9.973 0 1.858.564 3.655 1.504 5.203l.25.372-1.002 3.655 3.76-.93z" fill="#35DE8C"/><path d="M28.679 12.345C26.548 10.177 23.602 9 20.594 9 14.202 9 9.063 14.141 9.125 20.398c0 1.982.564 3.902 1.505 5.637L9 31.92l6.08-1.549c1.691.93 3.571 1.363 5.452 1.363 6.33 0 11.468-5.142 11.468-11.398 0-3.035-1.19-5.885-3.321-7.991zm-8.085 17.469c-1.692 0-3.384-.434-4.826-1.301l-.376-.186-3.634.93.94-3.532-.251-.371c-2.758-4.398-1.441-10.221 3.07-12.947 4.513-2.726 10.342-1.425 13.1 3.035 2.757 4.46 1.44 10.221-3.072 12.947-1.441.93-3.196 1.425-4.95 1.425zm5.515-6.876l-.69-.31s-1.002-.433-1.629-.743c-.062 0-.125-.062-.188-.062a.913.913 0 00-.438.124s-.063.062-.94 1.053a.346.346 0 01-.314.186h-.062a.478.478 0 01-.251-.124l-.314-.124c-.689-.31-1.316-.682-1.817-1.177-.125-.124-.313-.248-.439-.372-.438-.433-.877-.93-1.19-1.487l-.063-.123c-.063-.062-.063-.124-.125-.248 0-.124 0-.248.062-.31 0 0 .251-.31.439-.495.125-.124.188-.31.313-.434.126-.186.188-.434.126-.62-.063-.31-.815-1.982-1.003-2.354-.125-.185-.25-.247-.439-.31h-.69c-.125 0-.25.063-.375.063l-.063.062c-.125.062-.25.186-.376.247-.125.124-.188.248-.313.372a3.136 3.136 0 00-.69 1.92c0 .496.126.992.314 1.425l.063.186a10.323 10.323 0 002.318 3.16l.251.247c.188.186.376.31.501.495A11.253 11.253 0 0022.6 25.54c.188.061.438.061.626.123h.627c.313 0 .69-.123.94-.247.188-.124.314-.124.439-.248l.125-.124c.126-.124.25-.186.376-.31s.25-.248.314-.372c.125-.247.188-.557.25-.867v-.433s-.063-.062-.188-.124z" fill="#fff"/></g><defs><clipPath id="clip0"><path fill="#fff" transform="translate(9 9)" d="M0 0h23v23H0z"/></clipPath></defs></svg>