<svg width="15" height="14" fill="none" xmlns="http://www.w3.org/2000/svg"><path d="M2.36 6.413A1.053 1.053 0 013.411 5.36H9.73a1.053 1.053 0 011.053 1.053v4.738H2.36V6.413zM1.307 12.73h10.528" stroke="#C4C4C4" stroke-width=".678" stroke-linecap="round" stroke-linejoin="round"/><path d="M10.944 7.09c1.418 0 2.127 0 2.567-.441.441-.44.441-1.15.441-2.568 0-1.418 0-2.127-.44-2.567-.44-.44-1.15-.44-2.568-.44H9.44c-1.418 0-2.127 0-2.568.44-.44.44-.44 1.15-.44 2.567 0 1.418 0 2.128.44 2.568.246.246.575.355 1.064.402" fill="#F5F5F5"/><path d="M10.944 7.09c1.418 0 2.127 0 2.567-.441.441-.44.441-1.15.441-2.568 0-1.418 0-2.127-.44-2.567-.44-.44-1.15-.44-2.568-.44H9.44c-1.418 0-2.127 0-2.568.44-.44.44-.44 1.15-.44 2.567 0 1.418 0 2.128.44 2.568.246.246.575.355 1.064.402" stroke="#C4C4C4" stroke-width=".678" stroke-linecap="round" stroke-linejoin="round"/><path d="M10.193 4.083v.004-.004z" fill="#F5F5F5"/><path d="M10.193 4.083v.004" stroke="#C4C4C4" stroke-width=".678" stroke-linecap="round"/><path d="M8.688 4.083v.004-.004z" fill="#F5F5F5"/><path d="M8.688 4.083v.004" stroke="#C4C4C4" stroke-width=".678" stroke-linecap="round"/><path d="M11.697 4.083v.004-.004z" fill="#F5F5F5"/><path d="M11.697 4.083v.004" stroke="#C4C4C4" stroke-width=".678" stroke-linecap="round"/><path d="M10.943 7.09c-.464 0-.977.188-1.444.431-.751.39-1.127.585-1.312.46-.185-.124-.15-.509-.08-1.28l.016-.175" fill="#F5F5F5"/><path d="M10.943 7.09c-.464 0-.977.188-1.444.431-.751.39-1.127.585-1.312.46-.185-.124-.15-.509-.08-1.28l.016-.175" stroke="#C4C4C4" stroke-width=".678" stroke-linecap="round"/></svg>