<svg width="48" height="48" fill="none" xmlns="http://www.w3.org/2000/svg"><path d="M46.594 45.188H32.529l-1.958-6.17c.946-.388 1.85-.86 2.705-1.402a4.225 4.225 0 003.982 2.83 4.224 4.224 0 004.22-4.219 4.225 4.225 0 00-2.83-3.982 17.242 17.242 0 002.275-5.474 4.194 4.194 0 001.827.416 4.223 4.223 0 004.219-4.218 4.223 4.223 0 00-4.219-4.22c-.654 0-1.274.15-1.827.417a17.247 17.247 0 00-2.274-5.473 4.192 4.192 0 001.592-1 4.223 4.223 0 000-5.966 4.224 4.224 0 00-5.966 0 4.192 4.192 0 00-1 1.593 17.246 17.246 0 00-5.473-2.274 4.192 4.192 0 00.417-1.827A4.224 4.224 0 0024 0a4.224 4.224 0 00-4.219 4.219c0 .654.15 1.274.417 1.827a17.247 17.247 0 00-5.474 2.274 4.225 4.225 0 00-3.982-2.828A4.224 4.224 0 006.523 9.71a4.225 4.225 0 002.829 3.982 17.244 17.244 0 00-2.275 5.474 4.192 4.192 0 00-1.827-.417 4.224 4.224 0 00-4.219 4.219 4.224 4.224 0 004.219 4.218c.654 0 1.274-.15 1.827-.416a17.243 17.243 0 002.275 5.474 4.225 4.225 0 00-2.829 3.982 4.224 4.224 0 004.219 4.219 4.225 4.225 0 003.982-2.83 17.315 17.315 0 002.705 1.403l-1.958 6.169H1.406a1.406 1.406 0 000 2.812h45.188a1.406 1.406 0 000-2.813zM35.217 32.197l-2-2a11.664 11.664 0 002.417-5.822h2.83a14.467 14.467 0 01-3.247 7.822zm0-18.456a14.465 14.465 0 013.246 7.822h-2.829a11.663 11.663 0 00-2.416-5.823l1.999-2zm-9.81-5.235a14.466 14.466 0 017.821 3.246l-2 2a11.664 11.664 0 00-5.822-2.417v-2.83zm7.5 14.463c0 3.473-2 6.487-4.906 7.955l-1.458-4.592a4.214 4.214 0 001.676-3.363A4.224 4.224 0 0024 18.75a4.224 4.224 0 00-4.219 4.219c0 1.372.659 2.592 1.676 3.363l-1.458 4.592c-2.907-1.468-4.905-4.482-4.905-7.955 0-4.911 3.995-8.907 8.906-8.907 4.91 0 8.906 3.996 8.906 8.907zm-7.586 8.808a8.935 8.935 0 01-2.642 0L24 27.617l1.32 4.16zM24 34.687c.745 0 1.473-.07 2.18-.204l.856 2.697a14.529 14.529 0 01-6.072 0l.856-2.697c.707.134 1.435.205 2.18.205zM22.594 8.506v2.829a11.664 11.664 0 00-5.823 2.416l-1.999-2a14.466 14.466 0 017.822-3.245zm-9.81 5.235l1.998 1.999a11.663 11.663 0 00-2.416 5.822H9.537a14.467 14.467 0 013.246-7.821zm0 18.456a14.467 14.467 0 01-3.247-7.822h2.829a11.663 11.663 0 002.417 5.823l-2 1.999zm1.988 1.989l2-2c.725.57 1.52 1.057 2.368 1.445l-.856 2.697a14.56 14.56 0 01-3.512-2.142zm3.65 11.002l1.687-5.316a17.33 17.33 0 003.891.44c1.337 0 2.64-.152 3.89-.44l1.688 5.316H18.422zM28.86 33.63a11.736 11.736 0 002.369-1.445l2 2a14.554 14.554 0 01-3.513 2.142l-.856-2.697z" fill="#6FB8D9"/></svg>