<svg width="48" height="48" fill="none" xmlns="http://www.w3.org/2000/svg"><path d="M25.954 3.877c.543-.72.456-2.245.378-3.592l-.009-.172a23.935 23.935 0 00-10.795 1.435A55.885 55.885 0 0123.56 6.31c1.105-.95 1.938-1.828 2.393-2.432zm12.16 13.695c-1.182.134-2.18.328-3.033.6 4.078 7.121 5.668 16.118 6.058 22.635a23.912 23.912 0 006.849-15.847c-2.784-3.422-6.472-7.774-9.874-7.388zm-24.246-6.147c2.866-.596 5.558-2.038 7.705-3.56-4.479-3.085-8.214-4.686-8.957-4.99a24.092 24.092 0 00-10.527 11.36c2.811-1.12 5.856-1.69 8.847-2.245.967-.18 1.967-.365 2.932-.566z" fill="#6FB8D9"/><path d="M30.456 12.123c.256.257.511.519.765.785a25.515 25.515 0 012.56 3.19c1.133-.427 2.467-.73 4.063-.911 3.762-.425 7.106 2.554 9.977 5.835a23.9 23.9 0 00-5.926-13.024 34.076 34.076 0 00-5.64 1.152c-1.293.386-3.352 1.435-5.799 2.973zm-3.158 12.394c.985-3.334 2.125-5.737 4.334-7.297a22.45 22.45 0 00-2.15-2.657 44.745 44.745 0 00-1.081-1.094C19.538 19.502 7.397 30.584 6.293 40.185a23.946 23.946 0 0014.406 7.582c2.067-4.116 4.013-12.483 5.17-17.459.555-2.39 1.034-4.453 1.43-5.79z" fill="#6FB8D9"/><path d="M17.25 19.23a85.596 85.596 0 019.338-7.453 51.556 51.556 0 00-2.973-2.436c-2.48 1.863-5.725 3.699-9.258 4.434-.99.206-2.003.394-2.983.576-3.774.7-7.397 1.38-10.444 3.08A24 24 0 00.012 24c0 5.097 1.595 9.82 4.305 13.707 1.755-6.952 7.778-13.728 12.932-18.478zm11.405-8.824c2.855-1.82 5.317-3.079 6.914-3.556a35.457 35.457 0 014.173-.967A23.91 23.91 0 0028.746.469c.093 1.677.133 3.517-.876 4.854-.479.635-1.29 1.505-2.344 2.45a53.373 53.373 0 013.13 2.633zm.945 14.791c-.375 1.27-.847 3.302-1.394 5.655-1.615 6.947-3.16 13.164-4.964 17.128.256.009.512.02.77.02a23.89 23.89 0 0014.816-5.126c-.161-6.82-1.797-16.468-5.915-23.63-1.597 1.188-2.457 3.055-3.313 5.953z" fill="#6FB8D9"/></svg>