<svg width="24" height="24" fill="none" xmlns="http://www.w3.org/2000/svg"><path opacity=".5" d="M22.225 7.99l-8.847 2.91 1.975 1.975L24 9.979l-1.775-1.99zM12.058 3.861l9.897 3.185.004-.003.005.006.19.062 1.736-1.943-10.152-3.2-1.68 1.893zm-1.4 7.027l-8.83-2.964L0 10.018l8.67 2.857 1.988-1.987z" fill="#65951E"/><path d="M14.954 14.553l-2.896-2.943-2.989 2.943-6.327-2.088v6.606L12 22.027l9.258-2.956v-6.599l-6.305 2.08zm-2.896-9.175l-6.864 2.13 6.864 2.289 6.795-2.21-6.795-2.21z" fill="#65951E"/><path opacity=".5" d="M10.182 1.969L.169 5.125 1.81 7.028l10.247-3.166-1.876-1.893z" fill="#65951E"/></svg>