<svg width="16" height="16" fill="none" xmlns="http://www.w3.org/2000/svg"><g clip-path="url(#clip0)" fill="#333"><path d="M15.588 11.806l-1.989-1.99c-.53-.53-1.457-.53-1.989 0l-.331.332 3.977 3.978.332-.332c.55-.55.548-1.44 0-1.988zm-4.99-1.013A1.055 1.055 0 019.2 10.72L5.268 6.786a1.055 1.055 0 01-.072-1.398L1.228 1.42C-.48 3.41-.412 6.408 1.47 8.293l6.222 6.224a5.032 5.032 0 006.873.244l-3.968-3.968zM6.172 2.387L4.184.398c-.531-.53-1.458-.531-1.99 0l-.33.332 3.978 3.977.331-.331c.55-.55.549-1.44 0-1.989z"/></g><defs><clipPath id="clip0"><path fill="#fff" d="M0 0h16v16H0z"/></clipPath></defs></svg>