<svg width="24" height="24" fill="none" xmlns="http://www.w3.org/2000/svg"><path opacity=".5" d="M10.284 8.25H4.463c-.122 1.734.765 3.275 1.208 3.929.776-.754 2.837-2.706 4.613-3.929z" fill="#65951E"/><path d="M21 7.375l-.4.534a.375.375 0 00.153.57c.154.071.33.082.49.03a.299.299 0 00.208-.207.502.502 0 00-.035-.372L21 7.375zm-.125-3.563c.039.046.074.093.108.14a.837.837 0 00.351-.465.363.363 0 00-.052-.33.374.374 0 00-.306-.157h-.351a.375.375 0 01-.375-.375.375.375 0 00-.375-.375H19.5a.375.375 0 01-.375-.375.375.375 0 00-.375-.375h-.375v1.525c.124-.017.25-.025.375-.025.952 0 1.667.273 2.125.812z" fill="#65951E"/><path opacity=".5" d="M11.816 14.867c1.636-.086 3.116-.88 4.4-2.362 1.095-1.263 1.507-2.296 1.192-2.987-.28-.613-1.355-1.268-3.533-1.268h-2.16c-1.818.944-4.63 3.603-5.534 4.48.796.643 3.081 2.272 5.635 2.137z" fill="#65951E"/><path d="M21 6.375h1.366a1.254 1.254 0 00-.834-.71 1.95 1.95 0 00-.532-.07v.78zm-2.91 2.832c.453.991.013 2.266-1.307 3.789-1.424 1.643-3.083 2.524-4.932 2.62a6.598 6.598 0 01-.34.01c-3.042 0-5.557-2.083-6.056-2.524l-1.551-.259c1.054 3.335 3.304 7.032 8.096 7.032.02 0 2.11-.022 4.2-1.377 1.22-.79 2.206-1.877 2.93-3.23.874-1.634 1.368-3.668 1.473-6.046a1.723 1.723 0 01-.138-.05A1.124 1.124 0 0120 7.46l.346-.46a.374.374 0 01-.095-.249v-1.5a.375.375 0 01.301-.368l.039-.006c-.224-.92-1.1-1.126-1.84-1.126-1.373 0-1.9 1.326-2.4 2.928-.134.429-.247.791-.388 1.064.116.03.233.063.348.1.901.293 1.5.752 1.78 1.365zm1.035-4.332a.375.375 0 110 .75.375.375 0 010-.75z" fill="#65951E"/><path opacity=".5" d="M2.475 10.2a.375.375 0 01.11.468c0 .002-.217.456-.037.818.124.25.425.425.895.52l1.369.228c-.527-.865-1.239-2.385-1.092-4.11l-2.258-.847C1.44 8.03 1.53 9.49 2.475 10.2z" fill="#65951E"/><path d="M14.96 21.957a.376.376 0 00-.409-.2l-1.562.313-.552-1.47a4.938 4.938 0 01-.793.018l.6 1.6-1.442.29a.377.377 0 00-.295.44.374.374 0 00.442.295l3.469-.694.247.494a.375.375 0 10.67-.336l-.375-.75z" fill="#65951E"/></svg>