<svg width="48" height="48" fill="none" xmlns="http://www.w3.org/2000/svg"><g clip-path="url(#clip0)" fill="#86C127"><path d="M8 13.5C8 8.262 12.262 4 17.5 4h18.266c-.658-2.302-2.756-4-5.266-4h-23A5.505 5.505 0 002 5.5v31C2 39.534 4.466 42 7.5 42H8V13.5z" fill-opacity=".5"/><path d="M40.5 8h-23a5.505 5.505 0 00-5.5 5.5v29c0 3.033 2.466 5.5 5.5 5.5h23c3.034 0 5.5-2.467 5.5-5.5v-29c0-3.034-2.466-5.5-5.5-5.5zm-4 34h-15a1.5 1.5 0 010-3h15a1.5 1.5 0 010 3zm0-8h-15a1.5 1.5 0 010-3h15a1.5 1.5 0 010 3zm0-7h-15a1.5 1.5 0 010-3h15a1.5 1.5 0 010 3zm0-8h-15a1.5 1.5 0 010-3h15a1.5 1.5 0 010 3z"/></g><defs><clipPath id="clip0"><path fill="#fff" d="M0 0h48v48H0z"/></clipPath></defs></svg>