<svg width="108" height="108" fill="none" xmlns="http://www.w3.org/2000/svg"><path d="M39.487 44.711a1.582 1.582 0 002.187-.47.829.829 0 011.397 0 1.581 1.581 0 102.659-1.717 3.981 3.981 0 00-3.357-1.83 3.981 3.981 0 00-3.357 1.83 1.581 1.581 0 00.47 2.187zM10.806 91.47a1.583 1.583 0 00-1.824 1.295c-.676 3.987-1.018 8.58-1.018 13.653a1.582 1.582 0 103.164 0c0-4.896.328-9.312.974-13.124a1.582 1.582 0 00-1.296-1.825z" fill="#333"/><path d="M61.047 74.6a1.579 1.579 0 002.078-.83 1.582 1.582 0 00-.83-2.078c-4.497-1.932-9.28-1.942-12.825-1.924-.202-1.31-.096-2.965.108-3.968a13.615 13.615 0 001.601-1.118l.081-.066h21.88a1.582 1.582 0 001.476-2.15c-.83-2.157-1.54-4.994-2.109-8.433a1.583 1.583 0 00-3.122.517c.435 2.623.953 4.934 1.547 6.902h-16.02c5.745-5.364 8.651-10.25 8.651-14.563 0-.539-.022-1.08-.066-1.61l-.002-.024c-.057-.578-.092-1.818-.113-3.425h1.939c.97 0 1.892-.217 2.717-.606.08 1.628.214 3.793.442 6.214a1.582 1.582 0 103.15-.297 129.89 129.89 0 01-.534-8.951 6.358 6.358 0 00.626-2.759 6.377 6.377 0 00-1.8-4.444c3.879-7.51 1.076-15.36-2.682-19.964-3.805-4.662-8.81-6.74-12.75-5.293-.624.229-1.27.56-1.902 1.034-1.69-2.104-4.69-3.988-8.474-5.256C39.009-.202 33.379-.472 28.669.77c-5.241 1.381-9.33 4.57-11.825 9.225-2.83 5.28-3.644 12.392-2.423 21.148a6.372 6.372 0 00-1.654 4.288c0 1.143.302 2.217.83 3.147-.072 2.653-.577 16.26-3.512 23.887a1.582 1.582 0 001.476 2.15h21.924l.078.064c.51.414 1.046.789 1.605 1.123.203 1.003.31 2.656.107 3.966-7.23-.04-19.12.044-24.503 15.767a1.582 1.582 0 102.993 1.025c3.338-9.748 9.262-12.543 14.987-13.33 1.09 6.57 6.795 11.515 13.62 11.515 6.824 0 12.525-4.938 13.619-11.504 1.687.237 3.4.647 5.056 1.358zm4.274-35.934h-1.963a1181.21 1181.21 0 01-.001-6.47h1.964a3.24 3.24 0 013.237 3.235 3.24 3.24 0 01-3.237 3.235zM55.58 8.7c2.613-.96 6.315.778 9.208 4.324 3.097 3.793 5.437 10.196 2.43 16.295a6.38 6.38 0 00-1.897-.287h-1.959l.001-.93a6.802 6.802 0 00-3.853-6.274c-2.186-.972-5.037-1.716-8.294-2.19.1-5.992 1.664-9.947 4.364-10.938zm-35.947 2.79c2.098-3.916 5.41-6.492 9.843-7.66 4.128-1.089 9.097-.841 13.632.679 3.457 1.158 6.208 2.925 7.325 4.654-1.303 2.095-2.266 5.282-2.376 10.11a65.106 65.106 0 00-5.748-.238c-1.49 0-2.978.05-4.428.148a1.582 1.582 0 00.213 3.157 62.78 62.78 0 014.217-.14h.126c6.32 0 12.204.936 15.76 2.507a3.63 3.63 0 012.002 3.38c0 .973-.003 2.033-.005 3.134-.011 5.873-.024 12.528.15 14.331.037.44.055.89.055 1.337 0 4.103-3.876 9.405-11.212 15.334-1.874 1.522-4.36 2.393-6.834 2.393h-.055c-2.446 0-4.84-.85-6.743-2.395-7.334-5.927-11.21-11.229-11.21-15.332 0-.447.019-.897.055-1.336.175-1.803.162-8.458.15-14.332-.002-1.101-.004-2.161-.004-3.14l-.001-.04a3.631 3.631 0 012.003-3.334c1.234-.545 2.743-1.017 4.488-1.402a1.582 1.582 0 10-.682-3.09c-1.965.434-3.687.977-5.12 1.613a6.803 6.803 0 00-3.853 6.274c0 .302 0 .613.002.93h-2.215a6.38 6.38 0 00-1.794.256c-.857-7.418-.1-13.398 2.26-17.799zm1.754 27.176h-2.219a3.24 3.24 0 01-3.237-3.235 3.24 3.24 0 013.237-3.235h2.22c.004 2.137.007 4.412 0 6.47zM13.77 61.452c1.989-6.584 2.665-15.465 2.89-20.134a6.36 6.36 0 002.508.512h2.195c-.021 1.607-.056 2.847-.113 3.425l-.003.024c-.044.53-.066 1.071-.066 1.61 0 4.313 2.907 9.2 8.652 14.562H13.77zm28.52 6.328h.073c1.317 0 2.618-.184 3.864-.537-.08 1.47.024 3.093.433 4.36a4.3 4.3 0 01-4.287 4.045 4.3 4.3 0 01-4.288-4.044c.409-1.266.513-2.884.433-4.352 1.222.348 2.492.528 3.772.528zm.082 13.8c-5.171 0-9.508-3.68-10.453-8.613a75.53 75.53 0 013.162-.036c.726 3.358 3.72 5.882 7.291 5.882 3.572 0 6.566-2.524 7.291-5.882a70.18 70.18 0 013.162.039 10.63 10.63 0 01-10.453 8.61zM26.178 99.347c-.295-.01-.875.068-1.438.621-.62.61-1.446 1.942-1.446 6.45a1.582 1.582 0 103.164 0c0-2.753.331-3.793.474-4.114a1.582 1.582 0 00-.753-2.957zm33.827.622c-.563-.554-1.142-.626-1.438-.622a1.582 1.582 0 00-.754 2.957c.143.321.474 1.362.474 4.114a1.582 1.582 0 103.164 0c0-4.508-.825-5.84-1.446-6.45z" fill="#333"/><path d="M42.33 55.141a6.757 6.757 0 005.698-3.106 1.582 1.582 0 00-2.658-1.716 3.605 3.605 0 01-3.04 1.658 3.604 3.604 0 01-3.038-1.658 1.582 1.582 0 00-2.659 1.716 6.755 6.755 0 005.697 3.106zm38.391 14.228c-10.65 0-19.315 8.664-19.315 19.315 0 10.65 8.665 19.315 19.315 19.315 10.65 0 19.315-8.665 19.315-19.315 0-10.65-8.665-19.315-19.315-19.315zm0 35.465c-8.905 0-16.15-7.245-16.15-16.15 0-8.906 7.245-16.151 16.15-16.151 8.906 0 16.15 7.245 16.15 16.15 0 8.906-7.244 16.151-16.15 16.151z" fill="#333"/><path d="M80.721 76.96c-.582 0-1.166.043-1.736.128a1.582 1.582 0 10.466 3.13 8.65 8.65 0 011.27-.094c4.717 0 8.554 3.84 8.554 8.56a8.52 8.52 0 01-1.705 5.123 7.302 7.302 0 00-2.913-3.248 4.72 4.72 0 00.809-2.648 4.75 4.75 0 00-4.745-4.746 4.75 4.75 0 00-4.744 4.746c0 .98.298 1.891.809 2.648a7.302 7.302 0 00-2.913 3.248 8.52 8.52 0 01-1.705-5.123 8.47 8.47 0 011.875-5.35 1.582 1.582 0 10-2.47-1.978 11.761 11.761 0 00-2.57 7.328c0 6.464 5.257 11.724 11.718 11.724 6.462 0 11.718-5.26 11.718-11.724 0-6.465-5.256-11.724-11.718-11.724zm-1.58 10.95c0-.872.71-1.581 1.58-1.581a1.583 1.583 0 010 3.164c-.87 0-1.58-.71-1.58-1.582zm-2.692 8.187c.377-1.983 2.118-3.44 4.272-3.44 2.154 0 3.896 1.457 4.273 3.44a8.494 8.494 0 01-4.273 1.147 8.493 8.493 0 01-4.272-1.147z" fill="#333"/></svg>