<svg width="36" height="36" fill="none" xmlns="http://www.w3.org/2000/svg"><circle cx="18" cy="18" r="18" fill="#75A52F"/><path fill-rule="evenodd" clip-rule="evenodd" d="M24.632 11.34a9.23 9.23 0 00-6.572-2.725c-5.121 0-9.29 4.168-9.291 9.29 0 1.638.427 3.237 1.24 4.646l-1.318 4.814 4.925-1.292a9.282 9.282 0 004.44 1.131h.004c5.12 0 9.29-4.168 9.291-9.29a9.234 9.234 0 00-2.719-6.574zM18.06 25.635h-.003a7.714 7.714 0 01-3.93-1.076l-.283-.168-2.922.767.78-2.85-.184-.292a7.702 7.702 0 01-1.18-4.11c.001-4.257 3.466-7.722 7.725-7.722a7.67 7.67 0 015.46 2.265 7.677 7.677 0 012.26 5.464c-.002 4.258-3.466 7.722-7.723 7.722zm4.236-5.784c-.232-.116-1.373-.677-1.586-.755-.213-.078-.368-.116-.523.116-.154.233-.6.756-.735.91-.135.155-.27.175-.503.058-.232-.116-.98-.36-1.867-1.152-.69-.615-1.156-1.376-1.291-1.608-.135-.233-.001-.346.102-.474.251-.312.503-.639.58-.794.078-.155.039-.29-.02-.407-.057-.116-.522-1.258-.715-1.723-.189-.453-.38-.392-.522-.399a9.21 9.21 0 00-.445-.008.853.853 0 00-.62.29c-.212.233-.812.795-.812 1.937 0 1.143.832 2.247.948 2.402.116.155 1.637 2.5 3.966 3.505.554.24.986.382 1.323.49a3.183 3.183 0 001.462.091c.447-.066 1.374-.561 1.568-1.104.193-.542.193-1.007.135-1.104-.058-.096-.213-.154-.445-.27z" fill="#fff"/></svg>