<svg width="53" height="47" fill="none" xmlns="http://www.w3.org/2000/svg"><path d="M51.422 18.344h-17.23a9.36 9.36 0 00.043-.86 8.743 8.743 0 00-2.338-6.015h6.635a.86.86 0 000-1.719h-8.985a7.058 7.058 0 00-2.187-.636V1.156a.86.86 0 10-1.719 0v7.958a7.057 7.057 0 00-2.187.636h-8.985a.86.86 0 100 1.719h6.635a8.744 8.744 0 00-2.338 6.015c0 .293.017.576.043.86H1.579a.859.859 0 00-.172 1.701l8.533 1.78h.007a2.55 2.55 0 00-.634 1.675 2.578 2.578 0 105.156 0 2.546 2.546 0 00-.126-.758h.006l7.674 1.598h.009a7.207 7.207 0 004.468 1.566 7.304 7.304 0 004.486-1.564l7.666-1.598h.006c-.08.244-.123.499-.126.756a2.578 2.578 0 105.156 0 2.55 2.55 0 00-.634-1.674h.006l8.534-1.779a.86.86 0 00-.172-1.703zm-39.531 6.015a.859.859 0 110-1.717.859.859 0 010 1.717zm18.047-6.875h-6.875a.86.86 0 01-.86-.859 4.297 4.297 0 118.594 0 .86.86 0 01-.86.86zM41.11 24.36a.859.859 0 110-1.717.859.859 0 010 1.717zm10.027 3.585a3.206 3.206 0 00-4.141-1.105l-4.7 2.407a3.446 3.446 0 01-1.4 4.286l-9.565 5.672a10.153 10.153 0 01-7.46 1.176l-8.641-2.069.4-1.671 8.624 2.062a8.46 8.46 0 006.2-.977l9.563-5.672a1.73 1.73 0 00.608-2.353 3.894 3.894 0 00-5.15-1.517l-6.935 3.56a3.385 3.385 0 01-3.133-.02l-4.727-2.51a10.131 10.131 0 00-10.095.356l2.695 12.846 1.435-.309a6.7 6.7 0 012.294-.09l10.734 1.176a8.342 8.342 0 005.758-1.345l17.164-11.516a1.736 1.736 0 00.475-2.387h-.003zm-49.559.27l3.88 18.488 6.667-1.435-3.88-18.488-6.667 1.435zm3.375 3.661l-.353-1.68 1.681-.354.354 1.68-1.682.354z" fill="#2585FF"/></svg>