<svg width="48" height="48" fill="none" xmlns="http://www.w3.org/2000/svg"><path d="M10.42 8.21h3.79a.316.316 0 00.316-.315V.315A.316.316 0 0014.21 0h-3.79a.316.316 0 00-.315.316v7.579c0 .174.141.315.316.315z" fill="#2585FF"/><path d="M44.463 5.684h-4.674v2.021c0 1.2-.884 2.4-2.084 2.4H33.98a2.59 2.59 0 01-2.4-2.4v-2.02H16.42v2.02a2.59 2.59 0 01-2.4 2.4h-3.727c-1.2 0-2.084-1.2-2.084-2.4v-2.02H3.537A2.969 2.969 0 00.63 8.652v7.768h46.737V8.653a2.968 2.968 0 00-2.905-2.969z" fill="#2585FF"/><path d="M33.79 8.21h3.789a.316.316 0 00.316-.315V.315A.316.316 0 0037.579 0h-3.79a.316.316 0 00-.315.316v7.579c0 .174.141.315.315.315zM19.263 35.242l-.884 5.116 4.547-2.4.442-.126.442.126 4.548 2.4-.884-5.116a1.073 1.073 0 01.252-.82l3.727-3.538-5.116-.758a.947.947 0 01-.695-.505l-2.274-4.61-2.273 4.61a.947.947 0 01-.695.505l-5.116.758 3.727 3.537c.194.227.286.524.252.821z" fill="#2585FF"/><path d="M.631 45.158A2.905 2.905 0 003.537 48h40.926c1.58 0 2.87-1.262 2.905-2.842V18.316H.631v26.842zM12.38 29.937c.1-.345.4-.595.758-.632l6.505-1.01 2.905-5.874a.947.947 0 011.642 0l2.906 5.874 6.505 1.01a.884.884 0 01.758.632.884.884 0 01-.253.947l-4.674 4.548 1.137 6.505a.947.947 0 01-.379.884 1.01 1.01 0 01-.568.19.631.631 0 01-.442-.127l-5.81-3.032-5.811 3.032a.884.884 0 01-1.01-.063.948.948 0 01-.38-.884l1.137-6.505-4.674-4.548a.884.884 0 01-.252-.947z" fill="#2585FF"/></svg>