<svg width="147" height="41" fill="none" xmlns="http://www.w3.org/2000/svg"><path d="M29.503 9.225c2.509 0 4.659-2.089 4.659-4.525 0-2.611-2.15-4.7-4.659-4.7-2.508 0-4.658 2.089-4.658 4.7 0 2.436 2.15 4.525 4.658 4.525z" fill="#12161E"/><path d="M33.785 12.62H13.06v-1.212c0-2.769 2.786-2.769 4.006-2.769 1.567 0 2.263.173 2.263.173V1.371s-1.393-.346-3.308-.346c-4.18 0-12.19 1.211-12.19 10.556v1.038H0v6.922h3.831v14.537H.348V41h16.893v-6.922h-4.18V19.54h11.32v14.537h-3.483V41h16.37v-6.922h-3.483V12.619zm35.575-.32H54.381v7h2.467l-3.172 10.325c-.705 1.75-.881 3.85-.881 3.85h-.176s-.177-2.1-.705-3.85L48.743 19.3h2.467v-7H36.232v7h3.172L47.157 41h11.101l7.93-21.7h3.171v-7z" fill="#12161E"/><path fill-rule="evenodd" clip-rule="evenodd" d="M84.136 11.275c8.367 0 13.174 5.77 13.174 13.813 0 .874-.178 2.798-.178 2.798h-18.16c.713 3.672 3.74 5.246 6.766 5.246 4.095 0 8.011-2.623 8.011-2.623l3.383 6.644S92.503 41 84.848 41C74.7 41 69.359 33.656 69.359 26.137c0-8.393 5.52-14.862 14.777-14.862zm-.356 7.169c-2.67 0-4.095 1.923-4.451 4.196h8.19c0-2.273-1.603-4.196-3.74-4.196z" fill="#12161E"/><path d="M137.014 19.216h-.175s.175-.519.175-1.383v-1.556c0-2.42-1.401-3.631-4.029-3.631h-8.76v6.915h2.453c.876 0 1.226.52 1.226 1.21v13.313h-3.679V41h16.994v-6.916h-3.854v-4.149c0-5.014 2.452-8.472 7.708-8.472 1.226 0 1.927.173 1.927.173V12.3h-1.051c-4.205 0-7.708 3.112-8.935 6.916zm-24.942 0v-2.939c0-2.42-1.391-3.631-3.825-3.631H99.38v6.915h2.608c.696 0 1.217.52 1.217 1.21v13.313H99.38V41h16.864v-6.916h-3.651v-4.149c0-5.014 2.434-8.472 7.65-8.472 1.043 0 1.912.173 1.912.173V12.3h-1.217c-4.172 0-7.649 3.112-8.866 6.916z" fill="#12161E"/></svg>