<svg width="48" height="48" fill="none" xmlns="http://www.w3.org/2000/svg"><path d="M41.76 2.965V0H20.054v2.98h-6.018v17.919c3.522 1.915 5.918 5.649 5.918 9.932 0 2.545-1.67 6.699-5.104 12.699-.273.477-.545.944-.814 1.4v2.704h15.49v-9.077h2.96v9.077H47.68V2.984l-5.92-.02zm-15.193 32.41h-2.96v-2.96h2.96v2.96zm0-5.92h-2.96v-2.96h2.96v2.96zm0-5.784h-2.96v-2.96h2.96v2.96zm5.92 11.704h-2.96v-2.96h2.96v2.96zm0-5.92h-2.96v-2.96h2.96v2.96zm0-5.784h-2.96v-2.96h2.96v2.96zm2.959-6.906h-2.96v-3.453h-2.96v3.453h-2.96V6.9h2.96v3.453h2.96V6.9h2.96v9.866zm2.96 18.61h-2.96v-2.96h2.96v2.96zm0-5.92h-2.96v-2.96h2.96v2.96zm0-5.784h-2.96v-2.96h2.96v2.96z" fill="#2585FF"/><path d="M8.658 22.494c-4.597 0-8.337 3.74-8.337 8.337 0 1.117.61 4.06 4.704 11.213A134.631 134.631 0 008.658 48c.936-1.451 2.29-3.61 3.633-5.956 4.093-7.153 4.704-10.096 4.704-11.213 0-4.597-3.74-8.337-8.337-8.337zm0 13.832a5.502 5.502 0 01-5.496-5.495 5.502 5.502 0 015.496-5.496 5.502 5.502 0 015.495 5.496 5.502 5.502 0 01-5.495 5.495z" fill="#2585FF"/><path d="M8.658 28.295a2.539 2.539 0 00-2.536 2.536 2.539 2.539 0 002.536 2.536 2.539 2.539 0 002.536-2.536 2.539 2.539 0 00-2.536-2.536z" fill="#2585FF"/></svg>