<svg width="110" height="98" fill="none" xmlns="http://www.w3.org/2000/svg"><path d="M60.8 98c27.062 0 49-21.938 49-49S87.862 0 60.8 0s-49 21.938-49 49 21.938 49 49 49z" fill="#18627D"/><path d="M60.5 51c-.663-.759-16.084-9.362-16.084-29.04v-6.757L60.5 11l16.084 4.203v6.758C76.584 41.272 60.954 50.48 60.5 51z" fill="#2589B6"/><path d="M76.584 21.96v-6.757L60.5 11v40c.455-.52 16.084-9.728 16.084-29.04z" fill="#60B0D5"/><path d="M58.713 21.96h3.574v3.575h-3.574v-3.574zm0 7.15h3.574v7.148h-3.574v-7.149z" fill="#ECF2FF"/><path d="M60.5 21.96h1.787v3.575H60.5v-3.574zm0 7.15h1.787v7.148H60.5v-7.149z" fill="#fff"/><path d="M52.3 69.746L39 59.446l-4.7 2.3-7.6 3.7-4 .3v16.6l35.2 2.1 10.1-14.4-15.7-.3z" fill="#FFF8E6"/><path d="M67.8 70.646l-9.9 13.8-27.4-1.7c.7-1.2.6-2.5.8-3.9.4-2.7.8-5.3.8-8.1 0-3 .1-6 .3-9l6.6-2.3 13.3 10.2 15.5 1z" fill="#FFF8E6"/><path d="M62.9 84.946l18.2-9.9 7.4-11.2s2.1-5.7 2.6-8.2c.3-1.3-2-3.9-5.1-.8-1.9 1.9-4.1 6-4.1 6l-5.2 5.4-8.4 3.8-16.1-.3 2.9 14.6 7.8.6z" fill="#FFF8E6"/><path d="M23 86.346H2.5L0 58.046l24 1.1-1 27.2z" fill="#4B97F7"/><path d="M28.7 67.046l7.3 2.7 8.1-11.1s4.4-1.9 5.9-2.3c4.8-1.5 4.9-5.7 4.7-6.6-.4-1.4-2.8-.4-2.8-.4l-12.8 3.8-17.4 12.4 7 1.5z" fill="#FFF8E6"/></svg>