<svg width="107" height="29" fill="none" xmlns="http://www.w3.org/2000/svg"><path d="M7.185 1.202A4.215 4.215 0 005.817.263 4.307 4.307 0 002.537.22a4.223 4.223 0 00-1.394.902 4.1 4.1 0 00-.924 1.36 4.013 4.013 0 00.05 3.196c.226.503.554.956.964 1.332l2.98 2.911 2.972-2.91A4.1 4.1 0 008.1 5.676a4.015 4.015 0 000-3.143 4.1 4.1 0 00-.914-1.332zm27.019 3.493h9.115c7.66 0 12.831 4.942 12.831 11.944 0 7.001-5.178 11.943-12.83 11.943h-9.116V4.695zm9.115 20.155c5.363 0 8.427-3.733 8.427-8.211 0-4.48-2.942-8.279-8.427-8.279h-4.818v16.49h4.818zM68.1 10.831c5.363 0 8.757 3.979 8.757 9.428v.896h-13.72a5.182 5.182 0 001.838 3.501 5.452 5.452 0 003.823 1.261 7.634 7.634 0 005.04-1.896l1.762 2.47A10.499 10.499 0 0168.4 29c-5.363 0-9.308-3.62-9.308-9.1 0-5.015 3.723-9.069 9.009-9.069zm-5 7.666h10.004a4.536 4.536 0 00-.4-1.814 4.638 4.638 0 00-1.098-1.517 4.779 4.779 0 00-1.621-.975 4.87 4.87 0 00-1.883-.277 4.975 4.975 0 00-3.462 1.296 4.725 4.725 0 00-1.54 3.287zm17.794 5.091a9.318 9.318 0 006.036 2.441c2.298 0 3.493-.828 3.493-2.12 0-1.493-1.877-2.038-4.045-2.508-3.064-.642-6.695-1.433-6.695-5.3 0-2.829 2.497-5.27 6.986-5.27 2.53-.053 4.99.818 6.895 2.441l-1.601 2.62a7.155 7.155 0 00-2.406-1.572 7.305 7.305 0 00-2.85-.51c-2.022 0-3.309.746-3.309 1.94 0 1.195 1.762 1.792 3.83 2.24 3.065.642 6.895 1.493 6.895 5.59 0 3.046-2.612 5.375-7.392 5.375a10.983 10.983 0 01-7.6-2.612l1.763-2.755zm17.925.97V14.556h-2.942v-3.292h2.942V6.531h3.83v4.733h3.6v3.292h-3.6v9.07c0 1.179.59 2.045 1.693 2.045a2.518 2.518 0 001.723-.612l.92 2.829A5.162 5.162 0 01103.346 29c-2.995 0-4.527-1.575-4.527-4.442zM1.379 11.264h5.66v17.318H1.38V11.264zm21.809 7.308c0-2.113-1.141-2.866-2.911-2.866a4.459 4.459 0 00-1.911.454c-.594.29-1.111.71-1.513 1.225v11.197H11.16V11.264h5.692v2.113a8.038 8.038 0 012.78-1.921 8.22 8.22 0 013.348-.625c4.045 0 5.883 2.292 5.883 5.487v12.264h-5.676v-10.01z" fill="#fff"/></svg>