<svg width="42" height="42" fill="none" xmlns="http://www.w3.org/2000/svg"><path d="M36.75 23.625a3 3 0 11-6 0 3 3 0 016 0zm-25.5 0a3 3 0 11-6 0 3 3 0 016 0zm12.75-3a3 3 0 11-6 0 3 3 0 016 0zm-11.98 20.25a3.688 3.688 0 01-.77-2.25v-7.5a6.75 6.75 0 01.389-2.227c-.13-.009-.257-.023-.389-.023h-6a5.19 5.19 0 00-2.95.91 5.256 5.256 0 00-2.3 4.34v3a3.756 3.756 0 002.183 3.404c.26.123.535.214.817.27v-8.174h1.5v8.25h7.52zm.753.75l-.023-.02v.02h.023zM28.634 28.66a5.312 5.312 0 00-1.9-2.016A5.242 5.242 0 0024 25.875h-6a5.25 5.25 0 00-5.25 5.25v7.5a2.25 2.25 0 002.25 2.25h.75v-10.5h1.5v10.5h7.5v-10.5h1.5v10.5H27a2.25 2.25 0 002.25-2.25v-7.5c0-.86-.211-1.706-.616-2.465zm11.069 1.127a5.19 5.19 0 00-2.953-.912h-6c-.131 0-.259.014-.388.023.254.716.385 1.468.388 2.227v7.5a3.688 3.688 0 01-.771 2.25h7.52v-8.25H39V40.8c.279-.056.549-.145.805-.267A3.755 3.755 0 0042 37.125v-3a5.255 5.255 0 00-2.297-4.338z" fill="#2585FF"/><path d="M21 10.125a8.981 8.981 0 00-8.171 12.75h4.28a4.5 4.5 0 117.782 0h4.284A8.981 8.981 0 0021 10.125z" fill="#2585FF"/><path d="M39 16.125h-4.05l-.146-.563a13.856 13.856 0 00-1.53-3.665l-.3-.502 2.876-2.88a.743.743 0 000-1.054l-3.185-3.186a.76.76 0 00-1.05 0l-2.881 2.88-.502-.3a13.887 13.887 0 00-3.669-1.53L24 5.18V1.125a.75.75 0 00-.75-.75h-4.5a.75.75 0 00-.75.75v4.05l-.563.146A13.888 13.888 0 0013.77 6.85l-.501.3-2.88-2.875a.76.76 0 00-1.054 0L6.15 7.46a.745.745 0 000 1.055l2.88 2.88-.3.502a13.857 13.857 0 00-1.53 3.665l-.146.563H3a.75.75 0 00-.75.75v4.5c0 .414.336.75.75.75h1.015a4.488 4.488 0 016.516-2.376c-.012-.208-.031-.413-.031-.624 0-5.799 4.701-10.5 10.5-10.5s10.5 4.701 10.5 10.5c0 .21-.02.416-.032.624a4.487 4.487 0 016.517 2.376H39a.75.75 0 00.75-.75v-4.5a.75.75 0 00-.75-.75z" fill="#2585FF"/></svg>