<svg width="53" height="53" fill="none" xmlns="http://www.w3.org/2000/svg"><path d="M24.349 7.63v1.153c1.6-.108 2.457.022 2.546.036.515.085.955.417 1.177.89l2.249 4.793c.272.063.53.198.745.407.272.264.596.471.964.561a2.092 2.092 0 001.98-.526c.53-.517 1.342-.648 1.969-.252.896.566.992 1.765.29 2.468a5.215 5.215 0 01-3.983 1.532l3.023 6.444c.128.271.249.545.364.82 3.404-1.073 7.276-.276 9.982 2.399.605.598.672 1.574.106 2.21a1.578 1.578 0 01-2.302.068 6.773 6.773 0 00-6.788-1.675c.88 3.51.822 7.132-.087 10.528.428.142.863.268 1.306.378.513.127 1.05.129 1.564.002A17.839 17.839 0 0053 22.549V7.63c0-.739-.456-1.4-1.147-1.66-2.18-.82-6.39-1.933-13.178-1.933-6.787 0-11 1.114-13.179 1.933a1.772 1.772 0 00-1.147 1.66zm17.49 7.293a1.582 1.582 0 012.239 0c.393.394.917.61 1.474.61.558 0 1.082-.216 1.475-.61a1.582 1.582 0 112.238 2.237 5.216 5.216 0 01-3.713 1.538 5.216 5.216 0 01-3.712-1.538 1.582 1.582 0 010-2.237z" fill="#2585FF"/><path d="M32.444 26.48l-6.37-13.58a1.66 1.66 0 00-1.632-.949c-2.3.174-6.615.937-12.83 3.853-6.145 2.883-9.485 5.68-11.11 7.346a1.773 1.773 0 00-.333 1.991L6.505 38.65a17.84 17.84 0 0019.62 9.923c.517-.103 1-.33 1.41-.662a17.839 17.839 0 004.91-21.43zm-12.802-1.012a5.256 5.256 0 016.722-3.154 1.582 1.582 0 01-1.076 2.976 2.089 2.089 0 00-2.67 1.253 1.583 1.583 0 11-2.976-1.075zm-6.12 5.342a2.073 2.073 0 00-1.595.074 2.072 2.072 0 00-1.075 1.18 1.583 1.583 0 01-2.977-1.076 5.217 5.217 0 012.708-2.97 5.216 5.216 0 014.015-.184 1.582 1.582 0 11-1.076 2.976zm5.313 10.343a9.88 9.88 0 01-3.364-.592 1.582 1.582 0 111.075-2.976 6.774 6.774 0 008.662-4.064 1.582 1.582 0 112.976 1.076c-1.46 4.038-5.283 6.556-9.349 6.556z" fill="#2585FF"/></svg>