<svg width="45" height="45" fill="none" xmlns="http://www.w3.org/2000/svg"><path d="M43.219 41.625V12.937H29.562l-.713.482a.797.797 0 01-.971-.061l-.48-.42H1.781v28.687h1.594v-25.5a.797.797 0 01.797-.797h15.937a.797.797 0 01.797.797v25.5H43.22zM22.5 16.125a.797.797 0 01.797-.797h17.531a.797.797 0 01.797.797v21.516a.797.797 0 01-.797.797H23.297a.797.797 0 01-.797-.797V16.125z" fill="#2585FF"/><path d="M19.313 41.625V16.922H4.969v24.703h14.343zM6.563 24.094a.797.797 0 01.796-.797h.424l3.745-4.495a.797.797 0 011.225 0l3.745 4.495h.424a.797.797 0 01.797.797v4.781a.797.797 0 01-.797.797H7.359a.797.797 0 01-.796-.797v-4.781zm0 7.172h1.593v3.187H6.562v-3.187zM33.366 5.09a.797.797 0 01-.24.702l-3.71 3.504a.797.797 0 01-.686.205l-2.97-.527-.285.157 2.523 2.213h1.076l11.938-8.065L42.571.46a.28.28 0 00-.054-.16.287.287 0 00-.123-.103l-2.799.51a.815.815 0 01-.172.012.842.842 0 00-.517.144l-2.164 1.5a.798.798 0 01-.562.135l-6.941-.953-.918.73 4.604 2.22a.797.797 0 01.441.596z" fill="#2585FF"/><path d="M8.156 24.89h7.969v3.188H8.156v-3.187zm15.938 10.36H40.03v1.594H24.094V35.25zm0-18.328H40.03v16.734H24.094V16.922zM12.14 20.557l-2.283 2.74h4.567l-2.284-2.74zM23.568 9.578a.798.798 0 01.162-1.308l1.51-.828a.795.795 0 01.523-.086l2.85.506 2.577-2.434-4.258-2.053H1.184a.996.996 0 00-.996.996v5.977a.996.996 0 00.996.996H25.58l-2.013-1.766zm-1.865-.625a.797.797 0 01-.797.797H3.375a.797.797 0 01-.797-.797V5.766a.797.797 0 01.797-.797h17.531a.797.797 0 01.797.797v3.187zM42.78 3.375l-.465.843a.795.795 0 01-.252.275l-10.142 6.85h11.895a.996.996 0 00.996-.995V4.37a.996.996 0 00-.996-.996h-1.035zM.188 44.813h44.624v-.598a.996.996 0 00-.996-.996H1.184a.996.996 0 00-.996.996v.597z" fill="#2585FF"/><path d="M4.172 6.563h15.937v1.593H4.172V6.562z" fill="#2585FF"/></svg>