<svg width="98" height="103" fill="none" xmlns="http://www.w3.org/2000/svg"><path d="M49 98c27.062 0 49-21.938 49-49S76.062 0 49 0 0 21.938 0 49s21.938 49 49 49z" fill="#59A2FF"/><path d="M42.5 34.1L26 46.6l-4.7 34.1 16.8 1.2 1.1-6.3L43 72l4.4-7.4-7.5-15 2.6-15.5z" fill="#FFF3D3"/><path d="M37.4 35.4L25.6 49.9 23 68.5c1.3-.4 2.6-.1 4-.1 2.7.1 5.4.3 8.1.8 3 .6 5.9 1 8.9 1.4l3.5-6-12.8-14.5 2.7-14.7z" fill="#FFF3D3"/><path d="M42.6 27.1L26.1 44.8l-1.3 12.8 15.1-8 2.7-15.9v-6.6z" fill="#FFF3D3"/><path d="M66.9 65.9c0 1.7-1.4 3.2-3.2 3.2H43.2c-1.7 0-3.2-1.4-3.2-3.2V23.2c0-1.7 1.4-3.2 3.2-3.2h20.6c1.7 0 3.2 1.4 3.2 3.2v42.7h-.1z" fill="#18627D"/><path d="M65.1 61.1c0 .7-.6 1.3-1.3 1.3H43.1c-.7 0-1.3-.6-1.3-1.3V25.6c0-.7.6-1.3 1.3-1.3h20.7c.7 0 1.3.6 1.3 1.3v35.5z" fill="#EAEAEA"/><path d="M56.7 21.7h-6.6v.6h6.6v-.6zM55.4 67c0 .4-.3.7-.7.7h-2.5c-.4 0-.7-.3-.7-.7v-2.5c0-.4.3-.7.7-.7h2.5c.4 0 .7.3.7.7V67z" fill="#FFF8E6"/><path d="M42.6 80.1L17 76.9l-3.7 21.8 27.3 4.3 2-22.9z" fill="#18627D"/><path d="M36.6 72.3l6.4-.2 4.4-7.4 1.5-9.7 4.4-11.9s1-2.9-1-4c-1.8-1-3.6 1-3.6 1l-5 7.8-8.1 14.7c0-.1-1.1 9.5 1 9.7z" fill="#FFF3D3"/></svg>