<svg width="46" height="46" fill="none" xmlns="http://www.w3.org/2000/svg"><path d="M11.548 34.65a18.457 18.457 0 006.332 3.437 17.084 17.084 0 01-3.438-5.424 18.126 18.126 0 00-2.894 1.986zm6.287-32.206a18.66 18.66 0 00-6.278 3.438 19.082 19.082 0 002.867 1.977 16.898 16.898 0 013.412-5.415zm-4.043 7.099a33.5 33.5 0 00-1.62 9.832h-7.35A18.585 18.585 0 016.64 12.18l.748.071h.08a.897.897 0 00.633-.258.912.912 0 00.258-.713L8.2 9.525a19.162 19.162 0 012.03-2.44 20.179 20.179 0 003.563 2.458zm-1.603 11.613H4.841a18.638 18.638 0 005.389 12.29c1.1-.952 1.99-1.753 3.27-2.446-1.029-3.172-1.265-6.51-1.311-9.844zm20.85 0H24.39V26.5h8.095c.328-1.764.512-3.55.553-5.344zm1.79-1.781h7.33A18.686 18.686 0 0036.76 7.093a20.027 20.027 0 01-3.553 2.45 33.5 33.5 0 011.62 9.832z" fill="#4B97F7"/><path d="M12.127 19.41h-7.33a18.686 18.686 0 015.397-12.28 20.02 20.02 0 003.554 2.45 33.5 33.5 0 00-1.621 9.832zM34.82 27l6.297-.5c.613-1.719.965-3.52 1.042-5.344h-7.34c-.038 1.792.306 4.078.001 5.844zm-3.278-16.647a20.33 20.33 0 01-7.151 1.621v7.401h8.639a31.658 31.658 0 00-1.488-9.022zm3.892-4.471a18.559 18.559 0 00-6.27-3.438 16.996 16.996 0 013.411 5.415 18.563 18.563 0 002.86-1.977zM24.39 1.652v8.54a18.55 18.55 0 006.538-1.513C29.343 4.813 27 2.15 24.39 1.652zM13.97 19.375h8.64v-7.401a20.33 20.33 0 01-7.152-1.621 31.658 31.658 0 00-1.488 9.022zm1.452 10.812a20.137 20.137 0 016.36-1.567c.118-.55.408-1.05.827-1.425v-6.039h-8.648a32.676 32.676 0 001.461 9.031zm.65-21.508a18.55 18.55 0 006.538 1.514V1.652c-2.61.498-4.952 3.161-6.538 7.027z" fill="#4B97F7"/><path d="M29.165 38.556a18.66 18.66 0 006.278-3.438 19.086 19.086 0 00-2.867-1.977 16.898 16.898 0 01-3.412 5.415zm4.043-7.099a33.5 33.5 0 001.62-9.832h7.348a18.585 18.585 0 01-1.816 7.196l-.748-.071h-.08a.898.898 0 00-.633.258.91.91 0 00-.258.713l.16 1.754a19.171 19.171 0 01-2.03 2.44 20.14 20.14 0 00-3.563-2.457zM13.961 19.844h8.648V14.5h-8.095a33.41 33.41 0 00-.553 5.344zm-1.79 1.781h-7.33a18.687 18.687 0 005.398 12.282 20.025 20.025 0 013.553-2.45 33.5 33.5 0 01-1.62-9.832z" fill="#2585FF"/><path d="M34.873 21.59h7.33a18.686 18.686 0 01-5.397 12.281 20.022 20.022 0 00-3.554-2.45 33.5 33.5 0 001.621-9.832zm-19.415 9.057a20.33 20.33 0 017.151-1.62v-7.402H13.97a31.658 31.658 0 001.488 9.022zm7.152 8.702v-8.542a18.552 18.552 0 00-6.538 1.514C17.657 36.187 20 38.85 22.61 39.35zm10.42-17.724h-8.64v7.401a20.33 20.33 0 017.152 1.621 31.665 31.665 0 001.488-9.022zm-1.452-10.812a20.139 20.139 0 01-6.36 1.567 2.667 2.667 0 01-.827 1.425v6.039h8.648a32.655 32.655 0 00-1.461-9.031zm-.65 21.509a18.55 18.55 0 00-6.538-1.515v8.542c2.61-.5 4.952-3.162 6.538-7.027z" fill="#2585FF"/><rect x="27" y="24" width="13" height="21" rx="3" fill="#fff"/><path d="M36.727 25h-6.42c-1.09 0-2.018.89-2.018 1.98v15.042c0 1.09.908 1.978 2 1.978l6.428-.007a1.985 1.985 0 001.984-1.979l.01-15.034c0-1.095-.889-1.98-1.984-1.98zm-4.137 1.188h1.862a.297.297 0 010 .593H32.59a.297.297 0 110-.593zm-1.12.094a.309.309 0 01.421 0 .3.3 0 01.088.21.3.3 0 01-.297.298.304.304 0 01-.211-.088.3.3 0 010-.42zm1.991 17.13a.89.89 0 010-1.777.89.89 0 010 1.777zm4.328-2.381h-8.46v-13.21h8.46v13.21z" fill="#2585FF"/></svg>