<svg width="40" height="40" fill="none" xmlns="http://www.w3.org/2000/svg"><path d="M38.828 37.656H1.172a1.171 1.171 0 100 2.344h37.656a1.171 1.171 0 100-2.344zM10.703 25.938H3.516a1.17 1.17 0 00-1.172 1.171v8.203h9.53V27.11a1.17 1.17 0 00-1.171-1.172zm11.719-7.032H15.39a1.17 1.17 0 00-1.171 1.172v15.234h9.374V20.078a1.17 1.17 0 00-1.171-1.172z" fill="#2585FF"/><path d="M39.656 9.718L31.453.343a1.171 1.171 0 00-1.657 0l-8.203 9.375a1.17 1.17 0 00.829 2h3.515v23.594h9.375V11.72h3.516a1.17 1.17 0 00.828-2z" fill="#2585FF"/></svg>