<svg width="68" height="39" fill="none" xmlns="http://www.w3.org/2000/svg"><path d="M54.188 24.719a6.906 6.906 0 106.906 6.906 6.915 6.915 0 00-6.907-6.906zm0 10.625a3.718 3.718 0 110-7.436 3.718 3.718 0 010 7.436zm-38.25-10.625a6.906 6.906 0 106.906 6.906 6.914 6.914 0 00-6.907-6.906zm0 10.625a3.718 3.718 0 110-7.436 3.718 3.718 0 010 7.436z" fill="#2585FF"/><path d="M66.153 19.43l-12.261-2.17-9.806-9.684a3.168 3.168 0 00-2.24-.92H17.14a4.767 4.767 0 00-4.42 2.958l-3.163 7.667h-5.84A3.192 3.192 0 00.532 20.47v9.562A3.191 3.191 0 003.72 33.22h3.87a8.5 8.5 0 1116.696 0H45.84a8.5 8.5 0 1116.695 0h.153a4.787 4.787 0 004.78-4.782V21a1.594 1.594 0 00-1.315-1.57zm-47.958-3.742a1.593 1.593 0 01-1.593 1.593h-3.728a.796.796 0 01-.737-1.1l2.207-5.351a1.594 1.594 0 011.474-.986h.784a1.594 1.594 0 011.593 1.594v4.25zm13.68 0a1.593 1.593 0 01-1.594 1.593h-7.836a1.593 1.593 0 01-1.593-1.593v-4.25a1.594 1.594 0 011.593-1.594h7.836a1.594 1.594 0 011.594 1.594v4.25zm6.375 7.437h-2.125a1.594 1.594 0 110-3.188h2.125a1.594 1.594 0 110 3.188zm11.149-5.844H36.125a1.594 1.594 0 01-1.594-1.593v-4.25a1.594 1.594 0 011.594-1.594h6.953c.415 0 .815.162 1.112.452l5.765 5.618a.796.796 0 01-.556 1.367zM35.512 1.371A1.594 1.594 0 0034 .281h-8.5a1.594 1.594 0 00-1.512 1.09l-1.23 3.692h13.985L35.511 1.37z" fill="#2585FF"/></svg>