<svg width="101" height="12" viewBox="0 0 101 12" fill="none" xmlns="http://www.w3.org/2000/svg">
<rect width="101" height="12" fill="#E5E5E5"/>
<g clip-path="url(#clip0)">
<rect width="1440" height="3581" transform="translate(-670 -3563)" fill="white"/>
<rect x="-567" y="-137" width="1440" height="163" fill="black"/>
<path d="M6.27392 5.184C6.27392 6.512 6.01792 7.48 5.50592 8.088C4.99392 8.696 4.16992 9 3.03392 9H0.00992188V1.272H3.03392C4.16192 1.272 4.98192 1.58 5.49392 2.196C6.01392 2.804 6.27392 3.8 6.27392 5.184ZM5.28992 5.184C5.28992 4.368 5.20992 3.736 5.04992 3.288C4.88992 2.832 4.63392 2.512 4.28192 2.328C3.93792 2.144 3.46192 2.052 2.85392 2.052H0.993922V8.232H2.85392C3.42992 8.232 3.88992 8.148 4.23392 7.98C4.58592 7.812 4.84992 7.508 5.02592 7.068C5.20192 6.628 5.28992 6 5.28992 5.184ZM8.08986 6.612C8.12186 7.052 8.21386 7.396 8.36586 7.644C8.52586 7.884 8.76186 8.06 9.07386 8.172C9.38586 8.276 9.80586 8.328 10.3339 8.328C10.9179 8.328 11.4539 8.228 11.9419 8.028V8.796C11.4539 9.012 10.8539 9.12 10.1419 9.12C9.12586 9.12 8.36586 8.876 7.86186 8.388C7.35786 7.9 7.10586 7.148 7.10586 6.132C7.10586 5.196 7.32986 4.472 7.77786 3.96C8.22586 3.448 8.90986 3.192 9.82986 3.192C10.6379 3.192 11.2499 3.408 11.6659 3.84C12.0899 4.272 12.3019 4.84 12.3019 5.544V6.612H8.08986ZM9.85386 3.984C9.19786 3.984 8.73786 4.14 8.47386 4.452C8.21786 4.756 8.08986 5.24 8.08986 5.904H11.4259V5.436C11.4259 4.964 11.2979 4.604 11.0419 4.356C10.7939 4.108 10.3979 3.984 9.85386 3.984ZM16.8043 7.512C16.8043 7.328 16.7603 7.184 16.6723 7.08C16.5843 6.968 16.4563 6.876 16.2883 6.804C16.1283 6.724 15.8723 6.628 15.5203 6.516L15.1963 6.408C14.7963 6.272 14.4803 6.148 14.2483 6.036C14.0243 5.916 13.8443 5.756 13.7083 5.556C13.5723 5.348 13.5043 5.08 13.5043 4.752C13.5043 4.24 13.6843 3.852 14.0443 3.588C14.4043 3.324 14.9683 3.192 15.7363 3.192C16.3283 3.192 16.8643 3.268 17.3443 3.42V4.284C16.8403 4.116 16.3563 4.032 15.8923 4.032C15.3803 4.032 15.0163 4.084 14.8003 4.188C14.5923 4.292 14.4883 4.476 14.4883 4.74C14.4883 4.924 14.5323 5.068 14.6203 5.172C14.7163 5.276 14.8483 5.364 15.0163 5.436C15.1923 5.5 15.4963 5.6 15.9283 5.736C16.4003 5.88 16.7643 6.024 17.0203 6.168C17.2843 6.312 17.4763 6.488 17.5963 6.696C17.7243 6.904 17.7883 7.172 17.7883 7.5C17.7883 8.58 17.0363 9.12 15.5323 9.12C15.1723 9.12 14.8243 9.096 14.4883 9.048C14.1523 9 13.8723 8.936 13.6483 8.856V7.992C14.1923 8.184 14.7763 8.28 15.4003 8.28C15.9203 8.28 16.2843 8.228 16.4923 8.124C16.7003 8.012 16.8043 7.808 16.8043 7.512ZM20.0087 1.98V1.08H21.1007V1.98H20.0087ZM21.0887 9H20.1047V4.092H19.2287L19.3247 3.312H21.0887V9ZM26.6795 9.66C26.6795 9.452 26.6035 9.304 26.4515 9.216C26.3075 9.128 26.0475 9.084 25.6715 9.084H24.1595C23.6395 9.084 23.2475 8.996 22.9835 8.82C22.7195 8.636 22.5875 8.372 22.5875 8.028C22.5875 7.78 22.6635 7.556 22.8155 7.356C22.9675 7.148 23.1875 7 23.4755 6.912C22.8515 6.608 22.5395 6.048 22.5395 5.232C22.5395 4.528 22.7435 4.012 23.1515 3.684C23.5595 3.356 24.1915 3.192 25.0475 3.192C25.3435 3.192 25.6715 3.232 26.0315 3.312H28.0835L28.0475 3.984H27.0155C27.3595 4.28 27.5315 4.696 27.5315 5.232C27.5315 5.872 27.3435 6.364 26.9675 6.708C26.5995 7.052 26.0395 7.224 25.2875 7.224C25.1195 7.224 24.8875 7.204 24.5915 7.164C24.3275 7.18 24.0915 7.256 23.8835 7.392C23.6755 7.52 23.5715 7.684 23.5715 7.884C23.5715 8.028 23.6275 8.132 23.7395 8.196C23.8515 8.252 24.0475 8.28 24.3275 8.28H25.8995C26.4675 8.28 26.9035 8.396 27.2075 8.628C27.5115 8.86 27.6635 9.192 27.6635 9.624C27.6635 10.16 27.4395 10.54 26.9915 10.764C26.5515 10.996 25.8835 11.112 24.9875 11.112C24.0355 11.112 23.2755 11.012 22.7075 10.812V9.996C23.0195 10.1 23.3715 10.18 23.7635 10.236C24.1635 10.292 24.5555 10.32 24.9395 10.32C25.3795 10.32 25.7195 10.304 25.9595 10.272C26.1995 10.24 26.3795 10.176 26.4995 10.08C26.6195 9.992 26.6795 9.852 26.6795 9.66ZM25.0475 6.48C25.6075 6.48 25.9955 6.388 26.2115 6.204C26.4355 6.02 26.5475 5.696 26.5475 5.232C26.5475 4.768 26.4315 4.432 26.1995 4.224C25.9755 4.016 25.5915 3.912 25.0475 3.912C24.5115 3.912 24.1235 4.016 23.8835 4.224C23.6435 4.424 23.5235 4.76 23.5235 5.232C23.5235 5.68 23.6395 6 23.8715 6.192C24.1035 6.384 24.4955 6.48 25.0475 6.48ZM33.1561 9V5.316C33.1561 4.972 33.1121 4.708 33.0241 4.524C32.9361 4.332 32.7881 4.196 32.5801 4.116C32.3801 4.028 32.0881 3.984 31.7041 3.984C31.3521 3.984 31.0201 4.048 30.7081 4.176C30.3961 4.304 30.1281 4.48 29.9041 4.704V9H28.9201V3.312H29.8081L29.8681 3.96C30.4921 3.448 31.2281 3.192 32.0761 3.192C32.7961 3.192 33.3201 3.36 33.6481 3.696C33.9761 4.032 34.1401 4.56 34.1401 5.28V9H33.1561ZM36.5078 6.612C36.5398 7.052 36.6318 7.396 36.7838 7.644C36.9438 7.884 37.1798 8.06 37.4918 8.172C37.8038 8.276 38.2238 8.328 38.7518 8.328C39.3358 8.328 39.8718 8.228 40.3598 8.028V8.796C39.8718 9.012 39.2718 9.12 38.5598 9.12C37.5438 9.12 36.7838 8.876 36.2798 8.388C35.7758 7.9 35.5238 7.148 35.5238 6.132C35.5238 5.196 35.7478 4.472 36.1958 3.96C36.6438 3.448 37.3278 3.192 38.2478 3.192C39.0558 3.192 39.6678 3.408 40.0838 3.84C40.5078 4.272 40.7198 4.84 40.7198 5.544V6.612H36.5078ZM38.2718 3.984C37.6158 3.984 37.1558 4.14 36.8918 4.452C36.6358 4.756 36.5078 5.24 36.5078 5.904H39.8438V5.436C39.8438 4.964 39.7158 4.604 39.4598 4.356C39.2118 4.108 38.8158 3.984 38.2718 3.984ZM41.9223 6.24C41.9223 5.24 42.1543 4.484 42.6183 3.972C43.0823 3.452 43.7263 3.192 44.5503 3.192C44.9183 3.192 45.2503 3.236 45.5463 3.324C45.8423 3.412 46.1263 3.548 46.3983 3.732V0.912H47.3823V9H46.5423L46.4703 8.4C46.2063 8.648 45.9143 8.832 45.5943 8.952C45.2823 9.064 44.9143 9.12 44.4903 9.12C43.6583 9.12 43.0223 8.892 42.5823 8.436C42.1423 7.972 41.9223 7.24 41.9223 6.24ZM44.7663 3.984C44.1263 3.984 43.6543 4.168 43.3503 4.536C43.0543 4.896 42.9063 5.464 42.9063 6.24C42.9063 6.984 43.0463 7.52 43.3263 7.848C43.6063 8.168 44.0783 8.328 44.7423 8.328C45.4223 8.328 45.9743 8.1 46.3983 7.644V4.548C45.9743 4.172 45.4303 3.984 44.7663 3.984ZM59.0832 6.108C59.0832 7.116 58.8592 7.872 58.4112 8.376C57.9632 8.872 57.3312 9.12 56.5152 9.12C56.0912 9.12 55.7192 9.064 55.3992 8.952C55.0872 8.832 54.7992 8.648 54.5352 8.4L54.4632 9H53.6232V0.912H54.6072V3.732C55.1272 3.372 55.7592 3.192 56.5032 3.192C58.2232 3.192 59.0832 4.164 59.0832 6.108ZM56.2392 3.984C55.5752 3.984 55.0312 4.172 54.6072 4.548V7.644C55.0312 8.1 55.5832 8.328 56.2632 8.328C56.9192 8.328 57.3872 8.148 57.6672 7.788C57.9552 7.428 58.0992 6.868 58.0992 6.108C58.0992 5.348 57.9512 4.804 57.6552 4.476C57.3592 4.148 56.8872 3.984 56.2392 3.984ZM60.6493 3.312L62.6293 7.896L64.6693 3.312H65.6773L63.2893 8.748C63.0573 9.284 62.8413 9.716 62.6413 10.044C62.4413 10.372 62.2013 10.632 61.9213 10.824C61.6493 11.016 61.3213 11.112 60.9373 11.112C60.5613 11.112 60.2333 11.06 59.9533 10.956V10.164C60.1773 10.244 60.4213 10.284 60.6853 10.284C60.9493 10.284 61.1573 10.236 61.3093 10.14C61.4693 10.052 61.6053 9.92 61.7173 9.744C61.8293 9.576 61.9693 9.308 62.1373 8.94L59.6293 3.312H60.6493ZM76.6677 6.984C76.6677 7.672 76.4157 8.2 75.9117 8.568C75.4157 8.936 74.6797 9.12 73.7037 9.12C72.7437 9.12 71.9677 9 71.3757 8.76V7.884C72.0797 8.148 72.8277 8.28 73.6197 8.28C74.3317 8.28 74.8517 8.184 75.1797 7.992C75.5157 7.8 75.6837 7.464 75.6837 6.984C75.6837 6.688 75.6117 6.452 75.4677 6.276C75.3317 6.092 75.1117 5.94 74.8077 5.82C74.5117 5.692 74.0757 5.56 73.4997 5.424C72.6517 5.216 72.0557 4.948 71.7117 4.62C71.3677 4.292 71.1957 3.844 71.1957 3.276C71.1957 2.604 71.4357 2.084 71.9157 1.716C72.4037 1.34 73.1197 1.152 74.0637 1.152C74.4797 1.152 74.8797 1.184 75.2637 1.248C75.6557 1.304 75.9677 1.372 76.1997 1.452V2.316C75.5917 2.1 74.9317 1.992 74.2197 1.992C73.5397 1.992 73.0277 2.092 72.6837 2.292C72.3477 2.492 72.1797 2.82 72.1797 3.276C72.1797 3.54 72.2397 3.752 72.3597 3.912C72.4797 4.072 72.6797 4.212 72.9597 4.332C73.2477 4.444 73.6717 4.568 74.2317 4.704C75.1357 4.92 75.7677 5.212 76.1277 5.58C76.4877 5.94 76.6677 6.408 76.6677 6.984ZM78.8519 3.312V6.948C78.8519 7.42 78.9679 7.768 79.1999 7.992C79.4399 8.216 79.8079 8.328 80.3039 8.328C80.6559 8.328 80.9879 8.264 81.2999 8.136C81.6119 8.008 81.8799 7.832 82.1039 7.608V3.312H83.0879V9H82.1999L82.1399 8.352C81.8519 8.584 81.5159 8.772 81.1319 8.916C80.7559 9.052 80.3559 9.12 79.9319 9.12C79.2519 9.12 78.7359 8.932 78.3839 8.556C78.0399 8.18 77.8679 7.632 77.8679 6.912V3.312H78.8519ZM86.9196 0.719999C87.2956 0.719999 87.6436 0.779999 87.9636 0.9V1.644C87.7156 1.556 87.4516 1.512 87.1716 1.512C86.7716 1.512 86.4956 1.584 86.3436 1.728C86.1996 1.872 86.1276 2.124 86.1276 2.484V3.312H87.6636L87.6156 4.092H86.1276V9H85.1436V4.092H84.2916V3.312H85.1436V2.484C85.1436 1.932 85.2956 1.5 85.5996 1.188C85.9036 0.875999 86.3436 0.719999 86.9196 0.719999ZM89.2921 2.652C89.2921 2.084 89.4881 1.62 89.8801 1.26C90.2801 0.899999 90.7961 0.719999 91.4281 0.719999C91.9641 0.719999 92.3921 0.779999 92.7121 0.9V1.644C92.4641 1.556 92.1201 1.512 91.6801 1.512C90.7441 1.512 90.2761 1.892 90.2761 2.652V3.312H93.4081V9H92.4241V4.092H90.2761V9H89.2921V4.092H88.4401V3.312H89.2921V2.652ZM97.5321 6.78L95.9121 9H94.8441L97.0041 6.108L94.9161 3.312H95.9841L97.5321 5.436L99.0921 3.312H100.148L98.0841 6.108L100.232 9H99.1641L97.5321 6.78Z" fill="white"/>
</g>
<defs>
<clipPath id="clip0">
<rect width="1440" height="3581" fill="white" transform="translate(-670 -3563)"/>
</clipPath>
</defs>
</svg>
