<svg width="154" height="76" viewBox="0 0 154 76" fill="none" xmlns="http://www.w3.org/2000/svg">
<rect width="154" height="76" fill="#E5E5E5"/>
<g clip-path="url(#clip0)">
<rect width="1440" height="3581" transform="translate(-643 -3477)" fill="white"/>
<rect x="-540" y="-51" width="1440" height="163" fill="black"/>
<path fill-rule="evenodd" clip-rule="evenodd" d="M9.0571 30.6929C8.8499 30.9664 8.65032 31.3212 8.47548 31.7622C8.2954 32.2033 8.23203 32.7023 8.26691 33.244C8.30589 33.7941 8.50321 34.3833 8.87861 35.0253C9.24092 35.6588 9.87041 36.3119 10.7548 36.9819C11.2426 37.3514 11.7489 37.6741 12.2784 37.968C12.8134 38.258 13.3406 38.4549 13.8747 38.5721C14.3957 38.6807 14.9023 38.6618 15.3934 38.5134C15.8881 38.3689 16.3331 38.0332 16.7366 37.5005C17.0254 37.1193 17.1858 36.7388 17.2116 36.353C17.2261 35.9547 17.1507 35.5665 16.9691 35.1547C16.7781 34.7398 16.5233 34.3057 16.1884 33.8533C15.8493 33.3977 15.4804 32.9143 15.0707 32.3985L13.3593 30.3297C12.7143 29.5523 12.094 28.7698 11.524 27.9883C10.951 27.2124 10.5389 26.3982 10.28 25.561C10.022 24.7192 9.97846 23.8305 10.1319 22.8938C10.2802 21.969 10.7682 20.956 11.583 19.8805C11.8597 19.5153 12.2139 19.1426 12.6182 18.7641C13.0341 18.3891 13.5057 18.051 14.0468 17.7523C14.5842 17.4548 15.1926 17.2257 15.8645 17.0645C16.5455 16.905 17.2782 16.872 18.0864 16.9704C18.8825 17.0795 19.7458 17.3189 20.6742 17.7084C21.6022 18.0949 22.5886 18.6819 23.6339 19.4739C25.1048 20.5882 26.1672 21.7402 26.8121 22.9175C27.4541 24.0953 27.8126 25.2199 27.91 26.2977C28.0029 27.3747 27.8835 28.3664 27.557 29.2886C27.2267 30.1986 26.834 30.9634 26.3788 31.5642L22.4921 28.6196C22.617 28.3738 22.77 28.046 22.9479 27.6457C23.1235 27.2502 23.1922 26.7924 23.157 26.277C23.1229 25.7584 22.93 25.191 22.5985 24.5823C22.2561 23.9639 21.6429 23.3152 20.7602 22.6465C20.3827 22.3605 19.9564 22.1063 19.4947 21.8798C19.0234 21.6539 18.5595 21.5182 18.0927 21.4467C17.6322 21.384 17.1788 21.4259 16.7529 21.5761C16.3077 21.7156 15.931 22.0077 15.5963 22.4495C15.3049 22.8341 15.1293 23.1951 15.0821 23.5435C15.0274 23.8914 15.0568 24.2249 15.1475 24.5241C15.2504 24.8312 15.388 25.1063 15.5766 25.3658C15.7645 25.6194 15.9404 25.856 16.0916 26.058L19.9281 30.8216C20.4671 31.4855 20.9568 32.1731 21.3926 32.8768C21.823 33.579 22.1229 34.3069 22.2835 35.0617C22.4518 35.8237 22.4424 36.61 22.2581 37.4186C22.0926 38.235 21.6657 39.0812 21.002 39.9572C20.2517 40.9477 19.4631 41.68 18.6375 42.1579C17.8023 42.6312 16.975 42.9355 16.1324 43.0429C15.2945 43.1578 14.4825 43.1386 13.6882 42.9805C12.8971 42.8355 12.162 42.6097 11.4855 42.3289C10.8063 42.0448 10.2127 41.7408 9.6829 41.4163C9.1657 41.0907 8.76682 40.8295 8.47065 40.6051C6.70693 39.2689 5.45363 37.9604 4.71075 36.6797C3.96754 35.3908 3.5415 34.1952 3.4569 33.0728C3.37091 31.9626 3.51781 30.9414 3.89804 30.0241C4.28689 29.1041 4.70796 28.345 5.1638 27.7433L9.0571 30.6929Z" fill="white"/>
<path fill-rule="evenodd" clip-rule="evenodd" d="M55 37.6249C55 38.5694 54.7244 39.3776 54.1792 40.0539C53.6425 40.7307 52.8639 41.2895 51.841 41.7246C50.8277 42.1622 49.5918 42.4853 48.1476 42.6902C46.7035 42.8939 45.0801 43 43.2798 43C42.6215 43 41.8982 42.9747 41.1136 42.9289C40.3326 42.8819 39.5407 42.7896 38.738 42.6619C37.9221 42.5269 37.1194 42.3472 36.3504 42.1297C35.5658 41.9133 34.8605 41.6276 34.2251 41.2666C33.4597 40.8284 32.9002 40.3209 32.5716 39.7459C32.2419 39.1685 32.0469 38.52 32 37.8051V28H38.0809V37.6086C38.0809 38.1101 38.2109 38.5416 38.472 38.8991C38.738 39.2565 39.1026 39.553 39.5672 39.7845C40.0269 40.0159 40.5684 40.1877 41.193 40.3022C41.8188 40.4125 42.4662 40.4716 43.1642 40.4716C45.2221 40.4716 46.7035 40.2353 47.588 39.7628C48.4798 39.2908 48.9275 38.6218 48.9275 37.7467V28H55V37.6249Z" fill="white"/>
<path fill-rule="evenodd" clip-rule="evenodd" d="M55.0956 23.2184L60.0803 20.1577L87.9702 65.5801L71 76L66.1445 68.0921L78.1299 60.7329L71.4228 49.8095L60.9319 56.2511L56.2043 48.5515L66.6952 42.11L55.0956 23.2184Z" fill="white"/>
<path fill-rule="evenodd" clip-rule="evenodd" d="M81.7589 38.5076L77.2401 35.7156L99.0747 0.376465L114.459 9.8817L110.657 16.0341L99.7922 9.3209L94.5413 17.8194L104.053 23.6961L100.351 29.6864L90.8401 23.8098L81.7589 38.5076Z" fill="white"/>
<path fill-rule="evenodd" clip-rule="evenodd" d="M110.396 43.0001H104.395L110.387 17.0001H116.395L110.396 43.0001Z" fill="white"/>
<path fill-rule="evenodd" clip-rule="evenodd" d="M129.768 11.7341L140.813 18.5945L140.278 19.4558L135.866 16.7153L135.585 28.6682L147.128 23.7103L143.217 21.281L143.751 20.4198L152.134 25.6264L151.599 26.4876L148.308 24.4437L135.65 29.9747L135.997 46.1953L139.699 48.4946L139.164 49.3549L127.845 42.3242L128.379 41.4639L131.948 43.6803L131.884 31.6472L120.38 36.4955L124.469 39.0352L123.935 39.8955L115.379 34.5814L115.913 33.721L119.172 35.7453L131.776 30.3537L131.865 14.2302L129.233 12.5953L129.768 11.7341Z" fill="white"/>
</g>
<defs>
<clipPath id="clip0">
<rect width="1440" height="3581" fill="white" transform="translate(-643 -3477)"/>
</clipPath>
</defs>
</svg>
