<svg width="37" height="29" viewBox="0 0 37 29" fill="none" xmlns="http://www.w3.org/2000/svg">
<path d="M11.1999 15.9C12.1332 16.4333 12.8666 17.2 13.3999 18.2C13.9999 19.1333 14.2999 20.2 14.2999 21.4C14.2999 23.4667 13.5999 25.2 12.1999 26.6C10.8666 28 9.23324 28.7 7.2999 28.7C5.4999 28.7 3.96657 28.1 2.6999 26.9C1.4999 25.7 0.899902 24.1667 0.899902 22.3C0.899902 21.3 1.06657 20.3667 1.3999 19.5C1.73324 18.5667 2.33324 17.3333 3.1999 15.8L11.5999 0.799995H17.8999L11.1999 15.9ZM30.0999 15.9C31.0332 16.4333 31.7666 17.2 32.2999 18.2C32.8999 19.1333 33.1999 20.2 33.1999 21.4C33.1999 23.4667 32.4999 25.2 31.0999 26.6C29.7666 28 28.1332 28.7 26.1999 28.7C24.3999 28.7 22.8666 28.1 21.5999 26.9C20.3999 25.7 19.7999 24.1667 19.7999 22.3C19.7999 21.3 19.9666 20.3667 20.2999 19.5C20.6332 18.5667 21.2332 17.3333 22.0999 15.8L30.4999 0.799995H36.7999L30.0999 15.9Z" fill="white"/>
</svg>
