<svg width="16" height="16" viewBox="0 0 16 16" fill="none" xmlns="http://www.w3.org/2000/svg">
<path d="M7.00366 9.49878L9.60596 8L7.00366 6.50122V9.49878Z" fill="white"/>
<path d="M8 0C3.5824 0 0 3.5824 0 8C0 12.4176 3.5824 16 8 16C12.4176 16 16 12.4176 16 8C16 3.5824 12.4176 0 8 0ZM12.9988 8.00818C12.9988 8.00818 12.9988 9.63062 12.793 10.413C12.6776 10.8412 12.34 11.1788 11.9117 11.2941C11.1294 11.5 8 11.5 8 11.5C8 11.5 4.87878 11.5 4.08826 11.2859C3.66003 11.1707 3.32239 10.8329 3.20703 10.4047C3.0011 9.63062 3.0011 8 3.0011 8C3.0011 8 3.0011 6.37769 3.20703 5.59534C3.32227 5.16711 3.66821 4.82117 4.08826 4.70593C4.87061 4.5 8 4.5 8 4.5C8 4.5 11.1294 4.5 11.9117 4.71411C12.34 4.82935 12.6776 5.16711 12.793 5.59534C13.0071 6.37769 12.9988 8.00818 12.9988 8.00818Z" fill="white"/>
</svg>
