<svg width="112" height="42" fill="none" xmlns="http://www.w3.org/2000/svg"><path d="M16.979 18.474l-3.553 9.26-3.575-9.26H8.553l-3.596 9.26-3.51-9.26H0L4.213 29.37h1.425l3.532-8.928 3.532 8.928h1.426l4.234-10.896h-1.383zm14.069 5.448c0-3.273-2.276-5.53-5.425-5.53-3.15 0-5.469 2.299-5.469 5.53 0 3.232 2.384 5.552 5.873 5.552 1.766 0 3.32-.622 4.32-1.782l-.852-.953c-.851.953-2.064 1.43-3.425 1.43-2.447 0-4.235-1.512-4.405-3.791h9.362c0-.166.021-.331.021-.456zm-5.425-4.267c2.191 0 3.787 1.491 3.978 3.625h-7.936c.192-2.134 1.787-3.625 3.958-3.625zm15.223-1.263c-1.787 0-3.319.745-4.255 2.154V14h-1.51v15.37h1.446v-2.154c.915 1.47 2.468 2.258 4.32 2.258 3.191 0 5.574-2.258 5.574-5.552 0-3.293-2.383-5.53-5.575-5.53zm-.106 9.777c-2.383 0-4.17-1.699-4.17-4.247s1.787-4.246 4.17-4.246c2.362 0 4.17 1.698 4.17 4.246 0 2.548-1.808 4.247-4.17 4.247z" fill="#1D153D"/><path d="M62.348 27.03c-1.706 1.153-2.481 1.295-3.553 1.83-3.166 1.578-3.464 3.381-3.992 5.035V9.855c0-1.971-1.64-4.224-5.576-4.224-1.644 0-2.952 0-4.265-.563-1.312-.563-2.624-1.69-4.264-3.379C39.126.07 36.348.003 36.12 0h-.014.014c.443.004 10.562.084 16.387 0 2.952 0 5.249 0 6.233 1.69.328.563.328 2.815.328 4.504v3.66c0 .846-.018 1.956.656 2.535.656.563 1.788.971 2.624 1.69 1.312 1.125.984 2.533.984 4.223v5.068c0 1.274-.17 3.11-.984 3.66z" fill="url(#paint0_linear)"/><path d="M63.368 0h16.21s-2.32.281-3.316 1.406c-.885 1.001-1.887 2.661-2.652 3.375-2.102 1.96-4.31 1.96-6.3 1.96-2.321 0-3.902-.14-3.942 1.405-.037 1.406 0 .29 0 1.134-.065 1.505-.038 3.98-.017 4.997.01.109.017.224.017.346 0 .247-.008.075-.017-.346-.266-2.632-3.63-1.215-3.63-4.997v-4.5c0-2.811-.664-4.78 3.647-4.78z" fill="url(#paint1_linear)"/><mask id="a" maskUnits="userSpaceOnUse" x="59" y="0" width="26" height="16"><path d="M63.762.152H84.86s-2.498.285-3.569 1.424c-.952 1.013-1.49 2.4-2.855 3.416-1.365 1.015-5.586 2.231-10.638 2.231-3.431 0-3.992 2.842-4.035 4.406a57.571 57.571 0 00-.029 3.59c.02.138.03.286.03.443 0 .344-.017.106-.03-.443-.355-2.61-3.897-1.888-3.897-5.673V4.992c0-2.847-.713-4.84 3.926-4.84z" fill="url(#paint2_linear)"/></mask><g mask="url(#a)"><g filter="url(#filter0_di)"><path d="M61.582-.702c3.569-.284.357-.284 6.424 0-2.142 1.139-1.76 1.87-3.926 3.416-2.313 1.652 6.781 13.38 0 13.664-4.64.195-5.33-2.9-6.044-1.191 0-1.139-.238-6.263-.357-8.255-.356-5.978.958-7.399 3.903-7.634z" fill="url(#paint3_linear)"/></g><g filter="url(#filter1_di)"><path d="M68.47-.978c3.79-.302 7.555-.302 13.998 0-2.274 1.21-4.144.474-6.443 2.116-2.456 1.754-1.87 2.59-9.07 2.892-4.928.207-2.654 9.372-3.412 11.186 0-1.21-.253-6.65-.379-8.767C62.785.1 65.344-.73 68.47-.978z" fill="url(#paint4_linear)"/></g><g filter="url(#filter2_di)"><path d="M64.46-1.77c3.569-.285 7.47-.73 13.537-.446C75.856-1.077 67.672-.825 65.507.72c-2.313 1.652-1.785 1.993-1.785 4.056 0 3.23.714 8.754 0 10.462.246-5.124 0-5.764-3.569-8.54-5.371-4.178 1.362-8.234 4.307-8.469z" fill="url(#paint5_linear)"/></g><g filter="url(#filter3_i)"><path d="M73.898 3.574c2.403-1.97 3.214-5.546 12.145-4.404-2.287 1.253-.778 3.762-4.96 5.709-2.582 2.752-12.28 5.224-15.992 5.627-5.171-9.89 6.405-4.963 8.807-6.932z" fill="url(#paint6_linear)"/></g><g filter="url(#filter4_di)"><path d="M73.742 2.484C76.395.67 78.4-1.33 84.842-1.026c-2.274 1.209-4.667.345-6.443 2.116-2.121 2.114-4.329 4.534-10.992 4.232-4.169.302-2.498 4.025-2.876 4.025-2.936-7.913 6.558-5.05 9.211-6.863z" fill="url(#paint7_linear)"/></g></g><mask id="b" maskUnits="userSpaceOnUse" x="30" y="0" width="33" height="35"><path d="M58.09 29.32c1.32-.531 2.55-1.064 3.857-1.992.805-.572.988-2.413.988-3.701v-5.124c0-1.708.33-3.131-.988-4.27-.84-.726-1.976-1.139-2.634-1.708-.677-.585-.659-1.708-.659-2.562v-3.7c0-1.708 0-3.986-.33-4.555C57.338 0 55.032 0 52.069 0 46.088.087 30.99 0 30.99 0s2.964 0 4.61 1.708c1.648 1.708 2.707 2.277 4.282 3.416 1.575 1.139 7.263 1.795 8.913 1.795 4.398 0 5.578 2.34 5.578 4.333V34.34c.638-3.117 2.398-4.334 3.717-5.018z" fill="url(#paint8_linear)"/></mask><g mask="url(#b)"><g filter="url(#filter5_di)"><path d="M55.032 2.573c-3.293-.285-.33-.285-5.928 0 1.976 1.139 1.624 1.87 3.623 3.416 2.134 1.651.323.88 1.303 5.113.377 1.63-.28 3.822 1.002 5.124 1.2 1.22 2.963 2.277 4.94 3.7 1.975 1.424 3.293 5.694 1.975 7.686 6.258-7.686-3.424-15.413-3.314-17.406.33-5.978-.884-7.398-3.601-7.633z" fill="url(#paint9_linear)"/></g><g filter="url(#filter6_di)"><path d="M60.986 34.148c-1.146 0 .33.285 5.928 0-1.976-1.138-1.624-1.87-3.622-3.416-2.135-1.651.622 1.113-.357-3.12-.377-1.63.83-3.416-.33-5.409-1.646-2.277-3.351-2.562-5.269-4.27-1.917-1.707-3.622-2.277-3.293-6.262-3.892 6.274.081 8.695 3.293 11.035 2.91 2.12 5.028 4.314 3.15 6.614.765 5.948 1.647 4.828.5 4.828z" fill="url(#paint10_linear)"/></g><g filter="url(#filter7_di)"><path d="M56.683 36.06c-1.147 0-.41 9.283 5.19 8.998-1.976-1.139.569-10.868-1.43-12.414-2.133-1.652 2.41 1.745 1.43-2.488-.378-1.63-.777.396-1.936-1.596 4.926-1.217-3.531-7.007-5.448-8.715-1.918-1.708-3.623-2.278-3.294-6.263-3.892 6.274-1.858 7.316 1.354 9.656 2.909 2.119 6.509 4.181 5.59 6.918.764 5.948-.31 5.904-1.456 5.904z" fill="url(#paint11_linear)"/></g><g filter="url(#filter8_di)"><path d="M53.014 43.359c-1.146 0-.409 9.283 5.19 8.998-1.976-1.138.57-10.868-1.429-12.414-2.134-1.652-.52-.003-1.5-4.236-.377-1.63 3.71-3.482 2.551-5.474 2.2-2.813-2.55-4.399-3.356-6.463-1.157-2.965-7.273 1.097-6.943-2.889-3.892 6.274-1.859 7.316 1.353 9.656 2.909 2.119 6.51 4.181 5.59 6.919.765 5.948-.31 5.903-1.456 5.903z" fill="url(#paint12_linear)"/></g><g filter="url(#filter9_di)"><path d="M55.375-.273c-3.293-.285-.33-.285-5.928 0 1.976 1.138 1.625 1.87 3.623 3.416 2.134 1.651.323.88 1.303 5.113.377 1.63.364 3.252 1.647 4.554 1.2 1.22 3.679 2.16 4.61 2.562 2.75 1.19 1.426 6.175 2.305 7.97 2.965-8.54-4.069-13.99-3.959-15.982.33-5.978-.884-7.399-3.6-7.633z" fill="url(#paint13_linear)"/></g><g filter="url(#filter10_di)"><path d="M52.026-.625c-3.41-.387-7.145-.948-12.914-.812 2.083 1.232 9.89 1.704 12.01 3.357 2.266 1.765 1.775 2.103 1.853 4.234.12 3.334-.352 9.02.392 10.801-.426-5.296-.216-5.95 3.08-8.725 4.96-4.175-1.607-8.537-4.42-8.855z" fill="url(#paint14_linear)"/></g><g filter="url(#filter11_di)"><path d="M48.575.02c-4.156-.325-8.28-.342-15.339-.063 2.501 1.243 4.544.501 7.077 2.186 2.704 1.799 2.068 2.649 9.961 2.99 5.401.232 2.98 9.564 3.824 11.417-.01-1.233.226-6.779.348-8.935.367-6.47-2.443-7.327-5.871-7.595z" fill="url(#paint15_linear)"/></g><g filter="url(#filter12_i)"><path d="M42.643 4.755C39.708 2.87 38.345-.183 31.438-.06c2.5 1.272 2.422 2.276 6.83 4.31 3.455 2.563 11.48 4.611 14.765 5.3-.368-7.855-7.455-2.908-10.39-4.795z" fill="url(#paint16_linear)"/></g><g filter="url(#filter13_di)"><path d="M42.28 3.144c-3.034-1.93-4.953-4.367-12.308-4.056 2.6 1.288 5.33.374 7.362 2.258 2.427 2.249 2.801 4.498 12.56 4.512 3.913.905 2.533 3.993 3.037 3.536 2.143-7.702-7.617-4.32-10.651-6.25z" fill="url(#paint17_linear)"/></g></g><path d="M59.425 29.57c.963-.482 2.254-.955 3.207-2.307v5.488c0 2.233-.173 2.387-.347 2.864-.202.557-1.04 2.386-3.294 3.023-1.572.444-3.38 1.034-3.727 2.625v-4.455c0-1.75.26-3.182 1.213-4.932.52-.953 1.04-1.352 2.948-2.306z" fill="#E08F6C"/><mask id="c" maskUnits="userSpaceOnUse" x="55" y="27" width="8" height="15"><path d="M59.267 29.928c.976-.46 2.287-.912 3.254-2.204v8.286c0 1.141-1.583 2.206-3.694 2.586-1.634.294-3.463.988-3.815 2.509v-4.258c0-1.673.296-3.041 1.264-4.714.527-.91 1.055-1.292 2.99-2.205z" fill="#C4C4C4"/></mask><g mask="url(#c)"><g filter="url(#filter14_di)"><path d="M55.428 47.491s.288-3.193 2.048-5.702c-4.398-.608 1.935-3.497 3.254-6.234 1.38-2.864 2.298-7.375 1.583-8.363-1.646-2.278-4.968 3.332-6.885 1.624-1.917-1.708-3.623-2.277-3.293-6.262-3.892 6.274-1.39 10.433 1.822 12.773 2.909 2.119 2.2 2.052.264 4.865-1.495 4.486 1.207 7.3 1.207 7.3z" fill="url(#paint18_linear)"/></g><g filter="url(#filter15_di)"><path d="M55.545 41.104s-2.682-3.953 0-3.953c1.49-2.661 4.13-2.955 4.833-4.638.53-1.267 1.672-3.421.88-5.93-1.647-2.277-3.796-2.445-5.713-4.153-1.917-1.708-3.622-2.278-3.293-6.263-3.892 6.274 1.308 7.544 4.52 9.884 2.909 2.119 1.583 4.638-.352 7.45-1.495 4.486-.875 7.603-.875 7.603z" fill="url(#paint19_linear)"/></g><g filter="url(#filter16_di)"><path d="M53.317 44.754s1.783-.837 3.543-3.345c-4.398-.609 2.11-4.486 2.11-6.387 0-1.52-.12-4.79-.615-5.474-1.647-2.277-3.121-1.761-5.038-3.469-1.917-1.708-3.623-2.277-3.294-6.263-3.892 6.274-1.389 10.433 1.823 12.773 2.909 2.12 2.199 2.053.264 4.866-1.495 4.486 1.207 7.299 1.207 7.299z" fill="url(#paint20_linear)"/></g></g><path d="M80.152 18.503v5.702c0 2.48-1.468 3.946-3.807 3.946-2.127 0-3.36-1.177-3.36-3.491v-6.157h-1.51v6.302c0 3.12 1.871 4.669 4.721 4.669 1.786 0 3.233-.765 4.02-2.087v1.983h1.446V18.503h-1.51zm12.395-.083c-1.935 0-3.445.765-4.253 2.087v-2.004h-1.446V29.37h1.51v-5.702c0-2.479 1.51-3.925 3.913-3.925 2.127 0 3.36 1.178 3.36 3.47v6.157h1.51v-6.3c0-3.12-1.871-4.65-4.594-4.65zm19.454 5.517c0-3.264-2.276-5.516-5.423-5.516-3.148 0-5.466 2.293-5.466 5.516s2.382 5.537 5.87 5.537c1.765 0 3.317-.62 4.317-1.777l-.851-.95c-.85.95-2.063 1.425-3.424 1.425-2.445 0-4.232-1.508-4.402-3.78h9.358c0-.166.021-.331.021-.455zm-5.423-4.256c2.19 0 3.785 1.488 3.977 3.615h-7.933c.191-2.127 1.786-3.615 3.956-3.615zM4.422 39.764h1.397c1.12 0 1.876-.758 1.876-1.816 0-1.059-.756-1.817-1.876-1.817H4.422v3.633zm.257-.239V36.37H5.8c.998 0 1.639.654 1.639 1.578 0 .923-.64 1.577-1.64 1.577H4.68zm7.037.239h.257V36.13h-.257v3.633zm7.136-.55c-.287.238-.63.332-1.003.332-.918 0-1.6-.69-1.6-1.598 0-.914.682-1.599 1.6-1.599.428 0 .796.12 1.104.431l.162-.176c-.313-.332-.762-.498-1.271-.498-1.07 0-1.852.783-1.852 1.842 0 1.058.782 1.842 1.846 1.842.485 0 .944-.156 1.261-.467v-1.36h-.247v1.25zm4.506.55h.258V36.13h-.258v3.633zm5.291 0h.257V36.37h1.271v-.239h-2.8v.24h1.272v3.393zm7.753 0h.278l-1.624-3.633h-.258l-1.623 3.633h.277l.449-1.023h2.047l.454 1.023zm-2.4-1.246l.923-2.096.928 2.096h-1.851zm6.446 1.246h2.29v-.239h-2.033v-3.394h-.257v3.633zm34.964.006h.275l-1.61-2.907h-.256l-1.61 2.906h.275l.445-.817h2.03l.45.817zm-2.38-.997l.914-1.677.92 1.677h-1.835zm8.843.557c-.285.19-.625.265-.995.265-.91 0-1.585-.552-1.585-1.279 0-.73.675-1.278 1.585-1.278.425 0 .79.095 1.095.344l.16-.14c-.31-.266-.755-.4-1.26-.4-1.06 0-1.836.628-1.836 1.474 0 .847.776 1.474 1.83 1.474.481 0 .936-.124 1.251-.373v-1.088h-.245v1zm4.724.248v-1.191h1.865V38.2H86.6v-1.146h2.085v-.19h-2.34v2.905h2.415v-.19H86.6zm8.787-2.714v2.524l-2.38-2.524h-.216v2.905h.255v-2.524l2.386 2.524h.21v-2.905h-.255zm6.059 2.926c.495 0 .94-.137 1.245-.407l-.16-.137c-.3.245-.665.349-1.075.349-.895 0-1.57-.548-1.57-1.279 0-.73.675-1.278 1.57-1.278.41 0 .775.1 1.075.344l.16-.137c-.305-.27-.75-.402-1.245-.402-1.041 0-1.816.627-1.816 1.473 0 .847.775 1.474 1.816 1.474zm7.608-2.926h-.265l-1.265 1.71-1.266-1.71h-.28l1.411 1.905v1h.255v-1l1.41-1.905z" fill="#1D153D"/><defs><linearGradient id="paint0_linear" x1="49.896" y1="0" x2="49.896" y2="39.982" gradientUnits="userSpaceOnUse"><stop stop-color="#A073FF"/><stop offset="1" stop-color="#7287DC"/></linearGradient><linearGradient id="paint1_linear" x1="67.826" y1="0" x2="67.826" y2="11.614" gradientUnits="userSpaceOnUse"><stop stop-color="#8F69E0"/><stop offset="1" stop-color="#E8D20E"/></linearGradient><linearGradient id="paint2_linear" x1="68.56" y1=".152" x2="68.56" y2="11.909" gradientUnits="userSpaceOnUse"><stop stop-color="#8F69E0"/><stop offset="1" stop-color="#E8D20E"/></linearGradient><linearGradient id="paint3_linear" x1="57.58" y1="8.987" x2="69.237" y2="-5.627" gradientUnits="userSpaceOnUse"><stop stop-color="#A34CEE"/><stop offset=".202" stop-color="#783BCB"/><stop offset=".631" stop-color="#492CD0"/><stop offset=".881" stop-color="#2B139C"/></linearGradient><linearGradient id="paint4_linear" x1="63.059" y1="8.632" x2="75.438" y2="-6.888" gradientUnits="userSpaceOnUse"><stop stop-color="#A34CEE"/><stop offset=".202" stop-color="#783BCB"/><stop offset=".631" stop-color="#492CD0"/><stop offset=".881" stop-color="#2B139C"/></linearGradient><linearGradient id="paint5_linear" x1="59.797" y1="8.407" x2="71.154" y2="-7.255" gradientUnits="userSpaceOnUse"><stop stop-color="#A34CEE"/><stop offset=".152" stop-color="#783BCB"/><stop offset=".457" stop-color="#492CD0"/><stop offset=".649" stop-color="#2B139C"/></linearGradient><linearGradient id="paint6_linear" x1="67.852" y1="11.007" x2="77.526" y2="-5.206" gradientUnits="userSpaceOnUse"><stop stop-color="#5E2DD2"/><stop offset="1" stop-color="#2B1CA2"/></linearGradient><linearGradient id="paint7_linear" x1="65.433" y1="8.584" x2="77.812" y2="-6.936" gradientUnits="userSpaceOnUse"><stop stop-color="#4122A1"/><stop offset=".82" stop-color="#4C2BB7"/><stop offset="1" stop-color="#4E31EA"/></linearGradient><linearGradient id="paint8_linear" x1="49.446" y1="0" x2="49.446" y2="40.422" gradientUnits="userSpaceOnUse"><stop stop-color="#A073FF"/><stop offset="1" stop-color="#7287DC"/></linearGradient><linearGradient id="paint9_linear" x1="68.863" y1="31.882" x2="49.479" y2="-2.295" gradientUnits="userSpaceOnUse"><stop offset=".105" stop-color="#EDA362"/><stop offset=".284" stop-color="#D74F7C"/><stop offset=".512" stop-color="#A04AEA"/><stop offset=".792" stop-color="#492CD0"/><stop offset="1" stop-color="#2B139C"/></linearGradient><linearGradient id="paint10_linear" x1="47.155" y1="4.839" x2="66.539" y2="39.016" gradientUnits="userSpaceOnUse"><stop offset=".184" stop-color="#EDA362"/><stop offset=".295" stop-color="#8D43DB"/><stop offset=".625" stop-color="#D9636B"/><stop offset=".837" stop-color="#F1C671"/><stop offset="1" stop-color="#2B139C"/></linearGradient><linearGradient id="paint11_linear" x1="44.307" y1="6.75" x2="63.692" y2="40.927" gradientUnits="userSpaceOnUse"><stop offset=".184" stop-color="#EDA362"/><stop offset=".295" stop-color="#8D43DB"/><stop offset=".625" stop-color="#D9636B"/><stop offset=".837" stop-color="#F1C671"/><stop offset="1" stop-color="#2B139C"/></linearGradient><linearGradient id="paint12_linear" x1="40.639" y1="14.049" x2="60.023" y2="48.227" gradientUnits="userSpaceOnUse"><stop offset=".184" stop-color="#EDA362"/><stop offset=".295" stop-color="#8D43DB"/><stop offset=".412" stop-color="#D9636B"/><stop offset=".704" stop-color="#F1C671"/><stop offset="1" stop-color="#2B139C"/></linearGradient><linearGradient id="paint13_linear" x1="59.068" y1="9.416" x2="47.238" y2="-4.27" gradientUnits="userSpaceOnUse"><stop stop-color="#A34CEE"/><stop offset=".202" stop-color="#783BCB"/><stop offset=".631" stop-color="#492CD0"/><stop offset=".881" stop-color="#2B139C"/></linearGradient><linearGradient id="paint14_linear" x1="56.851" y1="10.003" x2="44.541" y2="-5.758" gradientUnits="userSpaceOnUse"><stop stop-color="#A34CEE"/><stop offset=".152" stop-color="#783BCB"/><stop offset=".457" stop-color="#492CD0"/><stop offset=".649" stop-color="#2B139C"/></linearGradient><linearGradient id="paint15_linear" x1="54.578" y1="9.841" x2="42.122" y2="-6.947" gradientUnits="userSpaceOnUse"><stop stop-color="#A34CEE"/><stop offset=".202" stop-color="#783BCB"/><stop offset=".631" stop-color="#492CD0"/><stop offset=".881" stop-color="#2B139C"/></linearGradient><linearGradient id="paint16_linear" x1="52.193" y1="10.798" x2="39.627" y2="-6.137" gradientUnits="userSpaceOnUse"><stop stop-color="#5E2DD2"/><stop offset="1" stop-color="#2B1CA2"/></linearGradient><linearGradient id="paint17_linear" x1="52.157" y1="9.325" x2="39.226" y2="-8.1" gradientUnits="userSpaceOnUse"><stop stop-color="#4122A1"/><stop offset=".82" stop-color="#4C2BB7"/><stop offset="1" stop-color="#4E31EA"/></linearGradient><linearGradient id="paint18_linear" x1="55.277" y1="9.781" x2="57.118" y2="51.852" gradientUnits="userSpaceOnUse"><stop offset=".184" stop-color="#EDA362"/><stop offset=".295" stop-color="#8D43DB"/><stop offset=".411" stop-color="#D9636B"/><stop offset=".766" stop-color="#FFD177"/><stop offset="1" stop-color="#2B139C"/></linearGradient><linearGradient id="paint19_linear" x1="45.364" y1="9.335" x2="64.748" y2="43.512" gradientUnits="userSpaceOnUse"><stop offset=".184" stop-color="#EDA362"/><stop offset=".295" stop-color="#8D43DB"/><stop offset=".625" stop-color="#D9636B"/><stop offset=".837" stop-color="#F1C671"/><stop offset="1" stop-color="#2B139C"/></linearGradient><linearGradient id="paint20_linear" x1="43.136" y1="12.985" x2="62.52" y2="47.162" gradientUnits="userSpaceOnUse"><stop offset=".184" stop-color="#EDA362"/><stop offset=".295" stop-color="#8D43DB"/><stop offset=".361" stop-color="#D9636B"/><stop offset=".889" stop-color="#F1C671"/><stop offset="1" stop-color="#2B139C"/></linearGradient><filter id="filter0_di" x="55.623" y="-3.915" width="14.383" height="21.302" filterUnits="userSpaceOnUse" color-interpolation-filters="sRGB"><feFlood flood-opacity="0" result="BackgroundImageFix"/><feColorMatrix in="SourceAlpha" values="0 0 0 0 0 0 0 0 0 0 0 0 0 0 0 0 0 0 127 0"/><feOffset dy="-1"/><feGaussianBlur stdDeviation="1"/><feColorMatrix values="0 0 0 0 0.203922 0 0 0 0 0.109804 0 0 0 0 0.560784 0 0 0 0.64 0"/><feBlend in2="BackgroundImageFix" result="effect1_dropShadow"/><feBlend in="SourceGraphic" in2="effect1_dropShadow" result="shape"/><feColorMatrix in="SourceAlpha" values="0 0 0 0 0 0 0 0 0 0 0 0 0 0 0 0 0 0 127 0" result="hardAlpha"/><feOffset dx="48" dy="2"/><feGaussianBlur stdDeviation="2"/><feComposite in2="hardAlpha" operator="arithmetic" k2="-1" k3="1"/><feColorMatrix values="0 0 0 0 0 0 0 0 0 0 0 0 0 0 0 0 0 0 0.02 0"/><feBlend in2="shape" result="effect2_innerShadow"/></filter><filter id="filter1_di" x="61.127" y="-4.205" width="23.341" height="20.421" filterUnits="userSpaceOnUse" color-interpolation-filters="sRGB"><feFlood flood-opacity="0" result="BackgroundImageFix"/><feColorMatrix in="SourceAlpha" values="0 0 0 0 0 0 0 0 0 0 0 0 0 0 0 0 0 0 127 0"/><feOffset dy="-1"/><feGaussianBlur stdDeviation="1"/><feColorMatrix values="0 0 0 0 0.203922 0 0 0 0 0.109804 0 0 0 0 0.560784 0 0 0 0.64 0"/><feBlend in2="BackgroundImageFix" result="effect1_dropShadow"/><feBlend in="SourceGraphic" in2="effect1_dropShadow" result="shape"/><feColorMatrix in="SourceAlpha" values="0 0 0 0 0 0 0 0 0 0 0 0 0 0 0 0 0 0 127 0" result="hardAlpha"/><feOffset dx="48" dy="2"/><feGaussianBlur stdDeviation="2"/><feComposite in2="hardAlpha" operator="arithmetic" k2="-1" k3="1"/><feColorMatrix values="0 0 0 0 0 0 0 0 0 0 0 0 0 0 0 0 0 0 0.02 0"/><feBlend in2="shape" result="effect2_innerShadow"/></filter><filter id="filter2_di" x="56.137" y="-5.308" width="23.86" height="21.547" filterUnits="userSpaceOnUse" color-interpolation-filters="sRGB"><feFlood flood-opacity="0" result="BackgroundImageFix"/><feColorMatrix in="SourceAlpha" values="0 0 0 0 0 0 0 0 0 0 0 0 0 0 0 0 0 0 127 0"/><feOffset dy="-1"/><feGaussianBlur stdDeviation="1"/><feColorMatrix values="0 0 0 0 0.203922 0 0 0 0 0.109804 0 0 0 0 0.560784 0 0 0 0.64 0"/><feBlend in2="BackgroundImageFix" result="effect1_dropShadow"/><feBlend in="SourceGraphic" in2="effect1_dropShadow" result="shape"/><feColorMatrix in="SourceAlpha" values="0 0 0 0 0 0 0 0 0 0 0 0 0 0 0 0 0 0 127 0" result="hardAlpha"/><feOffset dx="48" dy="2"/><feGaussianBlur stdDeviation="2"/><feComposite in2="hardAlpha" operator="arithmetic" k2="-1" k3="1"/><feColorMatrix values="0 0 0 0 0 0 0 0 0 0 0 0 0 0 0 0 0 0 0.02 0"/><feBlend in2="shape" result="effect2_innerShadow"/></filter><filter id="filter3_i" x="63.775" y="-1.05" width="22.268" height="11.556" filterUnits="userSpaceOnUse" color-interpolation-filters="sRGB"><feFlood flood-opacity="0" result="BackgroundImageFix"/><feBlend in="SourceGraphic" in2="BackgroundImageFix" result="shape"/><feColorMatrix in="SourceAlpha" values="0 0 0 0 0 0 0 0 0 0 0 0 0 0 0 0 0 0 127 0" result="hardAlpha"/><feOffset/><feGaussianBlur stdDeviation="2.5"/><feComposite in2="hardAlpha" operator="arithmetic" k2="-1" k3="1"/><feColorMatrix values="0 0 0 0 0 0 0 0 0 0 0 0 0 0 0 0 0 0 0.15 0"/><feBlend in2="shape" result="effect1_innerShadow"/></filter><filter id="filter4_di" x="59.973" y="-4.057" width="28.869" height="18.404" filterUnits="userSpaceOnUse" color-interpolation-filters="sRGB"><feFlood flood-opacity="0" result="BackgroundImageFix"/><feColorMatrix in="SourceAlpha" values="0 0 0 0 0 0 0 0 0 0 0 0 0 0 0 0 0 0 127 0"/><feOffset dy="1"/><feGaussianBlur stdDeviation="2"/><feColorMatrix values="0 0 0 0 0 0 0 0 0 0 0 0 0 0 0 0 0 0 0.4 0"/><feBlend in2="BackgroundImageFix" result="effect1_dropShadow"/><feBlend in="SourceGraphic" in2="effect1_dropShadow" result="shape"/><feColorMatrix in="SourceAlpha" values="0 0 0 0 0 0 0 0 0 0 0 0 0 0 0 0 0 0 127 0" result="hardAlpha"/><feOffset/><feGaussianBlur stdDeviation="2"/><feComposite in2="hardAlpha" operator="arithmetic" k2="-1" k3="1"/><feColorMatrix values="0 0 0 0 0 0 0 0 0 0 0 0 0 0 0 0 0 0 0.02 0"/><feBlend in2="shape" result="effect2_innerShadow"/></filter><filter id="filter5_di" x="17.104" y="-30.641" width="89.951" height="89.253" filterUnits="userSpaceOnUse" color-interpolation-filters="sRGB"><feFlood flood-opacity="0" result="BackgroundImageFix"/><feColorMatrix in="SourceAlpha" values="0 0 0 0 0 0 0 0 0 0 0 0 0 0 0 0 0 0 127 0"/><feOffset dy="-1"/><feGaussianBlur stdDeviation="16"/><feColorMatrix values="0 0 0 0 0.203922 0 0 0 0 0.109804 0 0 0 0 0.560784 0 0 0 0.64 0"/><feBlend in2="BackgroundImageFix" result="effect1_dropShadow"/><feBlend in="SourceGraphic" in2="effect1_dropShadow" result="shape"/><feColorMatrix in="SourceAlpha" values="0 0 0 0 0 0 0 0 0 0 0 0 0 0 0 0 0 0 127 0" result="hardAlpha"/><feOffset dx="48" dy="2"/><feGaussianBlur stdDeviation="21.5"/><feComposite in2="hardAlpha" operator="arithmetic" k2="-1" k3="1"/><feColorMatrix values="0 0 0 0 0 0 0 0 0 0 0 0 0 0 0 0 0 0 0.02 0"/><feBlend in2="shape" result="effect2_innerShadow"/></filter><filter id="filter6_di" x="19.43" y="-22.329" width="80.484" height="88.604" filterUnits="userSpaceOnUse" color-interpolation-filters="sRGB"><feFlood flood-opacity="0" result="BackgroundImageFix"/><feColorMatrix in="SourceAlpha" values="0 0 0 0 0 0 0 0 0 0 0 0 0 0 0 0 0 0 127 0"/><feOffset dy="-1"/><feGaussianBlur stdDeviation="16.5"/><feColorMatrix values="0 0 0 0 0.195833 0 0 0 0 0.100871 0 0 0 0 0.0938368 0 0 0 0.26 0"/><feBlend in2="BackgroundImageFix" result="effect1_dropShadow"/><feBlend in="SourceGraphic" in2="effect1_dropShadow" result="shape"/><feColorMatrix in="SourceAlpha" values="0 0 0 0 0 0 0 0 0 0 0 0 0 0 0 0 0 0 127 0" result="hardAlpha"/><feOffset dx="48" dy="2"/><feGaussianBlur stdDeviation="9"/><feComposite in2="hardAlpha" operator="arithmetic" k2="-1" k3="1"/><feColorMatrix values="0 0 0 0 0 0 0 0 0 0 0 0 0 0 0 0 0 0 0.02 0"/><feBlend in2="shape" result="effect2_innerShadow"/></filter><filter id="filter7_di" x="23.064" y="-13.418" width="64.949" height="83.482" filterUnits="userSpaceOnUse" color-interpolation-filters="sRGB"><feFlood flood-opacity="0" result="BackgroundImageFix"/><feColorMatrix in="SourceAlpha" values="0 0 0 0 0 0 0 0 0 0 0 0 0 0 0 0 0 0 127 0"/><feOffset dy="-1"/><feGaussianBlur stdDeviation="13"/><feColorMatrix values="0 0 0 0 0.195833 0 0 0 0 0.100871 0 0 0 0 0.0938368 0 0 0 0.26 0"/><feBlend in2="BackgroundImageFix" result="effect1_dropShadow"/><feBlend in="SourceGraphic" in2="effect1_dropShadow" result="shape"/><feColorMatrix in="SourceAlpha" values="0 0 0 0 0 0 0 0 0 0 0 0 0 0 0 0 0 0 127 0" result="hardAlpha"/><feOffset dx="48" dy="2"/><feGaussianBlur stdDeviation="2"/><feComposite in2="hardAlpha" operator="arithmetic" k2="-1" k3="1"/><feColorMatrix values="0 0 0 0 0 0 0 0 0 0 0 0 0 0 0 0 0 0 0.02 0"/><feBlend in2="shape" result="effect2_innerShadow"/></filter><filter id="filter8_di" x="17.395" y="-8.119" width="69.007" height="87.482" filterUnits="userSpaceOnUse" color-interpolation-filters="sRGB"><feFlood flood-opacity="0" result="BackgroundImageFix"/><feColorMatrix in="SourceAlpha" values="0 0 0 0 0 0 0 0 0 0 0 0 0 0 0 0 0 0 127 0"/><feOffset dy="-1"/><feGaussianBlur stdDeviation="14"/><feColorMatrix values="0 0 0 0 0.195833 0 0 0 0 0.100871 0 0 0 0 0.0938368 0 0 0 0.26 0"/><feBlend in2="BackgroundImageFix" result="effect1_dropShadow"/><feBlend in="SourceGraphic" in2="effect1_dropShadow" result="shape"/><feColorMatrix in="SourceAlpha" values="0 0 0 0 0 0 0 0 0 0 0 0 0 0 0 0 0 0 127 0" result="hardAlpha"/><feOffset dx="48" dy="2"/><feGaussianBlur stdDeviation="2"/><feComposite in2="hardAlpha" operator="arithmetic" k2="-1" k3="1"/><feColorMatrix values="0 0 0 0 0 0 0 0 0 0 0 0 0 0 0 0 0 0 0.02 0"/><feBlend in2="shape" result="effect2_innerShadow"/></filter><filter id="filter9_di" x="26.447" y="-24.487" width="60.218" height="69.83" filterUnits="userSpaceOnUse" color-interpolation-filters="sRGB"><feFlood flood-opacity="0" result="BackgroundImageFix"/><feColorMatrix in="SourceAlpha" values="0 0 0 0 0 0 0 0 0 0 0 0 0 0 0 0 0 0 127 0"/><feOffset dy="-1"/><feGaussianBlur stdDeviation="11.5"/><feColorMatrix values="0 0 0 0 0.203922 0 0 0 0 0.109804 0 0 0 0 0.560784 0 0 0 0.57 0"/><feBlend in2="BackgroundImageFix" result="effect1_dropShadow"/><feBlend in="SourceGraphic" in2="effect1_dropShadow" result="shape"/><feColorMatrix in="SourceAlpha" values="0 0 0 0 0 0 0 0 0 0 0 0 0 0 0 0 0 0 127 0" result="hardAlpha"/><feOffset dx="48" dy="2"/><feGaussianBlur stdDeviation="2"/><feComposite in2="hardAlpha" operator="arithmetic" k2="-1" k3="1"/><feColorMatrix values="0 0 0 0 0 0 0 0 0 0 0 0 0 0 0 0 0 0 0.02 0"/><feBlend in2="shape" result="effect2_innerShadow"/></filter><filter id="filter10_di" x="27.111" y="-14.457" width="43.136" height="42.413" filterUnits="userSpaceOnUse" color-interpolation-filters="sRGB"><feFlood flood-opacity="0" result="BackgroundImageFix"/><feColorMatrix in="SourceAlpha" values="0 0 0 0 0 0 0 0 0 0 0 0 0 0 0 0 0 0 127 0"/><feOffset dy="-1"/><feGaussianBlur stdDeviation="6"/><feColorMatrix values="0 0 0 0 0.203922 0 0 0 0 0.109804 0 0 0 0 0.560784 0 0 0 0.64 0"/><feBlend in2="BackgroundImageFix" result="effect1_dropShadow"/><feBlend in="SourceGraphic" in2="effect1_dropShadow" result="shape"/><feColorMatrix in="SourceAlpha" values="0 0 0 0 0 0 0 0 0 0 0 0 0 0 0 0 0 0 127 0" result="hardAlpha"/><feOffset dx="48" dy="2"/><feGaussianBlur stdDeviation="2"/><feComposite in2="hardAlpha" operator="arithmetic" k2="-1" k3="1"/><feColorMatrix values="0 0 0 0 0 0 0 0 0 0 0 0 0 0 0 0 0 0 0.02 0"/><feBlend in2="shape" result="effect2_innerShadow"/></filter><filter id="filter11_di" x="31.236" y="-3.239" width="25.242" height="20.789" filterUnits="userSpaceOnUse" color-interpolation-filters="sRGB"><feFlood flood-opacity="0" result="BackgroundImageFix"/><feColorMatrix in="SourceAlpha" values="0 0 0 0 0 0 0 0 0 0 0 0 0 0 0 0 0 0 127 0"/><feOffset dy="-1"/><feGaussianBlur stdDeviation="1"/><feColorMatrix values="0 0 0 0 0.203922 0 0 0 0 0.109804 0 0 0 0 0.560784 0 0 0 0.64 0"/><feBlend in2="BackgroundImageFix" result="effect1_dropShadow"/><feBlend in="SourceGraphic" in2="effect1_dropShadow" result="shape"/><feColorMatrix in="SourceAlpha" values="0 0 0 0 0 0 0 0 0 0 0 0 0 0 0 0 0 0 127 0" result="hardAlpha"/><feOffset dx="48" dy="2"/><feGaussianBlur stdDeviation="2"/><feComposite in2="hardAlpha" operator="arithmetic" k2="-1" k3="1"/><feColorMatrix values="0 0 0 0 0 0 0 0 0 0 0 0 0 0 0 0 0 0 0.02 0"/><feBlend in2="shape" result="effect2_innerShadow"/></filter><filter id="filter12_i" x="31.438" y="-.063" width="21.596" height="9.613" filterUnits="userSpaceOnUse" color-interpolation-filters="sRGB"><feFlood flood-opacity="0" result="BackgroundImageFix"/><feBlend in="SourceGraphic" in2="BackgroundImageFix" result="shape"/><feColorMatrix in="SourceAlpha" values="0 0 0 0 0 0 0 0 0 0 0 0 0 0 0 0 0 0 127 0" result="hardAlpha"/><feOffset/><feGaussianBlur stdDeviation="2.5"/><feComposite in2="hardAlpha" operator="arithmetic" k2="-1" k3="1"/><feColorMatrix values="0 0 0 0 0 0 0 0 0 0 0 0 0 0 0 0 0 0 0.15 0"/><feBlend in2="shape" result="effect1_innerShadow"/></filter><filter id="filter13_di" x="25.973" y="-3.939" width="31.263" height="18.379" filterUnits="userSpaceOnUse" color-interpolation-filters="sRGB"><feFlood flood-opacity="0" result="BackgroundImageFix"/><feColorMatrix in="SourceAlpha" values="0 0 0 0 0 0 0 0 0 0 0 0 0 0 0 0 0 0 127 0"/><feOffset dy="1"/><feGaussianBlur stdDeviation="2"/><feColorMatrix values="0 0 0 0 0 0 0 0 0 0 0 0 0 0 0 0 0 0 0.4 0"/><feBlend in2="BackgroundImageFix" result="effect1_dropShadow"/><feBlend in="SourceGraphic" in2="effect1_dropShadow" result="shape"/><feColorMatrix in="SourceAlpha" values="0 0 0 0 0 0 0 0 0 0 0 0 0 0 0 0 0 0 127 0" result="hardAlpha"/><feOffset/><feGaussianBlur stdDeviation="2"/><feComposite in2="hardAlpha" operator="arithmetic" k2="-1" k3="1"/><feColorMatrix values="0 0 0 0 0 0 0 0 0 0 0 0 0 0 0 0 0 0 0.02 0"/><feBlend in2="shape" result="effect2_innerShadow"/></filter><filter id="filter14_di" x="17.152" y="-11.446" width="78.41" height="90.937" filterUnits="userSpaceOnUse" color-interpolation-filters="sRGB"><feFlood flood-opacity="0" result="BackgroundImageFix"/><feColorMatrix in="SourceAlpha" values="0 0 0 0 0 0 0 0 0 0 0 0 0 0 0 0 0 0 127 0"/><feOffset dy="-1"/><feGaussianBlur stdDeviation="16.5"/><feColorMatrix values="0 0 0 0 0.195833 0 0 0 0 0.100871 0 0 0 0 0.0938368 0 0 0 0.26 0"/><feBlend in2="BackgroundImageFix" result="effect1_dropShadow"/><feBlend in="SourceGraphic" in2="effect1_dropShadow" result="shape"/><feColorMatrix in="SourceAlpha" values="0 0 0 0 0 0 0 0 0 0 0 0 0 0 0 0 0 0 127 0" result="hardAlpha"/><feOffset dx="48" dy="2"/><feGaussianBlur stdDeviation="9"/><feComposite in2="hardAlpha" operator="arithmetic" k2="-1" k3="1"/><feColorMatrix values="0 0 0 0 0 0 0 0 0 0 0 0 0 0 0 0 0 0 0.02 0"/><feBlend in2="shape" result="effect2_innerShadow"/></filter><filter id="filter15_di" x="17.865" y="-17.833" width="76.665" height="90.937" filterUnits="userSpaceOnUse" color-interpolation-filters="sRGB"><feFlood flood-opacity="0" result="BackgroundImageFix"/><feColorMatrix in="SourceAlpha" values="0 0 0 0 0 0 0 0 0 0 0 0 0 0 0 0 0 0 127 0"/><feOffset dy="-1"/><feGaussianBlur stdDeviation="16.5"/><feColorMatrix values="0 0 0 0 0.195833 0 0 0 0 0.100871 0 0 0 0 0.0938368 0 0 0 0.26 0"/><feBlend in2="BackgroundImageFix" result="effect1_dropShadow"/><feBlend in="SourceGraphic" in2="effect1_dropShadow" result="shape"/><feColorMatrix in="SourceAlpha" values="0 0 0 0 0 0 0 0 0 0 0 0 0 0 0 0 0 0 127 0" result="hardAlpha"/><feOffset dx="48" dy="2"/><feGaussianBlur stdDeviation="9"/><feComposite in2="hardAlpha" operator="arithmetic" k2="-1" k3="1"/><feColorMatrix values="0 0 0 0 0 0 0 0 0 0 0 0 0 0 0 0 0 0 0.02 0"/><feBlend in2="shape" result="effect2_innerShadow"/></filter><filter id="filter16_di" x="15.041" y="-14.184" width="76.93" height="90.937" filterUnits="userSpaceOnUse" color-interpolation-filters="sRGB"><feFlood flood-opacity="0" result="BackgroundImageFix"/><feColorMatrix in="SourceAlpha" values="0 0 0 0 0 0 0 0 0 0 0 0 0 0 0 0 0 0 127 0"/><feOffset dy="-1"/><feGaussianBlur stdDeviation="16.5"/><feColorMatrix values="0 0 0 0 0.195833 0 0 0 0 0.100871 0 0 0 0 0.0938368 0 0 0 0.26 0"/><feBlend in2="BackgroundImageFix" result="effect1_dropShadow"/><feBlend in="SourceGraphic" in2="effect1_dropShadow" result="shape"/><feColorMatrix in="SourceAlpha" values="0 0 0 0 0 0 0 0 0 0 0 0 0 0 0 0 0 0 127 0" result="hardAlpha"/><feOffset dx="48" dy="2"/><feGaussianBlur stdDeviation="9"/><feComposite in2="hardAlpha" operator="arithmetic" k2="-1" k3="1"/><feColorMatrix values="0 0 0 0 0 0 0 0 0 0 0 0 0 0 0 0 0 0 0.02 0"/><feBlend in2="shape" result="effect2_innerShadow"/></filter></defs></svg>