<svg width="152" height="56" fill="none" xmlns="http://www.w3.org/2000/svg"><path d="M23.043 25.072L18.22 37.64l-4.852-12.567h-1.761L6.728 37.64 1.964 25.072H0L5.717 39.86h1.935l4.793-12.116 4.794 12.116h1.934l5.747-14.787h-1.877zm19.094 7.394c0-4.442-3.09-7.506-7.363-7.506-4.274 0-7.421 3.12-7.421 7.506 0 4.385 3.234 7.534 7.97 7.534 2.396 0 4.504-.843 5.861-2.418l-1.155-1.293c-1.155 1.293-2.8 1.94-4.649 1.94-3.32 0-5.746-2.052-5.977-5.145h12.705c0-.225.029-.45.029-.618zm-7.363-5.791c2.974 0 5.14 2.024 5.4 4.92H29.402c.26-2.896 2.425-4.92 5.37-4.92zm20.661-1.715c-2.426 0-4.505 1.012-5.776 2.924V19h-2.05v20.86h1.964v-2.924C50.815 38.932 52.923 40 55.435 40 59.765 40 63 36.936 63 32.466s-3.234-7.506-7.565-7.506zm-.145 13.269c-3.234 0-5.66-2.305-5.66-5.763 0-3.458 2.426-5.763 5.66-5.763 3.205 0 5.66 2.305 5.66 5.763 0 3.458-2.455 5.763-5.66 5.763z" fill="#fff"/><path d="M84.615 36.684c-2.315 1.564-3.367 1.757-4.821 2.482-4.297 2.142-4.702 4.59-5.418 6.834V13.374c0-2.675-2.226-5.732-7.569-5.732-2.23 0-4.006 0-5.787-.764-1.78-.764-3.561-2.292-5.787-4.585C53.099.095 49.33.004 49.02 0H49h.02c.601.005 14.334.114 22.24 0 4.006 0 7.122 0 8.458 2.293.445.764.445 3.821.445 6.114v4.967c0 1.147-.025 2.654.89 3.44.89.764 2.427 1.318 3.562 2.292 1.78 1.529 1.336 3.44 1.336 5.732v6.878c0 1.73-.23 4.22-1.336 4.968z" fill="url(#paint0_linear)"/><path d="M86 0h22s-3.15.382-4.5 1.908c-1.202 1.359-2.561 3.611-3.6 4.58-2.852 2.66-5.85 2.66-8.55 2.66-3.15 0-5.296-.189-5.35 1.908-.05 1.908 0 .394 0 1.538-.088 2.042-.052 5.4-.023 6.782.015.147.023.303.023.47 0 .334-.01.1-.023-.47-.36-3.573-4.927-1.65-4.927-6.782V6.488C81.05 2.672 80.15 0 86 0z" fill="url(#paint1_linear)"/><mask id="a" maskUnits="userSpaceOnUse" x="81" y="0" width="35" height="22"><path d="M86.533.206h28.632s-3.39.387-4.843 1.932c-1.293 1.375-2.022 3.258-3.875 4.636-1.852 1.377-7.581 3.028-14.437 3.028-4.657 0-5.418 3.858-5.477 5.98a78.088 78.088 0 00-.039 4.872c.026.188.04.387.04.601 0 .467-.023.143-.04-.6-.482-3.543-5.288-2.563-5.288-7.7V6.774c0-3.863-.97-6.568 5.327-6.568z" fill="url(#paint2_linear)"/></mask><g mask="url(#a)"><g filter="url(#filter0_di)"><path d="M83.574-.953c4.844-.386.484-.386 8.718 0-2.906 1.546-2.389 2.537-5.328 4.636-3.138 2.242 9.203 18.158 0 18.544-6.296.264-7.233-3.935-8.202-1.617 0-1.545-.323-8.499-.484-11.203-.484-8.113 1.3-10.041 5.296-10.36z" fill="url(#paint3_linear)"/></g><g filter="url(#filter1_di)"><path d="M92.923-1.327c5.143-.41 10.252-.41 18.997 0-3.086 1.641-5.624.643-8.745 2.872-3.333 2.38-2.537 3.515-12.31 3.925-6.687.281-3.6 12.719-4.63 15.18 0-1.64-.342-9.025-.513-11.897-.515-8.616 2.957-9.741 7.2-10.08z" fill="url(#paint4_linear)"/></g><g filter="url(#filter2_di)"><path d="M87.48-2.402c4.844-.386 10.14-.992 18.373-.606C102.947-1.462 91.84-1.12 88.902.98c-3.139 2.242-2.422 2.704-2.422 5.504 0 4.384.97 11.88 0 14.199.334-6.954 0-7.822-4.844-11.59-7.29-5.67 1.849-11.175 5.845-11.494z" fill="url(#paint5_linear)"/></g><g filter="url(#filter3_i)"><path d="M100.289 4.85c3.261-2.673 4.361-7.526 16.482-5.977-3.103 1.7-1.055 5.106-6.731 7.747-3.504 3.736-16.667 7.091-21.704 7.638C81.32.834 97.03 7.522 100.29 4.848z" fill="url(#paint6_linear)"/></g><g filter="url(#filter4_di)"><path d="M100.077 3.37c3.6-2.461 6.319-5.174 15.063-4.763-3.086 1.64-6.333.468-8.744 2.872-2.878 2.87-5.874 6.154-14.917 5.743-5.658.41-3.39 5.463-3.904 5.463-3.984-10.739 8.901-6.853 12.502-9.314z" fill="url(#paint7_linear)"/></g></g><mask id="b" maskUnits="userSpaceOnUse" x="42" y="0" width="44" height="47"><path d="M78.837 39.793c1.79-.723 3.462-1.445 5.236-2.706 1.091-.776 1.34-3.274 1.34-5.022v-6.954c0-2.318.447-4.25-1.34-5.795-1.14-.985-2.682-1.545-3.576-2.318-.919-.794-.894-2.318-.894-3.477V8.5c0-2.318 0-5.408-.447-6.181C77.816 0 74.686 0 70.664 0c-8.116.118-28.605 0-28.605 0s4.023 0 6.257 2.318c2.235 2.318 3.673 3.09 5.81 4.636 2.139 1.545 9.857 2.436 12.096 2.436 5.97 0 7.57 3.177 7.57 5.88v31.333c.867-4.23 3.255-5.882 5.045-6.81z" fill="url(#paint8_linear)"/></mask><g mask="url(#b)"><g filter="url(#filter5_di)"><path d="M74.687 3.492c-4.47-.387-.447-.387-8.045 0 2.682 1.545 2.205 2.537 4.917 4.636 2.896 2.241.439 1.194 1.768 6.939.512 2.213-.38 5.186 1.36 6.954 1.63 1.655 4.022 3.09 6.704 5.022 2.681 1.932 4.47 7.727 2.681 10.43 8.492-10.43-4.647-20.917-4.498-23.622.447-8.113-1.2-10.04-4.887-10.36z" fill="url(#paint9_linear)"/></g><g filter="url(#filter6_di)"><path d="M82.769 46.345c-1.556 0 .447.386 8.045 0-2.682-1.546-2.205-2.538-4.917-4.636-2.896-2.242.846 1.51-.484-4.235-.512-2.213 1.126-4.636-.447-7.34-2.234-3.091-4.549-3.477-7.15-5.795-2.603-2.318-4.917-3.09-4.47-8.5-5.282 8.515.11 11.801 4.47 14.977 3.947 2.876 6.823 5.855 4.274 8.976 1.038 8.072 2.235 6.553.679 6.553z" fill="url(#paint10_linear)"/></g><g filter="url(#filter7_di)"><path d="M76.927 48.94c-1.556 0-.555 12.598 7.043 12.211-2.681-1.545.773-14.75-1.938-16.848-2.897-2.241 3.268 2.37 1.938-3.375-.512-2.213-1.053.537-2.626-2.167 6.685-1.651-4.793-9.51-7.394-11.828-2.602-2.318-4.917-3.09-4.47-8.499-5.282 8.515-2.522 9.929 1.837 13.104 3.948 2.876 8.834 5.675 7.586 9.39 1.038 8.072-.42 8.011-1.976 8.011z" fill="url(#paint11_linear)"/></g><g filter="url(#filter8_di)"><path d="M71.949 58.845c-1.556 0-.555 12.598 7.043 12.212-2.682-1.546.773-14.75-1.94-16.848-2.895-2.242-.705-.004-2.034-5.75-.513-2.212 5.034-4.724 3.461-7.428 2.985-3.818-3.461-5.97-4.555-8.77-1.57-4.025-9.87 1.487-9.423-3.922-5.282 8.515-2.522 9.93 1.837 13.105 3.948 2.875 8.834 5.674 7.586 9.39 1.038 8.072-.42 8.01-1.975 8.01z" fill="url(#paint12_linear)"/></g><g filter="url(#filter9_di)"><path d="M75.153-.372c-4.47-.386-.448-.386-8.046 0 2.682 1.546 2.205 2.538 4.917 4.636 2.896 2.242.439 1.195 1.768 6.94.512 2.212.495 4.414 2.235 6.18 1.63 1.656 4.993 2.93 6.257 3.478 3.733 1.615 1.935 8.38 3.13 10.817 4.022-11.59-5.523-18.987-5.374-21.691.446-8.113-1.2-10.04-4.888-10.36z" fill="url(#paint13_linear)"/></g><g filter="url(#filter10_di)"><path d="M70.609-.848c-4.63-.524-9.697-1.287-17.528-1.1 2.827 1.67 13.422 2.311 16.3 4.554 3.075 2.396 2.41 2.855 2.514 5.746.165 4.525-.477 12.24.533 14.66-.578-7.19-.293-8.077 4.18-11.841 6.733-5.667-2.18-11.586-6-12.019z" fill="url(#paint14_linear)"/></g><g filter="url(#filter11_di)"><path d="M65.923.027c-5.64-.442-11.238-.465-20.817-.086 3.394 1.687 6.167.68 9.604 2.967 3.67 2.442 2.807 3.595 13.52 4.057 7.329.316 4.042 12.981 5.188 15.495-.013-1.673.307-9.2.473-12.126.498-8.78-3.315-9.943-7.968-10.307z" fill="url(#paint15_linear)"/></g><g filter="url(#filter12_i)"><path d="M57.872 6.454C53.889 3.894 52.039-.248 42.665-.08c3.392 1.726 3.288 3.088 9.27 5.849 4.69 3.48 15.58 6.259 20.038 7.193-.5-10.66-10.118-3.947-14.101-6.507z" fill="url(#paint16_linear)"/></g><g filter="url(#filter13_di)"><path d="M57.38 4.267c-4.117-2.62-6.722-5.927-16.703-5.505 3.528 1.748 7.232.508 9.99 3.064 3.294 3.052 3.802 6.105 17.045 6.125 5.312 1.227 3.44 5.418 4.123 4.798C74.744 2.297 61.497 6.887 57.38 4.267z" fill="url(#paint17_linear)"/></g></g><path d="M80.647 40.13c1.307-.653 3.06-1.295 4.353-3.13v7.449c0 3.03-.235 3.239-.47 3.886-.275.756-1.412 3.239-4.47 4.102-2.134.603-4.59 1.404-5.06 3.563v-6.045c0-2.375.353-4.319 1.647-6.694.705-1.294 1.412-1.835 4-3.13z" fill="#E08F6C"/><mask id="c" maskUnits="userSpaceOnUse" x="74" y="37" width="11" height="19"><path d="M80.433 40.618c1.326-.625 3.104-1.238 4.417-2.992v11.247c0 1.547-2.149 2.992-5.014 3.508-2.217.399-4.7 1.341-5.177 3.405v-5.778c0-2.27.402-4.128 1.715-6.398.716-1.236 1.433-1.754 4.06-2.992z" fill="#C4C4C4"/></mask><g mask="url(#c)"><g filter="url(#filter14_di)"><path d="M75.222 64.453s.392-4.334 2.78-7.739c-5.97-.825 2.626-4.746 4.416-8.46 1.874-3.887 3.119-10.01 2.149-11.35-2.235-3.091-6.743 4.522-9.345 2.205-2.601-2.318-4.916-3.091-4.47-8.5-5.281 8.515-1.885 14.16 2.474 17.335 3.948 2.876 2.985 2.786.359 6.604-2.03 6.087 1.637 9.905 1.637 9.905z" fill="url(#paint18_linear)"/></g><g filter="url(#filter15_di)"><path d="M75.382 55.786s-3.64-5.366 0-5.366c2.023-3.611 5.604-4.01 6.559-6.294.719-1.72 2.268-4.643 1.194-8.048-2.235-3.09-5.151-3.319-7.753-5.637-2.602-2.318-4.917-3.09-4.47-8.499-5.282 8.515 1.775 10.238 6.134 13.414 3.948 2.876 2.15 6.294-.477 10.112-2.03 6.087-1.187 10.318-1.187 10.318z" fill="url(#paint19_linear)"/></g><g filter="url(#filter16_di)"><path d="M72.357 60.739s2.421-1.136 4.808-4.54c-5.968-.826 2.865-6.088 2.865-8.668 0-2.063-.164-6.5-.835-7.429-2.235-3.09-4.236-2.39-6.838-4.708-2.602-2.318-4.916-3.09-4.47-8.5-5.281 8.515-1.885 14.16 2.474 17.335 3.948 2.876 2.984 2.786.358 6.604-2.029 6.088 1.638 9.906 1.638 9.906z" fill="url(#paint20_linear)"/></g></g><path d="M108.776 25.112v7.738c0 3.365-1.991 5.356-5.166 5.356-2.887 0-4.56-1.599-4.56-4.739v-8.355H97v8.552C97 37.897 99.54 40 103.408 40c2.424 0 4.387-1.037 5.455-2.832v2.692h1.962V25.112h-2.049zM125.599 25c-2.627 0-4.676 1.037-5.773 2.832v-2.72h-1.962V39.86h2.049v-7.74c0-3.364 2.049-5.327 5.311-5.327 2.886 0 4.56 1.598 4.56 4.71v8.356h2.049v-8.552c0-4.233-2.54-6.308-6.234-6.308zM152 32.486c0-4.43-3.088-7.486-7.36-7.486s-7.418 3.112-7.418 7.486S140.455 40 145.188 40c2.396 0 4.503-.841 5.86-2.411l-1.155-1.29c-1.155 1.29-2.8 1.935-4.647 1.935-3.319 0-5.744-2.047-5.975-5.131h12.7c0-.224.029-.449.029-.617zm-7.36-5.776c2.973 0 5.138 2.019 5.397 4.907h-10.766c.26-2.888 2.425-4.907 5.369-4.907zM6 53.965h1.896c1.52 0 2.546-1.028 2.546-2.465 0-1.437-1.026-2.465-2.546-2.465H6v4.93zm.35-.324v-4.282h1.519c1.355 0 2.224.887 2.224 2.141s-.869 2.14-2.224 2.14h-1.52zm9.549.324h.35v-4.93h-.35v4.93zm9.685-.747c-.39.324-.856.451-1.362.451-1.246 0-2.17-.937-2.17-2.169 0-1.24.924-2.169 2.17-2.169.582 0 1.081.162 1.499.584l.219-.239c-.424-.45-1.034-.676-1.725-.676-1.451 0-2.512 1.063-2.512 2.5s1.06 2.5 2.505 2.5c.657 0 1.28-.211 1.711-.634v-1.845h-.335v1.697zm6.116.747h.349v-4.93h-.35v4.93zm7.18 0h.348v-4.606h1.725v-.324h-3.799v.324h1.725v4.606zm10.522 0h.377l-2.204-4.93h-.35l-2.203 4.93h.376l.61-1.388h2.778l.616 1.388zm-3.258-1.69l1.253-2.845 1.26 2.845h-2.513zm8.748 1.69H58v-.324h-2.758v-4.606h-.35v4.93zm47.452.007h.373l-2.185-3.944h-.346L98 53.972h.373l.604-1.11h2.756l.611 1.11zm-3.23-1.352l1.241-2.276 1.249 2.276h-2.49zm12.002.755c-.387.259-.849.36-1.351.36-1.235 0-2.152-.75-2.152-1.735 0-.992.917-1.735 2.152-1.735.577 0 1.072.13 1.487.467l.217-.191c-.421-.36-1.025-.541-1.711-.541-1.439 0-2.491.85-2.491 2s1.052 2 2.484 2c.652 0 1.27-.169 1.697-.507v-1.476h-.332v1.358zm6.41.338v-1.617h2.532v-.254h-2.532v-1.555h2.831v-.259h-3.177v3.944h3.278v-.26h-2.932zm11.926-3.685v3.425l-3.231-3.425h-.292v3.944h.346v-3.425l3.238 3.425h.285v-3.944h-.346zM137.675 54c.672 0 1.276-.186 1.69-.552l-.218-.186c-.407.332-.902.473-1.459.473-1.215 0-2.131-.743-2.131-1.735 0-.992.916-1.735 2.131-1.735.557 0 1.052.135 1.459.467l.218-.185c-.414-.367-1.018-.547-1.69-.547-1.412 0-2.464.85-2.464 2s1.052 2 2.464 2zM148 50.028h-.36l-1.717 2.321-1.717-2.32h-.38l1.914 2.585v1.358h.346v-1.358L148 50.028z" fill="#fff"/><defs><linearGradient id="paint0_linear" x1="67.716" y1="0" x2="67.716" y2="54.262" gradientUnits="userSpaceOnUse"><stop stop-color="#A073FF"/><stop offset="1" stop-color="#7287DC"/></linearGradient><linearGradient id="paint1_linear" x1="92.05" y1="0" x2="92.05" y2="15.762" gradientUnits="userSpaceOnUse"><stop stop-color="#8F69E0"/><stop offset="1" stop-color="#E8D20E"/></linearGradient><linearGradient id="paint2_linear" x1="93.045" y1=".206" x2="93.045" y2="16.162" gradientUnits="userSpaceOnUse"><stop stop-color="#8F69E0"/><stop offset="1" stop-color="#E8D20E"/></linearGradient><linearGradient id="paint3_linear" x1="78.143" y1="12.197" x2="93.963" y2="-7.637" gradientUnits="userSpaceOnUse"><stop stop-color="#A34CEE"/><stop offset=".202" stop-color="#783BCB"/><stop offset=".631" stop-color="#492CD0"/><stop offset=".881" stop-color="#2B139C"/></linearGradient><linearGradient id="paint4_linear" x1="85.579" y1="11.716" x2="102.379" y2="-9.347" gradientUnits="userSpaceOnUse"><stop stop-color="#A34CEE"/><stop offset=".202" stop-color="#783BCB"/><stop offset=".631" stop-color="#492CD0"/><stop offset=".881" stop-color="#2B139C"/></linearGradient><linearGradient id="paint5_linear" x1="81.152" y1="11.41" x2="96.567" y2="-9.846" gradientUnits="userSpaceOnUse"><stop stop-color="#A34CEE"/><stop offset=".152" stop-color="#783BCB"/><stop offset=".457" stop-color="#492CD0"/><stop offset=".649" stop-color="#2B139C"/></linearGradient><linearGradient id="paint6_linear" x1="92.084" y1="14.938" x2="105.213" y2="-7.066" gradientUnits="userSpaceOnUse"><stop stop-color="#5E2DD2"/><stop offset="1" stop-color="#2B1CA2"/></linearGradient><linearGradient id="paint7_linear" x1="88.799" y1="11.649" x2="105.6" y2="-9.414" gradientUnits="userSpaceOnUse"><stop stop-color="#4122A1"/><stop offset=".82" stop-color="#4C2BB7"/><stop offset="1" stop-color="#4E31EA"/></linearGradient><linearGradient id="paint8_linear" x1="67.107" y1="0" x2="67.107" y2="54.859" gradientUnits="userSpaceOnUse"><stop stop-color="#A073FF"/><stop offset="1" stop-color="#7287DC"/></linearGradient><linearGradient id="paint9_linear" x1="93.458" y1="43.269" x2="67.151" y2="-3.115" gradientUnits="userSpaceOnUse"><stop offset=".105" stop-color="#EDA362"/><stop offset=".284" stop-color="#D74F7C"/><stop offset=".512" stop-color="#A04AEA"/><stop offset=".792" stop-color="#492CD0"/><stop offset="1" stop-color="#2B139C"/></linearGradient><linearGradient id="paint10_linear" x1="63.998" y1="6.568" x2="90.305" y2="52.951" gradientUnits="userSpaceOnUse"><stop offset=".184" stop-color="#EDA362"/><stop offset=".295" stop-color="#8D43DB"/><stop offset=".625" stop-color="#D9636B"/><stop offset=".837" stop-color="#F1C671"/><stop offset="1" stop-color="#2B139C"/></linearGradient><linearGradient id="paint11_linear" x1="60.132" y1="9.162" x2="86.439" y2="55.545" gradientUnits="userSpaceOnUse"><stop offset=".184" stop-color="#EDA362"/><stop offset=".295" stop-color="#8D43DB"/><stop offset=".625" stop-color="#D9636B"/><stop offset=".837" stop-color="#F1C671"/><stop offset="1" stop-color="#2B139C"/></linearGradient><linearGradient id="paint12_linear" x1="55.153" y1="19.068" x2="81.46" y2="65.451" gradientUnits="userSpaceOnUse"><stop offset=".184" stop-color="#EDA362"/><stop offset=".295" stop-color="#8D43DB"/><stop offset=".412" stop-color="#D9636B"/><stop offset=".704" stop-color="#F1C671"/><stop offset="1" stop-color="#2B139C"/></linearGradient><linearGradient id="paint13_linear" x1="80.164" y1="12.778" x2="64.109" y2="-5.796" gradientUnits="userSpaceOnUse"><stop stop-color="#A34CEE"/><stop offset=".202" stop-color="#783BCB"/><stop offset=".631" stop-color="#492CD0"/><stop offset=".881" stop-color="#2B139C"/></linearGradient><linearGradient id="paint14_linear" x1="77.156" y1="13.576" x2="60.45" y2="-7.814" gradientUnits="userSpaceOnUse"><stop stop-color="#A34CEE"/><stop offset=".152" stop-color="#783BCB"/><stop offset=".457" stop-color="#492CD0"/><stop offset=".649" stop-color="#2B139C"/></linearGradient><linearGradient id="paint15_linear" x1="74.07" y1="13.355" x2="57.165" y2="-9.428" gradientUnits="userSpaceOnUse"><stop stop-color="#A34CEE"/><stop offset=".202" stop-color="#783BCB"/><stop offset=".631" stop-color="#492CD0"/><stop offset=".881" stop-color="#2B139C"/></linearGradient><linearGradient id="paint16_linear" x1="70.833" y1="14.655" x2="53.78" y2="-8.328" gradientUnits="userSpaceOnUse"><stop stop-color="#5E2DD2"/><stop offset="1" stop-color="#2B1CA2"/></linearGradient><linearGradient id="paint17_linear" x1="70.784" y1="12.656" x2="53.236" y2="-10.994" gradientUnits="userSpaceOnUse"><stop stop-color="#4122A1"/><stop offset=".82" stop-color="#4C2BB7"/><stop offset="1" stop-color="#4E31EA"/></linearGradient><linearGradient id="paint18_linear" x1="75.017" y1="13.275" x2="77.516" y2="70.371" gradientUnits="userSpaceOnUse"><stop offset=".184" stop-color="#EDA362"/><stop offset=".295" stop-color="#8D43DB"/><stop offset=".411" stop-color="#D9636B"/><stop offset=".766" stop-color="#FFD177"/><stop offset="1" stop-color="#2B139C"/></linearGradient><linearGradient id="paint19_linear" x1="61.564" y1="12.67" x2="87.871" y2="59.054" gradientUnits="userSpaceOnUse"><stop offset=".184" stop-color="#EDA362"/><stop offset=".295" stop-color="#8D43DB"/><stop offset=".625" stop-color="#D9636B"/><stop offset=".837" stop-color="#F1C671"/><stop offset="1" stop-color="#2B139C"/></linearGradient><linearGradient id="paint20_linear" x1="58.54" y1="17.623" x2="84.847" y2="64.006" gradientUnits="userSpaceOnUse"><stop offset=".184" stop-color="#EDA362"/><stop offset=".295" stop-color="#8D43DB"/><stop offset=".361" stop-color="#D9636B"/><stop offset=".889" stop-color="#F1C671"/><stop offset="1" stop-color="#2B139C"/></linearGradient><filter id="filter0_di" x="76.201" y="-4.243" width="18.092" height="27.482" filterUnits="userSpaceOnUse" color-interpolation-filters="sRGB"><feFlood flood-opacity="0" result="BackgroundImageFix"/><feColorMatrix in="SourceAlpha" values="0 0 0 0 0 0 0 0 0 0 0 0 0 0 0 0 0 0 127 0"/><feOffset dy="-1"/><feGaussianBlur stdDeviation="1"/><feColorMatrix values="0 0 0 0 0.203922 0 0 0 0 0.109804 0 0 0 0 0.560784 0 0 0 0.64 0"/><feBlend in2="BackgroundImageFix" result="effect1_dropShadow"/><feBlend in="SourceGraphic" in2="effect1_dropShadow" result="shape"/><feColorMatrix in="SourceAlpha" values="0 0 0 0 0 0 0 0 0 0 0 0 0 0 0 0 0 0 127 0" result="hardAlpha"/><feOffset dx="48" dy="2"/><feGaussianBlur stdDeviation="2"/><feComposite in2="hardAlpha" operator="arithmetic" k2="-1" k3="1"/><feColorMatrix values="0 0 0 0 0 0 0 0 0 0 0 0 0 0 0 0 0 0 0.02 0"/><feBlend in2="shape" result="effect2_innerShadow"/></filter><filter id="filter1_di" x="83.671" y="-4.635" width="30.249" height="26.285" filterUnits="userSpaceOnUse" color-interpolation-filters="sRGB"><feFlood flood-opacity="0" result="BackgroundImageFix"/><feColorMatrix in="SourceAlpha" values="0 0 0 0 0 0 0 0 0 0 0 0 0 0 0 0 0 0 127 0"/><feOffset dy="-1"/><feGaussianBlur stdDeviation="1"/><feColorMatrix values="0 0 0 0 0.203922 0 0 0 0 0.109804 0 0 0 0 0.560784 0 0 0 0.64 0"/><feBlend in2="BackgroundImageFix" result="effect1_dropShadow"/><feBlend in="SourceGraphic" in2="effect1_dropShadow" result="shape"/><feColorMatrix in="SourceAlpha" values="0 0 0 0 0 0 0 0 0 0 0 0 0 0 0 0 0 0 127 0" result="hardAlpha"/><feOffset dx="48" dy="2"/><feGaussianBlur stdDeviation="2"/><feComposite in2="hardAlpha" operator="arithmetic" k2="-1" k3="1"/><feColorMatrix values="0 0 0 0 0 0 0 0 0 0 0 0 0 0 0 0 0 0 0.02 0"/><feBlend in2="shape" result="effect2_innerShadow"/></filter><filter id="filter2_di" x="76.9" y="-6.132" width="30.953" height="27.813" filterUnits="userSpaceOnUse" color-interpolation-filters="sRGB"><feFlood flood-opacity="0" result="BackgroundImageFix"/><feColorMatrix in="SourceAlpha" values="0 0 0 0 0 0 0 0 0 0 0 0 0 0 0 0 0 0 127 0"/><feOffset dy="-1"/><feGaussianBlur stdDeviation="1"/><feColorMatrix values="0 0 0 0 0.203922 0 0 0 0 0.109804 0 0 0 0 0.560784 0 0 0 0.64 0"/><feBlend in2="BackgroundImageFix" result="effect1_dropShadow"/><feBlend in="SourceGraphic" in2="effect1_dropShadow" result="shape"/><feColorMatrix in="SourceAlpha" values="0 0 0 0 0 0 0 0 0 0 0 0 0 0 0 0 0 0 127 0" result="hardAlpha"/><feOffset dx="48" dy="2"/><feGaussianBlur stdDeviation="2"/><feComposite in2="hardAlpha" operator="arithmetic" k2="-1" k3="1"/><feColorMatrix values="0 0 0 0 0 0 0 0 0 0 0 0 0 0 0 0 0 0 0.02 0"/><feBlend in2="shape" result="effect2_innerShadow"/></filter><filter id="filter3_i" x="86.551" y="-1.426" width="30.221" height="15.683" filterUnits="userSpaceOnUse" color-interpolation-filters="sRGB"><feFlood flood-opacity="0" result="BackgroundImageFix"/><feBlend in="SourceGraphic" in2="BackgroundImageFix" result="shape"/><feColorMatrix in="SourceAlpha" values="0 0 0 0 0 0 0 0 0 0 0 0 0 0 0 0 0 0 127 0" result="hardAlpha"/><feOffset/><feGaussianBlur stdDeviation="2.5"/><feComposite in2="hardAlpha" operator="arithmetic" k2="-1" k3="1"/><feColorMatrix values="0 0 0 0 0 0 0 0 0 0 0 0 0 0 0 0 0 0 0.15 0"/><feBlend in2="shape" result="effect1_innerShadow"/></filter><filter id="filter4_di" x="82.819" y="-4.435" width="36.322" height="22.119" filterUnits="userSpaceOnUse" color-interpolation-filters="sRGB"><feFlood flood-opacity="0" result="BackgroundImageFix"/><feColorMatrix in="SourceAlpha" values="0 0 0 0 0 0 0 0 0 0 0 0 0 0 0 0 0 0 127 0"/><feOffset dy="1"/><feGaussianBlur stdDeviation="2"/><feColorMatrix values="0 0 0 0 0 0 0 0 0 0 0 0 0 0 0 0 0 0 0.4 0"/><feBlend in2="BackgroundImageFix" result="effect1_dropShadow"/><feBlend in="SourceGraphic" in2="effect1_dropShadow" result="shape"/><feColorMatrix in="SourceAlpha" values="0 0 0 0 0 0 0 0 0 0 0 0 0 0 0 0 0 0 127 0" result="hardAlpha"/><feOffset/><feGaussianBlur stdDeviation="2"/><feComposite in2="hardAlpha" operator="arithmetic" k2="-1" k3="1"/><feColorMatrix values="0 0 0 0 0 0 0 0 0 0 0 0 0 0 0 0 0 0 0.02 0"/><feBlend in2="shape" result="effect2_innerShadow"/></filter><filter id="filter5_di" x="34.642" y="-29.798" width="95.29" height="98.272" filterUnits="userSpaceOnUse" color-interpolation-filters="sRGB"><feFlood flood-opacity="0" result="BackgroundImageFix"/><feColorMatrix in="SourceAlpha" values="0 0 0 0 0 0 0 0 0 0 0 0 0 0 0 0 0 0 127 0"/><feOffset dy="-1"/><feGaussianBlur stdDeviation="16"/><feColorMatrix values="0 0 0 0 0.203922 0 0 0 0 0.109804 0 0 0 0 0.560784 0 0 0 0.64 0"/><feBlend in2="BackgroundImageFix" result="effect1_dropShadow"/><feBlend in="SourceGraphic" in2="effect1_dropShadow" result="shape"/><feColorMatrix in="SourceAlpha" values="0 0 0 0 0 0 0 0 0 0 0 0 0 0 0 0 0 0 127 0" result="hardAlpha"/><feOffset dx="48" dy="2"/><feGaussianBlur stdDeviation="21.5"/><feComposite in2="hardAlpha" operator="arithmetic" k2="-1" k3="1"/><feColorMatrix values="0 0 0 0 0 0 0 0 0 0 0 0 0 0 0 0 0 0 0.02 0"/><feBlend in2="shape" result="effect2_innerShadow"/></filter><filter id="filter6_di" x="38.157" y="-18.16" width="85.656" height="96.677" filterUnits="userSpaceOnUse" color-interpolation-filters="sRGB"><feFlood flood-opacity="0" result="BackgroundImageFix"/><feColorMatrix in="SourceAlpha" values="0 0 0 0 0 0 0 0 0 0 0 0 0 0 0 0 0 0 127 0"/><feOffset dy="-1"/><feGaussianBlur stdDeviation="16.5"/><feColorMatrix values="0 0 0 0 0.195833 0 0 0 0 0.100871 0 0 0 0 0.0938368 0 0 0 0.26 0"/><feBlend in2="BackgroundImageFix" result="effect1_dropShadow"/><feBlend in="SourceGraphic" in2="effect1_dropShadow" result="shape"/><feColorMatrix in="SourceAlpha" values="0 0 0 0 0 0 0 0 0 0 0 0 0 0 0 0 0 0 127 0" result="hardAlpha"/><feOffset dx="48" dy="2"/><feGaussianBlur stdDeviation="9"/><feComposite in2="hardAlpha" operator="arithmetic" k2="-1" k3="1"/><feColorMatrix values="0 0 0 0 0 0 0 0 0 0 0 0 0 0 0 0 0 0 0.02 0"/><feBlend in2="shape" result="effect2_innerShadow"/></filter><filter id="filter7_di" x="40.587" y="-8.566" width="69.574" height="94.726" filterUnits="userSpaceOnUse" color-interpolation-filters="sRGB"><feFlood flood-opacity="0" result="BackgroundImageFix"/><feColorMatrix in="SourceAlpha" values="0 0 0 0 0 0 0 0 0 0 0 0 0 0 0 0 0 0 127 0"/><feOffset dy="-1"/><feGaussianBlur stdDeviation="13"/><feColorMatrix values="0 0 0 0 0.195833 0 0 0 0 0.100871 0 0 0 0 0.0938368 0 0 0 0.26 0"/><feBlend in2="BackgroundImageFix" result="effect1_dropShadow"/><feBlend in="SourceGraphic" in2="effect1_dropShadow" result="shape"/><feColorMatrix in="SourceAlpha" values="0 0 0 0 0 0 0 0 0 0 0 0 0 0 0 0 0 0 127 0" result="hardAlpha"/><feOffset dx="48" dy="2"/><feGaussianBlur stdDeviation="2"/><feComposite in2="hardAlpha" operator="arithmetic" k2="-1" k3="1"/><feColorMatrix values="0 0 0 0 0 0 0 0 0 0 0 0 0 0 0 0 0 0 0.02 0"/><feBlend in2="shape" result="effect2_innerShadow"/></filter><filter id="filter8_di" x="33.608" y="-.661" width="73.652" height="98.726" filterUnits="userSpaceOnUse" color-interpolation-filters="sRGB"><feFlood flood-opacity="0" result="BackgroundImageFix"/><feColorMatrix in="SourceAlpha" values="0 0 0 0 0 0 0 0 0 0 0 0 0 0 0 0 0 0 127 0"/><feOffset dy="-1"/><feGaussianBlur stdDeviation="14"/><feColorMatrix values="0 0 0 0 0.195833 0 0 0 0 0.100871 0 0 0 0 0.0938368 0 0 0 0.26 0"/><feBlend in2="BackgroundImageFix" result="effect1_dropShadow"/><feBlend in="SourceGraphic" in2="effect1_dropShadow" result="shape"/><feColorMatrix in="SourceAlpha" values="0 0 0 0 0 0 0 0 0 0 0 0 0 0 0 0 0 0 127 0" result="hardAlpha"/><feOffset dx="48" dy="2"/><feGaussianBlur stdDeviation="2"/><feComposite in2="hardAlpha" operator="arithmetic" k2="-1" k3="1"/><feColorMatrix values="0 0 0 0 0 0 0 0 0 0 0 0 0 0 0 0 0 0 0.02 0"/><feBlend in2="shape" result="effect2_innerShadow"/></filter><filter id="filter9_di" x="44.107" y="-24.661" width="65.296" height="78.34" filterUnits="userSpaceOnUse" color-interpolation-filters="sRGB"><feFlood flood-opacity="0" result="BackgroundImageFix"/><feColorMatrix in="SourceAlpha" values="0 0 0 0 0 0 0 0 0 0 0 0 0 0 0 0 0 0 127 0"/><feOffset dy="-1"/><feGaussianBlur stdDeviation="11.5"/><feColorMatrix values="0 0 0 0 0.203922 0 0 0 0 0.109804 0 0 0 0 0.560784 0 0 0 0.57 0"/><feBlend in2="BackgroundImageFix" result="effect1_dropShadow"/><feBlend in="SourceGraphic" in2="effect1_dropShadow" result="shape"/><feColorMatrix in="SourceAlpha" values="0 0 0 0 0 0 0 0 0 0 0 0 0 0 0 0 0 0 127 0" result="hardAlpha"/><feOffset dx="48" dy="2"/><feGaussianBlur stdDeviation="2"/><feComposite in2="hardAlpha" operator="arithmetic" k2="-1" k3="1"/><feColorMatrix values="0 0 0 0 0 0 0 0 0 0 0 0 0 0 0 0 0 0 0.02 0"/><feBlend in2="shape" result="effect2_innerShadow"/></filter><filter id="filter10_di" x="41.081" y="-14.977" width="49.97" height="48.989" filterUnits="userSpaceOnUse" color-interpolation-filters="sRGB"><feFlood flood-opacity="0" result="BackgroundImageFix"/><feColorMatrix in="SourceAlpha" values="0 0 0 0 0 0 0 0 0 0 0 0 0 0 0 0 0 0 127 0"/><feOffset dy="-1"/><feGaussianBlur stdDeviation="6"/><feColorMatrix values="0 0 0 0 0.203922 0 0 0 0 0.109804 0 0 0 0 0.560784 0 0 0 0.64 0"/><feBlend in2="BackgroundImageFix" result="effect1_dropShadow"/><feBlend in="SourceGraphic" in2="effect1_dropShadow" result="shape"/><feColorMatrix in="SourceAlpha" values="0 0 0 0 0 0 0 0 0 0 0 0 0 0 0 0 0 0 127 0" result="hardAlpha"/><feOffset dx="48" dy="2"/><feGaussianBlur stdDeviation="2"/><feComposite in2="hardAlpha" operator="arithmetic" k2="-1" k3="1"/><feColorMatrix values="0 0 0 0 0 0 0 0 0 0 0 0 0 0 0 0 0 0 0.02 0"/><feBlend in2="shape" result="effect2_innerShadow"/></filter><filter id="filter11_di" x="43.106" y="-3.325" width="32.829" height="26.785" filterUnits="userSpaceOnUse" color-interpolation-filters="sRGB"><feFlood flood-opacity="0" result="BackgroundImageFix"/><feColorMatrix in="SourceAlpha" values="0 0 0 0 0 0 0 0 0 0 0 0 0 0 0 0 0 0 127 0"/><feOffset dy="-1"/><feGaussianBlur stdDeviation="1"/><feColorMatrix values="0 0 0 0 0.203922 0 0 0 0 0.109804 0 0 0 0 0.560784 0 0 0 0.64 0"/><feBlend in2="BackgroundImageFix" result="effect1_dropShadow"/><feBlend in="SourceGraphic" in2="effect1_dropShadow" result="shape"/><feColorMatrix in="SourceAlpha" values="0 0 0 0 0 0 0 0 0 0 0 0 0 0 0 0 0 0 127 0" result="hardAlpha"/><feOffset dx="48" dy="2"/><feGaussianBlur stdDeviation="2"/><feComposite in2="hardAlpha" operator="arithmetic" k2="-1" k3="1"/><feColorMatrix values="0 0 0 0 0 0 0 0 0 0 0 0 0 0 0 0 0 0 0.02 0"/><feBlend in2="shape" result="effect2_innerShadow"/></filter><filter id="filter12_i" x="42.665" y="-.086" width="29.308" height="13.046" filterUnits="userSpaceOnUse" color-interpolation-filters="sRGB"><feFlood flood-opacity="0" result="BackgroundImageFix"/><feBlend in="SourceGraphic" in2="BackgroundImageFix" result="shape"/><feColorMatrix in="SourceAlpha" values="0 0 0 0 0 0 0 0 0 0 0 0 0 0 0 0 0 0 127 0" result="hardAlpha"/><feOffset/><feGaussianBlur stdDeviation="2.5"/><feComposite in2="hardAlpha" operator="arithmetic" k2="-1" k3="1"/><feColorMatrix values="0 0 0 0 0 0 0 0 0 0 0 0 0 0 0 0 0 0 0.15 0"/><feBlend in2="shape" result="effect1_innerShadow"/></filter><filter id="filter13_di" x="36.677" y="-4.275" width="39.572" height="22.086" filterUnits="userSpaceOnUse" color-interpolation-filters="sRGB"><feFlood flood-opacity="0" result="BackgroundImageFix"/><feColorMatrix in="SourceAlpha" values="0 0 0 0 0 0 0 0 0 0 0 0 0 0 0 0 0 0 127 0"/><feOffset dy="1"/><feGaussianBlur stdDeviation="2"/><feColorMatrix values="0 0 0 0 0 0 0 0 0 0 0 0 0 0 0 0 0 0 0.4 0"/><feBlend in2="BackgroundImageFix" result="effect1_dropShadow"/><feBlend in="SourceGraphic" in2="effect1_dropShadow" result="shape"/><feColorMatrix in="SourceAlpha" values="0 0 0 0 0 0 0 0 0 0 0 0 0 0 0 0 0 0 127 0" result="hardAlpha"/><feOffset/><feGaussianBlur stdDeviation="2"/><feComposite in2="hardAlpha" operator="arithmetic" k2="-1" k3="1"/><feColorMatrix values="0 0 0 0 0 0 0 0 0 0 0 0 0 0 0 0 0 0 0.02 0"/><feBlend in2="shape" result="effect2_innerShadow"/></filter><filter id="filter14_di" x="35.063" y="-3.391" width="82.842" height="99.844" filterUnits="userSpaceOnUse" color-interpolation-filters="sRGB"><feFlood flood-opacity="0" result="BackgroundImageFix"/><feColorMatrix in="SourceAlpha" values="0 0 0 0 0 0 0 0 0 0 0 0 0 0 0 0 0 0 127 0"/><feOffset dy="-1"/><feGaussianBlur stdDeviation="16.5"/><feColorMatrix values="0 0 0 0 0.195833 0 0 0 0 0.100871 0 0 0 0 0.0938368 0 0 0 0.26 0"/><feBlend in2="BackgroundImageFix" result="effect1_dropShadow"/><feBlend in="SourceGraphic" in2="effect1_dropShadow" result="shape"/><feColorMatrix in="SourceAlpha" values="0 0 0 0 0 0 0 0 0 0 0 0 0 0 0 0 0 0 127 0" result="hardAlpha"/><feOffset dx="48" dy="2"/><feGaussianBlur stdDeviation="9"/><feComposite in2="hardAlpha" operator="arithmetic" k2="-1" k3="1"/><feColorMatrix values="0 0 0 0 0 0 0 0 0 0 0 0 0 0 0 0 0 0 0.02 0"/><feBlend in2="shape" result="effect2_innerShadow"/></filter><filter id="filter15_di" x="36.029" y="-12.058" width="80.474" height="99.844" filterUnits="userSpaceOnUse" color-interpolation-filters="sRGB"><feFlood flood-opacity="0" result="BackgroundImageFix"/><feColorMatrix in="SourceAlpha" values="0 0 0 0 0 0 0 0 0 0 0 0 0 0 0 0 0 0 127 0"/><feOffset dy="-1"/><feGaussianBlur stdDeviation="16.5"/><feColorMatrix values="0 0 0 0 0.195833 0 0 0 0 0.100871 0 0 0 0 0.0938368 0 0 0 0.26 0"/><feBlend in2="BackgroundImageFix" result="effect1_dropShadow"/><feBlend in="SourceGraphic" in2="effect1_dropShadow" result="shape"/><feColorMatrix in="SourceAlpha" values="0 0 0 0 0 0 0 0 0 0 0 0 0 0 0 0 0 0 127 0" result="hardAlpha"/><feOffset dx="48" dy="2"/><feGaussianBlur stdDeviation="9"/><feComposite in2="hardAlpha" operator="arithmetic" k2="-1" k3="1"/><feColorMatrix values="0 0 0 0 0 0 0 0 0 0 0 0 0 0 0 0 0 0 0.02 0"/><feBlend in2="shape" result="effect2_innerShadow"/></filter><filter id="filter16_di" x="32.197" y="-7.105" width="80.833" height="99.844" filterUnits="userSpaceOnUse" color-interpolation-filters="sRGB"><feFlood flood-opacity="0" result="BackgroundImageFix"/><feColorMatrix in="SourceAlpha" values="0 0 0 0 0 0 0 0 0 0 0 0 0 0 0 0 0 0 127 0"/><feOffset dy="-1"/><feGaussianBlur stdDeviation="16.5"/><feColorMatrix values="0 0 0 0 0.195833 0 0 0 0 0.100871 0 0 0 0 0.0938368 0 0 0 0.26 0"/><feBlend in2="BackgroundImageFix" result="effect1_dropShadow"/><feBlend in="SourceGraphic" in2="effect1_dropShadow" result="shape"/><feColorMatrix in="SourceAlpha" values="0 0 0 0 0 0 0 0 0 0 0 0 0 0 0 0 0 0 127 0" result="hardAlpha"/><feOffset dx="48" dy="2"/><feGaussianBlur stdDeviation="9"/><feComposite in2="hardAlpha" operator="arithmetic" k2="-1" k3="1"/><feColorMatrix values="0 0 0 0 0 0 0 0 0 0 0 0 0 0 0 0 0 0 0.02 0"/><feBlend in2="shape" result="effect2_innerShadow"/></filter></defs></svg>