<svg width="35" height="35" fill="none" xmlns="http://www.w3.org/2000/svg"><g clip-path="url(#clip0)" fill="#fff"><path d="M10.322 28.78a4.105 4.105 0 00-4.101-4.102 4.106 4.106 0 00-4.102 4.102v2.05c0 1.131-.988 2.12-2.119 2.12V35h4.17c3.392 0 6.152-2.828 6.152-6.22zm6.84-20.193a1.024 1.024 0 10.53 1.98 1.024 1.024 0 10-.53-1.98zm-5.8 7.781a1.025 1.025 0 00.532-1.98h-.001c-.291-.079-.37-.02-.576.047.012.618.02 1.26.024 1.923.008.002.013.008.02.01zm11.301 8.79a1.025 1.025 0 10-1.98.53 1.025 1.025 0 001.98-.529zm3.413-12.732a1.026 1.026 0 10-1.451-1.45 1.026 1.026 0 001.45 1.45z"/><path d="M19.61 2.066c-3.368.122-6.46 1.453-8.925 3.144.277 1.88.472 4.22.576 7.115a3.072 3.072 0 013.337 3.849 3.076 3.076 0 01-2.966 2.281c-.099 0-.197-.03-.295-.039-.013 1.64-.05 3.263-.12 4.812 1.05.437 1.87 1.018 2.406 1.77 1.086 1.526.797 3.314.682 3.827-.38 1.703.624 3.437 2.345 3.768.972.186 1.95.278 2.92.278 8.433 0 15.498-6.85 15.43-15.493-.073-8.768-7.66-15.603-15.39-15.312zm3.564 7.46a3.081 3.081 0 014.352 0 3.08 3.08 0 010 4.35 3.083 3.083 0 01-4.35 0 3.084 3.084 0 01-.002-4.35zm-8.717.846a3.073 3.073 0 012.174-3.766 3.083 3.083 0 013.767 2.175 3.073 3.073 0 01-2.174 3.767 3.072 3.072 0 01-3.767-2.176zm8.012 18.023a3.08 3.08 0 01-3.767-2.174 3.074 3.074 0 012.175-3.768 3.073 3.073 0 013.767 2.176 3.072 3.072 0 01-2.175 3.766zm7.976-7.975a3.073 3.073 0 01-3.767 2.175 3.072 3.072 0 01-2.175-3.767 3.075 3.075 0 115.942 1.592z"/><path d="M27.74 18.633a1.025 1.025 0 10-.532 1.98 1.025 1.025 0 00.531-1.98zm-18.456-.107c.003-.343.013-.68.013-1.025C9.297 9.549 8.763 0 6.22 0S3.144 9.548 3.144 17.5c0 .344.009.682.012 1.025h6.127zM6.22 22.628c1.07 0 2.06.298 2.936.779.045-.92.078-1.868.102-2.83H3.184c.023.962.057 1.91.101 2.83.877-.481 1.867-.78 2.936-.78z"/></g><defs><clipPath id="clip0"><path fill="#fff" d="M0 0h35v35H0z"/></clipPath></defs></svg>