<svg width="20" height="21" fill="none" xmlns="http://www.w3.org/2000/svg"><path fill-rule="evenodd" clip-rule="evenodd" d="M5.41 18.58c-.001 0-.002.002-.002.005l.001.006.003.004a.016.016 0 00.005.004h.011a.018.018 0 00.009-.009v-.01a.018.018 0 00-.004-.005.018.018 0 00-.006-.004h-.009a.017.017 0 00-.009.009zm-1.502.005a1.515 1.515 0 113.03 0 1.515 1.515 0 01-3.03 0zm12.752-.005v.01l.004.005a.017.017 0 00.005.003l.006.001h.005a.02.02 0 00.006-.004.02.02 0 00.003-.005v-.01a.02.02 0 00-.01-.009h-.009a.019.019 0 00-.01.01zm-1.5.005a1.516 1.516 0 113.031.002 1.516 1.516 0 01-3.031-.002zM.01 1.122A.75.75 0 01.879.511l2.08.36a.75.75 0 01.62.676l.234 2.802H17.91a2.09 2.09 0 012.07 2.39l-.95 6.558a2.554 2.554 0 01-2.527 2.189H5.59a2.552 2.552 0 01-2.544-2.34L2.13 2.25.622 1.99a.75.75 0 01-.611-.867zM3.939 5.85l.602 7.171c.046.546.502.966 1.05.966h10.912c.523 0 .967-.384 1.043-.904l.949-6.557a.59.59 0 00-.585-.676H3.939z" fill="#00AF41"/><path fill-rule="evenodd" clip-rule="evenodd" d="M11.375 8.795a.75.75 0 01.75-.75h2.773a.75.75 0 010 1.5h-2.773a.75.75 0 01-.75-.75z" fill="#00AF41"/></svg>