<svg width="20" height="20" fill="none" xmlns="http://www.w3.org/2000/svg"><path d="M8.444 9.479c.884-.422 1.345-1.061 1.345-2.056 0-1.96-1.461-2.439-3.147-2.439H2v9.845h4.772c1.79 0 3.47-.859 3.47-2.859 0-1.236-.586-2.15-1.798-2.491zm-4.28-2.814h2.03c.781 0 1.484.22 1.484 1.125 0 .836-.547 1.172-1.32 1.172H4.164V6.665zm2.314 6.492H4.164v-2.712h2.358c.953 0 1.556.398 1.556 1.406 0 .994-.72 1.306-1.6 1.306zm9.958-6.687h-3.992v-.969h3.992v.97zM18 11.368C18 9.259 16.767 7.5 14.53 7.5c-2.172 0-3.647 1.633-3.647 3.772 0 2.22 1.398 3.742 3.648 3.742 1.702 0 2.805-.767 3.336-2.397h-1.728c-.186.608-.953.93-1.547.93-1.148 0-1.75-.672-1.75-1.814h5.141c.009-.116.017-.241.017-.366zm-5.156-.867c.064-.936.687-1.522 1.625-1.522.984 0 1.478.578 1.562 1.522h-3.187z" fill="#00062B"/></svg>