<svg width="26" height="26" fill="none" xmlns="http://www.w3.org/2000/svg"><g clip-path="url(#clip0)" fill="#A073FF"><path d="M22.24 10.91c.032-3.665-3.09-7.026-6.959-7.49a5.662 5.662 0 01-.25-.038 3.618 3.618 0 00-.589-.064c-.793 0-1.005.557-1.06.889-.055.323-.003.594.153.806.263.357.725.42 1.096.472.109.015.211.028.297.048 3.476.776 4.647 1.998 5.219 5.444.014.084.02.188.027.298.024.412.076 1.27.998 1.27.077 0 .16-.008.245-.02.858-.131.831-.915.818-1.29-.003-.107-.007-.207.002-.274a.373.373 0 00.004-.05z"/><path d="M14.217 2.074c.103.008.2.015.282.027 5.708.878 8.333 3.582 9.06 9.335.012.098.014.217.016.343.008.45.023 1.384 1.027 1.404h.03c.316 0 .566-.095.745-.282.313-.327.291-.813.274-1.203a4.263 4.263 0 01-.008-.265C25.716 5.55 20.623.215 14.745.016c-.024 0-.048 0-.071.004a.493.493 0 01-.07.004c-.058 0-.13-.005-.207-.01A4.012 4.012 0 0014.094 0c-.936 0-1.114.665-1.137 1.062-.053.917.834.981 1.26 1.012zm9.067 16.796a17.87 17.87 0 01-.364-.283 34.949 34.949 0 00-1.928-1.41l-.399-.28c-.82-.576-1.56-.856-2.257-.856-.94 0-1.759.519-2.435 1.543-.3.453-.663.674-1.11.674-.266 0-.567-.076-.895-.225-2.651-1.202-4.544-3.045-5.627-5.478-.523-1.176-.354-1.945.567-2.57.523-.355 1.497-1.016 1.428-2.282-.078-1.437-3.249-5.76-4.585-6.252-.565-.208-1.16-.21-1.77-.005C2.375 1.963 1.273 2.87.723 4.068c-.53 1.159-.507 2.519.07 3.934C2.458 12.093 4.8 15.66 7.755 18.603c2.892 2.882 6.447 5.242 10.565 7.015.371.16.76.247 1.045.31.097.022.18.04.241.057.034.01.068.015.103.015h.033c1.937 0 4.262-1.77 4.977-3.788.625-1.767-.517-2.64-1.435-3.342zm-8.21-12.123c-.331.009-1.022.026-1.264.729-.113.328-.1.613.04.847.206.344.6.449.958.507 1.3.208 1.967.927 2.1 2.26.062.623.481 1.057 1.019 1.057.04 0 .08-.002.12-.007.648-.077.961-.553.933-1.413.01-.897-.46-1.916-1.259-2.728-.801-.814-1.768-1.273-2.647-1.252z"/></g><defs><clipPath id="clip0"><path fill="#fff" d="M0 0h26v26H0z"/></clipPath></defs></svg>