<svg width="32" height="32" fill="none" xmlns="http://www.w3.org/2000/svg"><path d="M16 11.25c-.014 0 .013 0 0 0zm.735.046l8.516-9.798A3.724 3.724 0 0127.663.047a3.72 3.72 0 012.79.67 3.725 3.725 0 011.5 2.447c.157.99-.081 1.98-.67 2.791l-9.177 10.571a6.281 6.281 0 01-1.743 5.419c-2.342 2.355-4.985 2.68-7.492 2.68-3.523 0-6.326-2.118-6.444-2.208a1.25 1.25 0 01.3-2.154c1.818-.722 2.256-1.978 2.81-3.569.415-1.19.885-2.54 2.023-3.628 1.226-1.172 2.805-1.816 4.44-1.816.235.002.504.017.735.046zm2.525.905a6.403 6.403 0 011.798 1.719l8.228-9.472c.178-.263.248-.578.198-.893-.052-.33-.23-.62-.5-.815-.27-.197-.6-.276-.93-.224-.33.052-.62.23-.816.5l-7.978 9.185zm-.67 2.65a3.65 3.65 0 00-2.572-1.1c-.998-.006-1.966.392-2.73 1.122-.703.672-1.022 1.586-1.39 2.644-.435 1.25-.947 2.716-2.253 3.87.871.384 2.006.738 3.226.738 2.338 0 4.11-.325 5.72-1.943a3.79 3.79 0 00-.001-5.331zm12.16-3.976c-.691 0-1.25.56-1.25 1.25V21c.065 1.659 2.434 1.657 2.5 0v-8.875c0-.69-.56-1.25-1.25-1.25zm0 14.875c-.691 0-1.25.56-1.25 1.25 0 1.379-1.122 2.5-2.5 2.5H5A2.503 2.503 0 012.5 27V5c0-1.378 1.121-2.5 2.5-2.5h15.687c1.659-.065 1.657-2.434 0-2.5H5C2.243 0 0 2.245 0 5v22c0 2.757 2.243 5 5 5h22c2.756 0 5-2.243 5-5 0-.69-.56-1.25-1.25-1.25z" fill="url(#paint0_linear)"/><defs><linearGradient id="paint0_linear" x1="16" y1="0" x2="16" y2="32" gradientUnits="userSpaceOnUse"><stop stop-color="#A073FF"/><stop offset="1" stop-color="#EDA362"/></linearGradient></defs></svg>