<svg width="36" height="34" fill="none" xmlns="http://www.w3.org/2000/svg"><path opacity=".5" fill-rule="evenodd" clip-rule="evenodd" d="M34.07 20.945a4.228 4.228 0 00-6.679.561 4.229 4.229 0 00-6.684-.556c-1.596 1.74-1.413 4.474.242 6.157l5.883 5.979a.783.783 0 001.116 0l5.884-5.98c1.658-1.684 1.838-4.422.239-6.16z" fill="#A073FF"/><path fill-rule="evenodd" clip-rule="evenodd" d="M14.087 20.348H6.261a.782.782 0 110-1.565h7.826a.782.782 0 110 1.565z" fill="#A073FF"/><path fill-rule="evenodd" clip-rule="evenodd" d="M3.13 0h29.74A3.134 3.134 0 0136 3.13v14.087h-1.565v-3.913H1.565v10.174c0 .863.702 1.566 1.565 1.566h12.522v1.565H3.13A3.134 3.134 0 010 23.479V3.13A3.134 3.134 0 013.13 0zM1.565 7.043h32.87V3.13c0-.863-.702-1.565-1.565-1.565H3.13c-.863 0-1.565.702-1.565 1.565v3.913z" fill="#A073FF"/></svg>