<svg width="36" height="36" fill="none" xmlns="http://www.w3.org/2000/svg"><path opacity=".5" fill-rule="evenodd" clip-rule="evenodd" d="M8.04 4.126l1.106 1.107a12.522 12.522 0 0117.709 0l1.106-1.107a14.087 14.087 0 00-19.922 0zM18 6.261a7.801 7.801 0 00-5.533 2.292l1.106 1.107a6.261 6.261 0 018.855 0l1.106-1.107a7.8 7.8 0 00-5.533-2.292z" fill="#A073FF"/><path fill-rule="evenodd" clip-rule="evenodd" d="M23.48 28.174v-2.566l-1.813-.605a.783.783 0 01-.47-1.053l2.282-5.267v-1.465a10.14 10.14 0 0112.522-9.891v27.89H29.74v-3.912h-3.13a3.13 3.13 0 01-3.13-3.13zm-10.958 0v-2.566l1.812-.605a.782.782 0 00.47-1.053l-2.282-5.267v-1.465c0-5.62-4.555-10.174-10.174-10.174-.791.003-1.579.098-2.348.283v27.89h6.26v-3.912h3.131a3.13 3.13 0 003.13-3.13z" fill="#A073FF"/><path opacity=".5" fill-rule="evenodd" clip-rule="evenodd" d="M18 15.652a1.565 1.565 0 100-3.13 1.565 1.565 0 000 3.13z" fill="#A073FF"/></svg>