<svg width="36" height="36" fill="none" xmlns="http://www.w3.org/2000/svg"><path opacity=".2" fill-rule="evenodd" clip-rule="evenodd" d="M7.043 18c0 6.042 4.915 10.956 10.957 10.956 6.041 0 10.956-4.914 10.956-10.956S24.041 7.043 18 7.043C11.958 7.043 7.043 11.958 7.043 18zm1.565 0c0-5.178 4.213-9.391 9.392-9.391 5.178 0 9.39 4.213 9.39 9.391s-4.212 9.391-9.39 9.391c-5.179 0-9.392-4.212-9.392-9.391z" fill="#A073FF"/><path opacity=".5" fill-rule="evenodd" clip-rule="evenodd" d="M18 21.13a3.13 3.13 0 100-6.26 3.13 3.13 0 000 6.26z" fill="#A073FF"/><path fill-rule="evenodd" clip-rule="evenodd" d="M34.335 10.433c-.416.32-.87.594-1.357.803A16.41 16.41 0 0134.435 18c0 9.063-7.372 16.435-16.435 16.435-9.063 0-16.435-7.372-16.435-16.435C1.565 8.937 8.937 1.565 18 1.565c3.148 0 6.221.923 8.85 2.603a3.876 3.876 0 00-.241 1.31 3.917 3.917 0 003.913 3.913 3.918 3.918 0 003.913-3.913 3.918 3.918 0 00-3.913-3.913 3.893 3.893 0 00-2.863 1.265A18.025 18.025 0 0018 0C8.075 0 0 8.075 0 18s8.075 18 18 18 18-8.075 18-18a17.98 17.98 0 00-1.665-7.567z" fill="#A073FF"/></svg>